<?xml version="1.0" encoding="iso-8859-1"?>
<!-- Generator: Adobe Illustrator 19.1.0, SVG Export Plug-In . SVG Version: 6.00 Build 0)  -->
<svg version="1.1" id="Layer_1" xmlns="http://www.w3.org/2000/svg" xmlns:xlink="http://www.w3.org/1999/xlink" x="0px" y="0px"
	 width="54px" height="1620px" viewBox="0 0 54 1620" style="enable-background:new 0 0 54 1620;" xml:space="preserve">
<g>
	<path id="_x23_999999_2_" style="opacity:0.25;fill:#989798;enable-background:new    ;" d="M27-27C11.988-27,0-14.907,0,0
		s11.988,27,27,27S54,15.012,54,0S42.012-27,27-27 M27-20.328c11.259,0,20.328,9.07,20.328,20.328S38.259,20.328,27,20.328
		S6.672,11.259,6.672,0S15.741-20.328,27-20.328"/>
	<path id="foreground_2_" style="fill:#989798;" d="M27-27c15.012,0,27,11.988,27,27h-6.672c0-11.259-9.069-20.328-20.328-20.328
		V-27z"/>
</g>
<g>
	<path id="_x23_999999_1_" style="opacity:0.25;fill:#989798;enable-background:new    ;" d="M32.61,27.59
		C17.927,24.469,3.686,33.805,0.587,48.386S6.7,77.289,21.383,80.41s28.903-6.113,32.024-20.796S47.294,30.711,32.61,27.59
		 M31.223,34.116c11.013,2.341,17.998,13.098,15.657,24.11C44.54,69.239,33.783,76.225,22.77,73.884S4.772,60.786,7.113,49.773
		S20.211,31.775,31.223,34.116"/>
	<path id="foreground_1_" style="fill:#989798;" d="M32.61,27.59c14.684,3.121,23.917,17.34,20.796,32.024l-6.526-1.387
		c2.341-11.013-4.645-21.77-15.657-24.11L32.61,27.59z"/>
</g>
<g>
	<path id="_x23_999999_3_" style="opacity:0.25;fill:#989798;enable-background:new    ;" d="M37.973,83.334
		C24.259,77.228,8.389,83.399,2.325,97.018s-0.03,29.542,13.684,35.648c13.714,6.106,29.542,0.03,35.648-13.684
		S51.687,89.439,37.973,83.334 M35.259,89.429c10.285,4.579,14.882,16.554,10.303,26.839s-16.554,14.882-26.839,10.303
		S3.841,110.016,8.42,99.731S24.974,84.849,35.259,89.429"/>
	<path id="foreground_3_" style="fill:#989798;" d="M37.973,83.334c13.714,6.106,19.79,21.934,13.684,35.648l-6.095-2.714
		c4.579-10.285-0.017-22.26-10.303-26.839L37.973,83.334z"/>
</g>
<g>
	<path id="_x23_999999_4_" style="opacity:0.25;fill:#989798;enable-background:new    ;" d="M42.857,140.154
		c-12.145-8.824-28.951-6.087-37.714,5.973s-6.171,28.89,5.973,37.714s28.89,6.171,37.714-5.973
		C57.654,165.723,55.002,148.978,42.857,140.154 M38.935,145.552c9.108,6.618,11.115,19.286,4.497,28.394
		s-19.286,11.115-28.394,4.497s-11.115-19.286-4.497-28.394S29.827,138.934,38.935,145.552"/>
	<path id="foreground_4_" style="fill:#989798;" d="M42.857,140.154c12.145,8.824,14.797,25.569,5.973,37.714l-5.398-3.922
		c6.618-9.108,4.611-21.777-4.497-28.394L42.857,140.154z"/>
</g>
<g>
	<path id="_x23_999999_5_" style="opacity:0.25;fill:#989798;enable-background:new    ;" d="M47.051,197.929
		c-10.045-11.156-27.053-11.973-38.131-1.998c-11.078,9.975-12.043,26.976-1.998,38.131c10.045,11.156,26.976,12.043,38.131,1.998
		C56.209,226.015,57.096,209.084,47.051,197.929 M42.093,202.393c7.534,8.367,6.862,21.175-1.505,28.709s-21.175,6.862-28.709-1.505
		s-6.862-21.175,1.505-28.709S34.56,194.026,42.093,202.393"/>
	<path id="foreground_5_" style="fill:#989798;" d="M47.051,197.929c10.045,11.156,9.157,28.087-1.998,38.131l-4.464-4.958
		c8.367-7.534,9.038-20.342,1.505-28.709L47.051,197.929z"/>
</g>
<g>
	<path id="_x23_999999_6_" style="opacity:0.25;fill:#989798;enable-background:new    ;" d="M50.373,256.493
		c-7.506-13-23.973-17.336-36.883-9.883s-17.388,23.882-9.883,36.883c7.506,13,23.882,17.388,36.883,9.883
		C53.491,285.87,57.879,269.493,50.373,256.493 M44.595,259.829c5.629,9.75,2.31,22.139-7.441,27.769s-22.139,2.31-27.769-7.441
		c-5.629-9.75-2.31-22.139,7.441-27.769C26.576,246.759,38.966,250.078,44.595,259.829"/>
	<path id="foreground_6_" style="fill:#989798;" d="M50.373,256.493c7.506,13,3.118,29.377-9.883,36.883l-3.336-5.778
		c9.75-5.629,13.07-18.018,7.441-27.769L50.373,256.493z"/>
</g>
<g>
	<path id="_x23_999999_7_" style="opacity:0.25;fill:#989798;enable-background:new    ;" d="M52.674,315.647
		c-4.639-14.277-19.844-21.942-34.022-17.335c-14.178,4.607-21.974,19.745-17.335,34.022c4.639,14.277,19.745,21.974,34.022,17.335
		C49.616,345.031,57.313,329.924,52.674,315.647 M46.329,317.709c3.479,10.708-2.344,22.136-13.051,25.615
		s-22.136-2.344-25.615-13.052c-3.479-10.708,2.344-22.136,13.051-25.615S42.85,307.001,46.329,317.709"/>
	<path id="foreground_7_" style="fill:#989798;" d="M52.674,315.647c4.639,14.277-3.058,29.383-17.335,34.022l-2.062-6.345
		c10.708-3.479,16.531-14.907,13.051-25.615L52.674,315.647z"/>
</g>
<g>
	<path id="_x23_999999_8_" style="opacity:0.25;fill:#989798;enable-background:new    ;" d="M53.851,375.168
		c-1.569-14.929-14.849-25.588-29.674-24.03c-14.826,1.558-25.599,14.745-24.03,29.674s14.745,25.599,29.674,24.03
		C44.751,403.273,55.421,390.097,53.851,375.168 M47.216,375.865c1.177,11.197-6.895,21.165-18.092,22.342
		s-21.165-6.895-22.342-18.092c-1.177-11.197,6.895-21.165,18.092-22.342S46.039,364.668,47.216,375.865"/>
	<path id="foreground_8_" style="fill:#989798;" d="M53.851,375.168c1.569,14.929-9.1,28.105-24.03,29.674l-0.697-6.635
		c11.197-1.177,19.269-11.145,18.092-22.342L53.851,375.168z"/>
</g>
<g>
	<path id="_x23_999999_9_" style="opacity:0.25;fill:#989798;enable-background:new    ;" d="M53.853,434.812
		c1.569-14.929-9.204-28.116-24.03-29.674c-14.826-1.558-28.105,9.1-29.674,24.03s9.1,28.105,24.03,29.674
		C39.108,460.411,52.284,449.742,53.853,434.812 M47.218,434.115c-1.177,11.197-11.145,19.269-22.342,18.092
		S5.607,441.062,6.784,429.865c1.177-11.197,11.145-19.269,22.342-18.092S48.394,422.918,47.218,434.115"/>
	<path id="foreground_9_" style="fill:#989798;" d="M53.853,434.812c-1.569,14.929-14.745,25.599-29.674,24.03l0.697-6.635
		c11.197,1.177,21.165-6.895,22.342-18.092L53.853,434.812z"/>
</g>
<g>
	<path id="_x23_999999_10_" style="opacity:0.25;fill:#989798;enable-background:new    ;" d="M52.683,494.334
		c4.639-14.277-3.157-29.415-17.335-34.022S5.965,463.37,1.326,477.647s3.058,29.383,17.335,34.022S48.044,508.61,52.683,494.334
		 M46.338,492.272c-3.479,10.708-14.907,16.531-25.615,13.051c-10.708-3.479-16.531-14.907-13.051-25.615
		s14.907-16.531,25.615-13.052C43.994,470.136,49.817,481.564,46.338,492.272"/>
	<path id="foreground_10_" style="fill:#989798;" d="M52.683,494.334c-4.639,14.277-19.745,21.974-34.022,17.335l2.062-6.345
		c10.708,3.479,22.136-2.344,25.615-13.052L52.683,494.334z"/>
</g>
<g>
	<path id="_x23_999999_11_" style="opacity:0.25;fill:#989798;enable-background:new    ;" d="M50.393,553.491
		c7.506-13,3.027-29.429-9.883-36.883c-12.91-7.454-29.377-3.118-36.883,9.883c-7.506,13-3.118,29.377,9.883,36.883
		S42.887,566.492,50.393,553.491 M44.615,550.155c-5.629,9.75-18.019,13.07-27.769,7.441s-13.07-18.018-7.441-27.769
		s18.019-13.07,27.769-7.441C46.924,528.016,50.244,540.405,44.615,550.155"/>
	<path id="foreground_11_" style="fill:#989798;" d="M50.393,553.491c-7.506,13-23.882,17.388-36.883,9.883l3.336-5.778
		c9.75,5.629,22.139,2.31,27.769-7.441L50.393,553.491z"/>
</g>
<g>
	<path id="_x23_999999_12_" style="opacity:0.25;fill:#989798;enable-background:new    ;" d="M47.078,612.06
		c10.045-11.156,9.08-28.156-1.998-38.131s-28.087-9.157-38.131,1.998c-10.045,11.156-9.157,28.087,1.998,38.131
		S37.034,623.216,47.078,612.06 M42.12,607.596c-7.534,8.367-20.342,9.038-28.709,1.505s-9.038-20.342-1.505-28.709
		c7.534-8.367,20.342-9.038,28.709-1.505C48.983,586.42,49.654,599.229,42.12,607.596"/>
	<path id="foreground_12_" style="fill:#989798;" d="M47.078,612.06c-10.045,11.156-26.976,12.043-38.131,1.998l4.464-4.958
		c8.367,7.534,21.175,6.862,28.709-1.505L47.078,612.06z"/>
</g>
<g>
	<path id="_x23_999999_13_" style="opacity:0.25;fill:#989798;enable-background:new    ;" d="M42.883,669.84
		c12.145-8.824,14.736-25.653,5.973-37.714s-25.569-14.797-37.714-5.973s-14.797,25.569-5.973,37.714S30.739,678.664,42.883,669.84
		 M38.962,664.443c-9.108,6.618-21.777,4.611-28.394-4.497s-4.611-21.777,4.497-28.394c9.108-6.618,21.777-4.611,28.394,4.497
		S48.07,657.825,38.962,664.443"/>
	<path id="foreground_13_" style="fill:#989798;" d="M42.883,669.84c-12.145,8.824-28.89,6.171-37.714-5.973l5.398-3.922
		c6.618,9.108,19.286,11.115,28.394,4.497L42.883,669.84z"/>
</g>
<g>
	<path id="_x23_999999_14_" style="opacity:0.25;fill:#989798;enable-background:new    ;" d="M37.991,726.665
		c13.714-6.106,19.747-22.029,13.684-35.648c-6.063-13.619-21.934-19.79-35.648-13.684s-19.79,21.934-13.684,35.648
		S24.277,732.771,37.991,726.665 M35.277,720.57c-10.285,4.579-22.26-0.017-26.839-10.302c-4.579-10.285,0.017-22.26,10.303-26.839
		c10.285-4.579,22.26,0.017,26.839,10.302C50.159,704.017,45.563,715.991,35.277,720.57"/>
	<path id="foreground_14_" style="fill:#989798;" d="M37.991,726.665c-13.714,6.106-29.542,0.03-35.648-13.684l6.095-2.714
		c4.579,10.285,16.554,14.882,26.839,10.303L37.991,726.665z"/>
</g>
<g>
	<path id="_x23_999999_15_" style="opacity:0.25;fill:#989798;enable-background:new    ;" d="M32.617,782.412
		c14.684-3.121,23.896-17.442,20.796-32.024c-3.099-14.582-17.34-23.917-32.024-20.796s-23.917,17.34-20.796,32.024
		C3.714,776.299,17.933,785.533,32.617,782.412 M31.23,775.886c-11.013,2.341-21.77-4.645-24.11-15.657s4.645-21.77,15.657-24.11
		c11.013-2.341,21.77,4.645,24.11,15.657C49.228,762.788,42.242,773.545,31.23,775.886"/>
	<path id="foreground_15_" style="fill:#989798;" d="M32.617,782.412c-14.684,3.121-28.903-6.113-32.024-20.796l6.526-1.387
		c2.341,11.013,13.098,17.998,24.11,15.657L32.617,782.412z"/>
</g>
<g>
	<path id="_x23_999999_16_" style="opacity:0.25;fill:#989798;enable-background:new    ;" d="M27,837.002c15.012,0,27-12.093,27-27
		c0-14.907-11.988-27-27-27s-27,11.988-27,27C0,825.014,11.988,837.002,27,837.002 M27,830.331c-11.259,0-20.328-9.07-20.328-20.328
		S15.741,789.674,27,789.674s20.328,9.07,20.328,20.328S38.259,830.331,27,830.331"/>
	<path id="foreground_16_" style="fill:#989798;" d="M27,837.002c-15.012,0-27-11.988-27-27h6.672
		c0,11.259,9.069,20.328,20.328,20.328V837.002z"/>
</g>
<g>
	<path id="_x23_999999_17_" style="opacity:0.25;fill:#989798;enable-background:new    ;" d="M21.39,890.412
		c14.684,3.121,28.924-6.215,32.024-20.796c3.099-14.582-6.113-28.903-20.796-32.024c-14.684-3.121-28.903,6.113-32.024,20.796
		C-2.528,873.072,6.706,887.291,21.39,890.412 M22.777,883.886c-11.013-2.341-17.998-13.098-15.657-24.11
		s13.098-17.998,24.11-15.658s17.998,13.098,15.657,24.11C44.546,879.242,33.789,886.227,22.777,883.886"/>
	<path id="foreground_17_" style="fill:#989798;" d="M21.39,890.412c-14.684-3.121-23.917-17.34-20.796-32.024l6.526,1.387
		c-2.341,11.013,4.645,21.77,15.657,24.11L21.39,890.412z"/>
</g>
<g>
	<path id="_x23_999999_18_" style="opacity:0.25;fill:#989798;enable-background:new    ;" d="M16.027,942.669
		c13.714,6.106,29.584-0.065,35.648-13.684c6.063-13.619,0.03-29.542-13.684-35.648c-13.714-6.106-29.542-0.03-35.648,13.684
		S2.313,936.563,16.027,942.669 M18.741,936.574C8.456,931.994,3.859,920.02,8.438,909.735
		c4.579-10.285,16.554-14.882,26.839-10.302c10.285,4.579,14.882,16.554,10.303,26.839C41,936.557,29.026,941.153,18.741,936.574"/>
	<path id="foreground_18_" style="fill:#989798;" d="M16.027,942.669c-13.714-6.106-19.79-21.934-13.684-35.648l6.095,2.714
		c-4.579,10.285,0.017,22.26,10.303,26.839L16.027,942.669z"/>
</g>
<g>
	<path id="_x23_999999_19_" style="opacity:0.25;fill:#989798;enable-background:new    ;" d="M11.143,993.848
		c12.145,8.824,28.951,6.087,37.714-5.973s6.171-28.89-5.973-37.714s-28.89-6.171-37.714,5.973S-1.002,985.025,11.143,993.848
		 M15.065,988.451c-9.108-6.618-11.115-19.286-4.497-28.394c6.618-9.108,19.286-11.115,28.394-4.497
		c9.108,6.618,11.115,19.286,4.497,28.394S24.173,995.068,15.065,988.451"/>
	<path id="foreground_19_" style="fill:#989798;" d="M11.143,993.848c-12.145-8.824-14.797-25.569-5.973-37.714l5.398,3.922
		c-6.618,9.108-4.611,21.777,4.497,28.394L11.143,993.848z"/>
</g>
<g>
	<path id="_x23_999999_20_" style="opacity:0.25;fill:#989798;enable-background:new    ;" d="M6.949,1044.074
		c10.045,11.156,27.053,11.973,38.131,1.998s12.043-26.976,1.998-38.131c-10.045-11.156-26.976-12.043-38.131-1.998
		S-3.096,1032.918,6.949,1044.074 M11.907,1039.609c-7.534-8.367-6.862-21.175,1.505-28.709c8.367-7.534,21.175-6.862,28.709,1.505
		c7.534,8.367,6.862,21.175-1.505,28.709C32.249,1048.648,19.44,1047.976,11.907,1039.609"/>
	<path id="foreground_20_" style="fill:#989798;" d="M6.949,1044.074c-10.045-11.156-9.157-28.087,1.998-38.131l4.464,4.958
		c-8.367,7.534-9.038,20.342-1.505,28.709L6.949,1044.074z"/>
</g>
<g>
	<path id="_x23_999999_21_" style="opacity:0.25;fill:#989798;enable-background:new    ;" d="M3.627,1093.51
		c7.506,13,23.973,17.336,36.883,9.883c12.91-7.454,17.388-23.882,9.883-36.883c-7.506-13-23.882-17.389-36.883-9.883
		C0.509,1064.133-3.879,1080.509,3.627,1093.51 M9.405,1090.174c-5.629-9.75-2.31-22.139,7.441-27.769s22.139-2.31,27.769,7.441
		c5.629,9.75,2.31,22.139-7.441,27.769C27.424,1103.244,15.034,1099.924,9.405,1090.174"/>
	<path id="foreground_21_" style="fill:#989798;" d="M3.627,1093.51c-7.506-13-3.118-29.377,9.883-36.883l3.336,5.778
		c-9.75,5.629-13.07,18.018-7.441,27.769L3.627,1093.51z"/>
</g>
<g>
	<path id="_x23_999999_22_" style="opacity:0.25;fill:#989798;enable-background:new    ;" d="M1.326,1142.355
		c4.639,14.277,19.844,21.942,34.022,17.335c14.178-4.607,21.974-19.745,17.335-34.022s-19.745-21.974-34.022-17.335
		S-3.313,1128.078,1.326,1142.355 M7.671,1140.293c-3.479-10.708,2.344-22.136,13.051-25.615s22.136,2.344,25.615,13.051
		s-2.344,22.136-13.051,25.615S11.15,1151.001,7.671,1140.293"/>
	<path id="foreground_22_" style="fill:#989798;" d="M1.326,1142.355c-4.639-14.277,3.058-29.383,17.335-34.022l2.062,6.345
		c-10.708,3.479-16.531,14.907-13.051,25.615L1.326,1142.355z"/>
</g>
<g>
	<path id="_x23_999999_23_" style="opacity:0.25;fill:#989798;enable-background:new    ;" d="M0.149,1190.835
		c1.569,14.929,14.849,25.588,29.674,24.03c14.826-1.558,25.599-14.745,24.03-29.674s-14.745-25.599-29.674-24.03
		C9.249,1162.729-1.421,1175.905,0.149,1190.835 M6.784,1190.137c-1.177-11.197,6.895-21.165,18.092-22.342
		s21.165,6.895,22.342,18.092s-6.895,21.165-18.092,22.342C17.928,1209.406,7.961,1201.334,6.784,1190.137"/>
	<path id="foreground_23_" style="fill:#989798;" d="M0.149,1190.835c-1.569-14.929,9.1-28.105,24.03-29.674l0.697,6.635
		c-11.197,1.177-19.269,11.145-18.092,22.342L0.149,1190.835z"/>
</g>
<g>
	<path id="_x23_999999_24_" style="opacity:0.25;fill:#989798;enable-background:new    ;" d="M0.147,1239.19
		c-1.569,14.929,9.204,28.116,24.03,29.674c14.826,1.558,28.105-9.1,29.674-24.03s-9.1-28.105-24.03-29.674
		C14.892,1213.591,1.716,1224.261,0.147,1239.19 M6.782,1239.888c1.177-11.197,11.145-19.269,22.342-18.092
		s19.269,11.145,18.092,22.342s-11.145,19.269-22.342,18.092S5.606,1251.085,6.782,1239.888"/>
	<path id="foreground_24_" style="fill:#989798;" d="M0.147,1239.19c1.569-14.929,14.745-25.599,29.674-24.03l-0.697,6.635
		c-11.197-1.177-21.165,6.895-22.342,18.092L0.147,1239.19z"/>
</g>
<g>
	<path id="_x23_999999_25_" style="opacity:0.25;fill:#989798;enable-background:new    ;" d="M1.317,1287.669
		c-4.639,14.277,3.157,29.415,17.335,34.022c14.178,4.607,29.383-3.058,34.022-17.335c4.639-14.277-3.058-29.383-17.335-34.022
		C21.062,1265.695,5.956,1273.392,1.317,1287.669 M7.662,1289.731c3.479-10.708,14.907-16.531,25.615-13.052
		s16.531,14.907,13.051,25.615c-3.479,10.708-14.907,16.531-25.615,13.052S4.183,1300.438,7.662,1289.731"/>
	<path id="foreground_25_" style="fill:#989798;" d="M1.317,1287.669c4.639-14.277,19.745-21.974,34.022-17.335l-2.062,6.345
		c-10.708-3.479-22.136,2.344-25.615,13.052L1.317,1287.669z"/>
</g>
<g>
	<path id="_x23_999999_26_" style="opacity:0.25;fill:#989798;enable-background:new    ;" d="M3.607,1336.511
		c-7.506,13-3.027,29.429,9.883,36.883s29.377,3.118,36.883-9.883s3.118-29.377-9.883-36.883
		C27.49,1319.123,11.113,1323.511,3.607,1336.511 M9.385,1339.847c5.629-9.75,18.019-13.07,27.769-7.441
		c9.75,5.629,13.07,18.018,7.441,27.769c-5.629,9.75-18.019,13.07-27.769,7.441C7.076,1361.987,3.756,1349.597,9.385,1339.847"/>
	<path id="foreground_26_" style="fill:#989798;" d="M3.607,1336.511c7.506-13,23.882-17.389,36.883-9.883l-3.336,5.778
		c-9.75-5.629-22.139-2.31-27.769,7.441L3.607,1336.511z"/>
</g>
<g>
	<path id="_x23_999999_27_" style="opacity:0.25;fill:#989798;enable-background:new    ;" d="M6.922,1385.942
		c-10.045,11.156-9.08,28.156,1.998,38.131s28.087,9.157,38.131-1.998s9.157-28.087-1.998-38.131
		C33.897,1373.899,16.966,1374.787,6.922,1385.942 M11.88,1390.407c7.534-8.367,20.342-9.038,28.709-1.505
		c8.367,7.533,9.038,20.342,1.505,28.709s-20.342,9.038-28.709,1.505C5.017,1411.582,4.346,1398.773,11.88,1390.407"/>
	<path id="foreground_27_" style="fill:#989798;" d="M6.922,1385.942c10.045-11.156,26.976-12.043,38.131-1.998l-4.464,4.958
		c-8.367-7.533-21.175-6.862-28.709,1.505L6.922,1385.942z"/>
</g>
<g>
	<path id="_x23_999999_28_" style="opacity:0.25;fill:#989798;enable-background:new    ;" d="M11.117,1436.162
		c-12.145,8.824-14.736,25.653-5.973,37.714s25.569,14.797,37.714,5.973c12.145-8.823,14.797-25.569,5.973-37.714
		S23.261,1427.339,11.117,1436.162 M15.038,1441.56c9.108-6.618,21.777-4.611,28.394,4.497c6.618,9.109,4.611,21.777-4.497,28.395
		c-9.108,6.618-21.777,4.611-28.394-4.497C3.923,1460.846,5.93,1448.178,15.038,1441.56"/>
	<path id="foreground_28_" style="fill:#989798;" d="M11.117,1436.162c12.145-8.824,28.89-6.171,37.714,5.973l-5.398,3.922
		c-6.618-9.109-19.286-11.115-28.394-4.497L11.117,1436.162z"/>
</g>
<g>
	<path id="_x23_999999_29_" style="opacity:0.25;fill:#989798;enable-background:new    ;" d="M16.009,1487.337
		c-13.714,6.106-19.747,22.029-13.684,35.648c6.063,13.619,21.934,19.79,35.648,13.684c13.714-6.106,19.79-21.934,13.684-35.648
		C45.551,1487.307,29.723,1481.231,16.009,1487.337 M18.723,1493.432c10.285-4.579,22.26,0.017,26.839,10.302
		s-0.017,22.26-10.303,26.839s-22.26-0.017-26.839-10.302C3.841,1509.986,8.437,1498.011,18.723,1493.432"/>
	<path id="foreground_29_" style="fill:#989798;" d="M16.009,1487.337c13.714-6.106,29.542-0.03,35.648,13.684l-6.095,2.714
		c-4.579-10.285-16.554-14.882-26.839-10.302L16.009,1487.337z"/>
</g>
<g>
	<path id="_x23_999999_30_" style="opacity:0.25;fill:#989798;enable-background:new    ;" d="M21.383,1539.591
		c-14.684,3.121-23.896,17.442-20.796,32.024c3.099,14.582,17.34,23.917,32.024,20.796s23.917-17.34,20.796-32.024
		C50.286,1545.704,36.067,1536.47,21.383,1539.591 M22.77,1546.117c11.013-2.341,21.77,4.645,24.11,15.657
		c2.341,11.013-4.645,21.77-15.657,24.11s-21.77-4.645-24.11-15.657C4.772,1559.214,11.758,1548.458,22.77,1546.117"/>
	<path id="foreground_30_" style="fill:#989798;" d="M21.383,1539.591c14.684-3.121,28.903,6.113,32.024,20.796l-6.526,1.387
		c-2.341-11.013-13.098-17.998-24.11-15.657L21.383,1539.591z"/>
</g>
<g>
	<path id="_x23_999999_31_" style="opacity:0.25;fill:#989798;enable-background:new    ;" d="M26.996,1593
		c-15.012,0-27,12.093-27,27c0,14.907,11.988,27,27,27s27-11.988,27-27S42.008,1593,26.996,1593 M26.996,1599.672
		c11.259,0,20.328,9.07,20.328,20.328s-9.069,20.328-20.328,20.328S6.668,1631.259,6.668,1620S15.738,1599.672,26.996,1599.672"/>
	<path id="foreground_31_" style="fill:#989798;" d="M26.996,1593c15.012,0,27,11.988,27,27h-6.672
		c0-11.259-9.069-20.328-20.328-20.328V1593z"/>
</g>
</svg>
