<?xml version="1.0" encoding="utf-8"?>
<!-- Generator: Adobe Illustrator 19.1.0, SVG Export Plug-In . SVG Version: 6.00 Build 0)  -->
<svg version="1.1" id="Layer_1" xmlns="http://www.w3.org/2000/svg" xmlns:xlink="http://www.w3.org/1999/xlink" x="0px" y="0px"
	 viewBox="0 0 33.2 960.2" style="enable-background:new 0 0 33.2 960.2;" xml:space="preserve">
<style type="text/css">
	.st0{opacity:0.25;fill:#989898;enable-background:new    ;}
	.st1{fill:#989898;}
</style>
<g>
	<path id="_x23_999999_1_" class="st0" d="M16.6,0C7.9,0,0.9,7,0.9,15.7s7,15.7,15.7,15.7s15.7-7,15.7-15.7S25.3,0,16.6,0 M16.6,3.9
		c6.5,0,11.8,5.3,11.8,11.8s-5.3,11.8-11.8,11.8S4.8,22.2,4.8,15.7S10.1,3.9,16.6,3.9"/>
	<path id="foreground_1_" class="st1" d="M16.6,0c8.7,0,15.7,7,15.7,15.7h-3.9c0-6.5-5.3-11.8-11.8-11.8V0z"/>
</g>
<g>
	<path id="_x23_999999_2_" class="st0" d="M19.9,33.5c-8.5-1.8-16.8,3.6-18.6,12.1s3.6,16.8,12.1,18.6c8.5,1.8,16.8-3.6,18.6-12.1
		S28.3,35.3,19.9,33.5 M19.1,37.3c6.4,1.4,10.4,7.6,9.1,13.9s-7.6,10.4-13.9,9.1S3.8,52.8,5.1,46.4S12.7,36,19.1,37.3"/>
	<path id="foreground_2_" class="st1" d="M19.9,33.5c8.5,1.8,13.9,10.1,12.1,18.6l-3.8-0.8c1.4-6.4-2.7-12.6-9.1-13.9L19.9,33.5z"/>
</g>
<g>
	<path id="_x23_999999_3_" class="st0" d="M23,67.7c-7.9-3.5-17.2,0-20.7,7.9s0,17.2,7.9,20.7s17.2,0,20.7-7.9S30.9,71.2,23,67.7
		 M21.4,71.3c5.9,2.6,8.6,9.6,6,15.5c-2.6,5.9-9.6,8.6-15.5,6c-5.9-2.6-8.6-9.6-6-15.5C8.5,71.3,15.5,68.6,21.4,71.3"/>
	<path id="foreground_3_" class="st1" d="M23,67.7c7.9,3.5,11.5,12.8,7.9,20.7l-3.6-1.6c2.6-5.9,0-12.9-6-15.5L23,67.7z"/>
</g>
<g>
	<path id="_x23_999999_4_" class="st0" d="M25.8,102.5C18.8,97.4,9,99,3.9,106s-3.5,16.8,3.5,21.9c7,5.1,16.8,3.5,21.9-3.5
		C34.4,117.4,32.8,107.6,25.8,102.5 M23.5,105.7c5.3,3.8,6.4,11.2,2.6,16.4c-3.8,5.3-11.2,6.4-16.4,2.6s-6.4-11.2-2.6-16.4
		C10.9,103,18.3,101.9,23.5,105.7"/>
	<path id="foreground_4_" class="st1" d="M25.8,102.5c7,5.1,8.6,14.9,3.5,21.9l-3.2-2.3c3.8-5.3,2.7-12.6-2.6-16.4L25.8,102.5z"/>
</g>
<g>
	<path id="_x23_999999_5_" class="st0" d="M28.3,137.9c-5.8-6.4-15.7-7-22.1-1.2s-7,15.7-1.2,22.1c5.8,6.4,15.7,7,22.1,1.2
		C33.5,154.2,34.1,144.3,28.3,137.9 M25.4,140.5c4.3,4.8,4,12.3-0.9,16.6s-12.3,4-16.6-0.9s-4-12.3,0.9-16.6S21,135.7,25.4,140.5"/>
	<path id="foreground_5_" class="st1" d="M28.3,137.9c5.8,6.4,5.3,16.4-1.2,22.1l-2.6-2.9c4.8-4.3,5.2-11.8,0.9-16.6L28.3,137.9z"/>
</g>
<g>
	<path id="_x23_999999_6_" class="st0" d="M30.2,173.7c-4.3-7.5-13.9-10.1-21.4-5.7S-1.3,181.9,3,189.4s13.9,10.1,21.4,5.7
		S34.5,181.2,30.2,173.7 M26.8,175.7c3.2,5.6,1.3,12.8-4.3,16.1c-5.6,3.2-12.8,1.3-16.1-4.3c-3.2-5.6-1.3-12.8,4.3-16.1
		C16.4,168.1,23.5,170,26.8,175.7"/>
	<path id="foreground_6_" class="st1" d="M30.2,173.7c4.3,7.5,1.8,17.1-5.7,21.4l-2-3.4c5.6-3.2,7.6-10.4,4.3-16.1L30.2,173.7z"/>
</g>
<g>
	<path id="_x23_999999_7_" class="st0" d="M31.5,209.9c-2.7-8.2-11.5-12.7-19.8-10.1C3.5,202.5-1,211.3,1.7,219.6
		c2.7,8.2,11.5,12.7,19.8,10.1C29.7,227,34.2,218.1,31.5,209.9 M27.8,211.1c2,6.2-1.4,12.8-7.6,14.8s-12.8-1.4-14.8-7.6
		c-2-6.2,1.4-12.8,7.6-14.8C19.2,201.5,25.8,204.9,27.8,211.1"/>
	<path id="foreground_7_" class="st1" d="M31.5,209.9c2.7,8.2-1.8,17.1-10.1,19.8l-1.2-3.7c6.2-2,9.6-8.6,7.6-14.8L31.5,209.9z"/>
</g>
<g>
	<path id="_x23_999999_8_" class="st0" d="M32.2,246.2c-0.9-8.6-8.6-14.9-17.2-14s-14.9,8.6-14,17.2s8.6,14.9,17.2,14
		S33.1,254.9,32.2,246.2 M28.3,246.7c0.7,6.5-4,12.2-10.5,12.9s-12.2-4-12.9-10.5s4-12.2,10.5-12.9S27.6,240.2,28.3,246.7"/>
	<path id="foreground_8_" class="st1" d="M32.2,246.2c0.9,8.6-5.3,16.3-14,17.2l-0.4-3.9c6.5-0.7,11.1-6.5,10.5-12.9L32.2,246.2z"/>
</g>
<g>
	<path id="_x23_999999_9_" class="st0" d="M32.2,282.7c0.9-8.6-5.3-16.3-14-17.2c-8.6-0.9-16.3,5.3-17.2,14s5.3,16.3,14,17.2
		C23.6,297.6,31.3,291.3,32.2,282.7 M28.3,282.3c-0.7,6.5-6.5,11.1-12.9,10.5c-6.5-0.7-11.1-6.5-10.5-12.9s6.5-11.1,12.9-10.5
		C24.3,270,29,275.8,28.3,282.3"/>
	<path id="foreground_9_" class="st1" d="M32.2,282.7c-0.9,8.6-8.6,14.9-17.2,14l0.4-3.9c6.5,0.7,12.2-4,12.9-10.5L32.2,282.7z"/>
</g>
<g>
	<path id="_x23_999999_10_" class="st0" d="M31.5,319.1c2.7-8.2-1.8-17.1-10.1-19.8c-8.2-2.7-17.1,1.8-19.8,10.1
		c-2.7,8.2,1.8,17.1,10.1,19.8S28.8,327.3,31.5,319.1 M27.8,317.9c-2,6.2-8.6,9.6-14.8,7.6s-9.6-8.6-7.6-14.8s8.6-9.6,14.8-7.6
		S29.8,311.7,27.8,317.9"/>
	<path id="foreground_10_" class="st1" d="M31.5,319.1c-2.7,8.2-11.5,12.7-19.8,10.1l1.2-3.7c6.2,2,12.8-1.4,14.8-7.6L31.5,319.1z"
		/>
</g>
<g>
	<path id="_x23_999999_11_" class="st0" d="M30.2,355.2c4.3-7.5,1.8-17.1-5.7-21.4S7.4,332.1,3,339.6S1.3,356.7,8.8,361
		S25.9,362.7,30.2,355.2 M26.8,353.3c-3.2,5.6-10.4,7.6-16.1,4.3s-7.6-10.4-4.3-16.1s10.4-7.6,16.1-4.3S30,347.7,26.8,353.3"/>
	<path id="foreground_11_" class="st1" d="M30.2,355.2c-4.3,7.5-13.9,10.1-21.4,5.7l2-3.4c5.6,3.2,12.8,1.3,16.1-4.3L30.2,355.2z"/>
</g>
<g>
	<path id="_x23_999999_12_" class="st0" d="M28.3,391.1c5.8-6.4,5.3-16.4-1.2-22.1c-6.4-5.8-16.4-5.3-22.1,1.2s-5.3,16.4,1.2,22.1
		C12.6,398,22.5,397.5,28.3,391.1 M25.4,388.4c-4.3,4.8-11.8,5.2-16.6,0.9c-4.8-4.3-5.2-11.8-0.9-16.6s11.8-5.2,16.6-0.9
		C29.3,376.2,29.7,383.6,25.4,388.4"/>
	<path id="foreground_12_" class="st1" d="M28.3,391.1c-5.8,6.4-15.7,7-22.1,1.2l2.6-2.9c4.8,4.3,12.3,4,16.6-0.9L28.3,391.1z"/>
</g>
<g>
	<path id="_x23_999999_13_" class="st0" d="M25.8,426.4c7-5.1,8.6-14.9,3.5-21.9s-14.9-8.6-21.9-3.5S-1.2,416,3.9,423
		C9,430,18.8,431.5,25.8,426.4 M23.5,423.3c-5.3,3.8-12.6,2.7-16.4-2.6c-3.8-5.3-2.7-12.6,2.6-16.4c5.3-3.8,12.6-2.7,16.4,2.6
		S28.8,419.4,23.5,423.3"/>
	<path id="foreground_13_" class="st1" d="M25.8,426.4c-7,5.1-16.8,3.5-21.9-3.5l3.2-2.3c3.8,5.3,11.2,6.4,16.4,2.6L25.8,426.4z"/>
</g>
<g>
	<path id="_x23_999999_14_" class="st0" d="M23,461.2c7.9-3.5,11.5-12.8,7.9-20.7s-12.8-11.5-20.7-7.9c-7.9,3.5-11.5,12.8-7.9,20.7
		S15.1,464.8,23,461.2 M21.4,457.7c-5.9,2.6-12.9,0-15.5-6s0-12.9,6-15.5c5.9-2.6,12.9,0,15.5,6S27.3,455,21.4,457.7"/>
	<path id="foreground_14_" class="st1" d="M23,461.2c-7.9,3.5-17.2,0-20.7-7.9l3.6-1.6c2.6,5.9,9.6,8.6,15.5,6L23,461.2z"/>
</g>
<g>
	<path id="_x23_999999_15_" class="st0" d="M19.9,495.4c8.5-1.8,13.9-10.1,12.1-18.6c-1.8-8.5-10.1-13.9-18.6-12.1
		s-13.9,10.1-12.1,18.6C3.1,491.8,11.4,497.2,19.9,495.4 M19.1,491.6c-6.4,1.4-12.6-2.7-13.9-9.1c-1.4-6.4,2.7-12.6,9.1-13.9
		s12.6,2.7,13.9,9.1C29.5,484,25.4,490.2,19.1,491.6"/>
	<path id="foreground_15_" class="st1" d="M19.9,495.4c-8.5,1.8-16.8-3.6-18.6-12.1l3.8-0.8c1.4,6.4,7.6,10.4,13.9,9.1L19.9,495.4z"
		/>
</g>
<g>
	<path id="_x23_999999_16_" class="st0" d="M16.6,529c8.7,0,15.7-7,15.7-15.7s-7-15.7-15.7-15.7s-15.7,7-15.7,15.7S7.9,529,16.6,529
		 M16.6,525c-6.5,0-11.8-5.3-11.8-11.8c0-6.5,5.3-11.8,11.8-11.8s11.8,5.3,11.8,11.8C28.4,519.8,23.1,525,16.6,525"/>
	<path id="foreground_16_" class="st1" d="M16.6,529c-8.7,0-15.7-7-15.7-15.7h3.9c0,6.5,5.3,11.8,11.8,11.8V529z"/>
</g>
<g>
	<path id="_x23_999999_17_" class="st0" d="M13.4,561.8c8.5,1.8,16.8-3.6,18.6-12.1s-3.6-16.8-12.1-18.6s-16.8,3.6-18.6,12.1
		C-0.5,551.6,4.9,560,13.4,561.8 M14.2,557.9c-6.4-1.4-10.4-7.6-9.1-13.9s7.6-10.4,13.9-9.1c6.4,1.4,10.4,7.6,9.1,13.9
		C26.8,555.2,20.5,559.3,14.2,557.9"/>
	<path id="foreground_17_" class="st1" d="M13.4,561.8C4.9,560-0.5,551.6,1.3,543.2l3.8,0.8c-1.4,6.4,2.7,12.6,9.1,13.9L13.4,561.8z
		"/>
</g>
<g>
	<path id="_x23_999999_18_" class="st0" d="M10.2,593.9c7.9,3.5,17.2,0,20.7-7.9s0-17.2-7.9-20.7c-7.9-3.5-17.2,0-20.7,7.9
		C-1.2,581.1,2.3,590.4,10.2,593.9 M11.8,590.4c-5.9-2.6-8.6-9.6-6-15.5s9.6-8.6,15.5-6s8.6,9.6,6,15.5
		C24.7,590.3,17.8,593,11.8,590.4"/>
	<path id="foreground_18_" class="st1" d="M10.2,593.9c-7.9-3.5-11.5-12.8-7.9-20.7l3.6,1.6c-2.6,5.9,0,12.9,6,15.5L10.2,593.9z"/>
</g>
<g>
	<path id="_x23_999999_19_" class="st0" d="M7.4,625.5c7,5.1,16.8,3.5,21.9-3.5s3.5-16.8-3.5-21.9S9,596.6,3.9,603.6
		C-1.2,610.6,0.4,620.4,7.4,625.5 M9.7,622.3c-5.3-3.8-6.4-11.2-2.6-16.4s11.2-6.4,16.4-2.6c5.3,3.8,6.4,11.2,2.6,16.4
		S15,626.1,9.7,622.3"/>
	<path id="foreground_19_" class="st1" d="M7.4,625.5c-7-5.1-8.6-14.9-3.5-21.9l3.2,2.3c-3.8,5.3-2.7,12.6,2.6,16.4L7.4,625.5z"/>
</g>
<g>
	<path id="_x23_999999_20_" class="st0" d="M5,656.5c5.8,6.4,15.7,7,22.1,1.2c6.4-5.8,7-15.7,1.2-22.1s-15.7-7-22.1-1.2
		S-0.8,650,5,656.5 M7.9,653.8c-4.3-4.8-4-12.3,0.9-16.6c4.8-4.3,12.3-4,16.6,0.9c4.3,4.8,4,12.3-0.9,16.6S12.2,658.7,7.9,653.8"/>
	<path id="foreground_20_" class="st1" d="M5,656.5c-5.8-6.4-5.3-16.4,1.2-22.1l2.6,2.9c-4.8,4.3-5.2,11.8-0.9,16.6L5,656.5z"/>
</g>
<g>
	<path id="_x23_999999_21_" class="st0" d="M3,687c4.3,7.5,13.9,10.1,21.4,5.7c7.5-4.3,10.1-13.9,5.7-21.4
		c-4.3-7.5-13.9-10.1-21.4-5.7C1.3,669.9-1.3,679.5,3,687 M6.4,685c-3.2-5.6-1.3-12.8,4.3-16.1c5.6-3.2,12.8-1.3,16.1,4.3
		s1.3,12.8-4.3,16.1C16.9,692.6,9.7,690.6,6.4,685"/>
	<path id="foreground_21_" class="st1" d="M3,687c-4.3-7.5-1.8-17.1,5.7-21.4l2,3.4c-5.6,3.2-7.6,10.4-4.3,16.1L3,687z"/>
</g>
<g>
	<path id="_x23_999999_22_" class="st0" d="M1.7,717.1c2.7,8.2,11.5,12.7,19.8,10.1c8.2-2.7,12.7-11.5,10.1-19.8
		S20,694.7,11.8,697.4C3.5,700.1-1,708.9,1.7,717.1 M5.4,715.9c-2-6.2,1.4-12.8,7.6-14.8c6.2-2,12.8,1.4,14.8,7.6
		s-1.4,12.8-7.6,14.8C14.1,725.5,7.4,722.1,5.4,715.9"/>
	<path id="foreground_22_" class="st1" d="M1.7,717.1c-2.7-8.2,1.8-17.1,10.1-19.8l1.2,3.7c-6.2,2-9.6,8.6-7.6,14.8L1.7,717.1z"/>
</g>
<g>
	<path id="_x23_999999_23_" class="st0" d="M1,747.1c0.9,8.6,8.6,14.9,17.2,14s14.9-8.6,14-17.2c-0.9-8.6-8.6-14.9-17.2-14
		C6.4,730.8,0.1,738.5,1,747.1 M4.9,746.7c-0.7-6.5,4-12.2,10.5-12.9c6.5-0.7,12.2,4,12.9,10.5s-4,12.2-10.5,12.9
		S5.6,753.2,4.9,746.7"/>
	<path id="foreground_23_" class="st1" d="M1,747.1c-0.9-8.6,5.3-16.3,14-17.2l0.4,3.9c-6.5,0.7-11.1,6.5-10.5,12.9L1,747.1z"/>
</g>
<g>
	<path id="_x23_999999_24_" class="st0" d="M1,777c-0.9,8.6,5.3,16.3,14,17.2c8.6,0.9,16.3-5.3,17.2-14c0.9-8.6-5.3-16.3-14-17.2
		S1.9,768.4,1,777 M4.9,777.4c0.7-6.5,6.5-11.1,12.9-10.5s11.1,6.5,10.5,12.9s-6.5,11.1-12.9,10.5S4.2,783.9,4.9,777.4"/>
	<path id="foreground_24_" class="st1" d="M1,777c0.9-8.6,8.6-14.9,17.2-14l-0.4,3.9c-6.5-0.7-12.2,4-12.9,10.5L1,777z"/>
</g>
<g>
	<path id="_x23_999999_25_" class="st0" d="M1.7,807c-2.7,8.2,1.8,17.1,10.1,19.8c8.2,2.7,17.1-1.8,19.8-10.1s-1.8-17.1-10.1-19.8
		C13.2,794.2,4.4,798.7,1.7,807 M5.4,808.2c2-6.2,8.6-9.6,14.8-7.6c6.2,2,9.6,8.6,7.6,14.8S19.2,825,13,823
		C6.8,821,3.4,814.4,5.4,808.2"/>
	<path id="foreground_25_" class="st1" d="M1.7,807c2.7-8.2,11.5-12.7,19.8-10.1l-1.2,3.7c-6.2-2-12.8,1.4-14.8,7.6L1.7,807z"/>
</g>
<g>
	<path id="_x23_999999_26_" class="st0" d="M3,837.2c-4.3,7.5-1.8,17.1,5.7,21.4c7.5,4.3,17.1,1.8,21.4-5.7
		c4.3-7.5,1.8-17.1-5.7-21.4C17,827.1,7.4,829.7,3,837.2 M6.4,839.1c3.2-5.6,10.4-7.6,16.1-4.3c5.6,3.2,7.6,10.4,4.3,16.1
		s-10.4,7.6-16.1,4.3C5.1,851.9,3.2,844.7,6.4,839.1"/>
	<path id="foreground_26_" class="st1" d="M3,837.2c4.3-7.5,13.9-10.1,21.4-5.7l-2,3.4c-5.6-3.2-12.8-1.3-16.1,4.3L3,837.2z"/>
</g>
<g>
	<path id="_x23_999999_27_" class="st0" d="M5,867.7c-5.8,6.4-5.3,16.4,1.2,22.1c6.4,5.8,16.4,5.3,22.1-1.2s5.3-16.4-1.2-22.1
		S10.8,861.2,5,867.7 M7.9,870.3c4.3-4.8,11.8-5.2,16.6-0.9c4.8,4.3,5.2,11.8,0.9,16.6c-4.3,4.8-11.8,5.2-16.6,0.9
		S3.5,875.1,7.9,870.3"/>
	<path id="foreground_27_" class="st1" d="M5,867.7c5.8-6.4,15.7-7,22.1-1.2l-2.6,2.9c-4.8-4.3-12.3-4-16.6,0.9L5,867.7z"/>
</g>
<g>
	<path id="_x23_999999_28_" class="st0" d="M7.4,898.7c-7,5.1-8.6,14.9-3.5,21.9s14.9,8.6,21.9,3.5s8.6-14.9,3.5-21.9
		S14.4,893.6,7.4,898.7 M9.7,901.8c5.3-3.8,12.6-2.7,16.4,2.6s2.7,12.6-2.6,16.4c-5.3,3.8-12.6,2.7-16.4-2.6
		C3.3,913,4.4,905.6,9.7,901.8"/>
	<path id="foreground_28_" class="st1" d="M7.4,898.7c7-5.1,16.8-3.5,21.9,3.5l-3.2,2.3c-3.8-5.3-11.2-6.4-16.4-2.6L7.4,898.7z"/>
</g>
<g>
	<path id="_x23_999999_29_" class="st0" d="M10.2,930.2c-7.9,3.5-11.5,12.8-7.9,20.7c3.5,7.9,12.8,11.5,20.7,7.9
		c7.9-3.5,11.5-12.8,7.9-20.7C27.4,930.2,18.1,926.7,10.2,930.2 M11.8,933.8c5.9-2.6,12.9,0,15.5,6s0,12.9-6,15.5s-12.9,0-15.5-6
		S5.9,936.4,11.8,933.8"/>
	<path id="foreground_29_" class="st1" d="M10.2,930.2c7.9-3.5,17.2,0,20.7,7.9l-3.6,1.6c-2.6-5.9-9.6-8.6-15.5-6L10.2,930.2z"/>
</g>
</svg>
