<?xml version="1.0" encoding="utf-8"?>
<!-- Generator: Adobe Illustrator 19.1.0, SVG Export Plug-In . SVG Version: 6.00 Build 0)  -->
<svg version="1.1" id="Layer_1" xmlns="http://www.w3.org/2000/svg" xmlns:xlink="http://www.w3.org/1999/xlink" x="0px" y="0px"
	 width="52px" height="1500px" viewBox="0 0 52 1500" style="enable-background:new 0 0 52 1500;" xml:space="preserve">
<style type="text/css">
	.st0{opacity:0.25;fill:#989798;enable-background:new    ;}
	.st1{fill:#989798;}
</style>
<g>
	<path id="_x23_999999_1_" class="st0" d="M26,0C12.1,0,1,11.1,1,25s11.1,25,25,25s25-11.1,25-25S39.9,0,26,0 M26,6.2
		c10.4,0,18.8,8.4,18.8,18.8S36.4,43.8,26,43.8S7.2,35.4,7.2,25S15.6,6.2,26,6.2"/>
	<path id="foreground_1_" class="st1" d="M26,0c13.9,0,25,11.1,25,25h-6.2c0-10.4-8.4-18.8-18.8-18.8C26,6.2,26,0,26,0z"/>
</g>
<g>
	<path id="_x23_999999_2_" class="st0" d="M26,50C12.1,50,1,61.2,1,75s11.1,25,25,25s25-11.1,25-25S39.9,50,26,50 M26,56.2
		c10.4,0,18.8,8.4,18.8,18.8S36.4,93.8,26,93.8S7.2,85.4,7.2,75S15.6,56.2,26,56.2"/>
	<path id="foreground_2_" class="st1" d="M26,50c13.9,0,25,11.1,25,25h-6.2c0-10.4-8.4-18.8-18.8-18.8C26,56.2,26,50,26,50z"/>
</g>
<g>
	<path id="_x23_999999_3_" class="st0" d="M31.2,100.6c-13.6-2.9-26.8,5.7-29.7,19.3s5.7,26.8,19.3,29.7s26.8-5.7,29.7-19.3
		C53.3,116.7,44.7,103.4,31.2,100.6 M29.9,106.6c10.1,2.2,16.6,12.2,14.5,22.3c-2.2,10.1-12.2,16.6-22.3,14.5
		C12,141.2,5.5,131.2,7.6,121.1S19.8,104.5,29.9,106.6"/>
	<path id="foreground_3_" class="st1" d="M31.2,100.6c13.6,2.9,22.1,16.1,19.3,29.7l-6.1-1.3c2.2-10.1-4.3-20.1-14.5-22.3
		C29.9,106.6,31.2,100.6,31.2,100.6z"/>
</g>
<g>
	<path id="_x23_999999_4_" class="st0" d="M36.2,152.2c-12.7-5.6-27.4,0-33,12.7s0,27.4,12.7,33c12.7,5.6,27.4,0,33-12.7
		S48.8,157.8,36.2,152.2 M33.6,157.9c9.5,4.2,13.7,15.4,9.5,24.8s-15.4,13.7-24.8,9.5s-13.7-15.4-9.5-24.8
		C13,157.9,24.2,153.6,33.6,157.9"/>
	<path id="foreground_4_" class="st1" d="M36.2,152.2c12.7,5.6,18.3,20.4,12.7,33l-5.7-2.5c4.2-9.5-0.1-20.6-9.5-24.8
		C33.6,157.9,36.2,152.2,36.2,152.2z"/>
</g>
<g>
	<path id="_x23_999999_5_" class="st0" d="M40.7,204.8c-11.2-8.1-26.8-5.7-34.9,5.5s-5.7,26.8,5.5,34.9c11.2,8.1,26.8,5.7,34.9-5.5
		S51.9,212.9,40.7,204.8 M37,209.8c8.4,6.1,10.2,17.9,4.2,26.2s-17.9,10.2-26.2,4.2S4.7,222.4,10.8,214S28.7,203.7,37,209.8"/>
	<path id="foreground_5_" class="st1" d="M40.7,204.8c11.2,8.1,13.7,23.7,5.5,34.9l-5-3.7c6.1-8.4,4.2-20.2-4.2-26.2
		C37,209.8,40.7,204.8,40.7,204.8z"/>
</g>
<g>
	<path id="_x23_999999_6_" class="st0" d="M44.6,258.3c-9.3-10.3-25-11.1-35.3-1.9s-11.1,25-1.9,35.3s25,11.1,35.3,1.9
		C53,284.3,53.8,268.6,44.6,258.3 M40,262.5c6.9,7.7,6.3,19.6-1.4,26.5S19,295.3,12,287.6s-6.3-19.6,1.4-26.5S33,254.8,40,262.5"/>
	<path id="foreground_6_" class="st1" d="M44.6,258.3c9.3,10.3,8.4,26-1.9,35.3l-4.2-4.6c7.7-6.9,8.3-18.8,1.4-26.5
		C40,262.5,44.6,258.3,44.6,258.3z"/>
</g>
<g>
	<path id="_x23_999999_7_" class="st0" d="M47.7,312.5c-6.9-12-22.2-16.1-34.2-9.2c-12,6.9-16.1,22.2-9.2,34.2
		c6.9,12,22.2,16.1,34.2,9.2C50.5,339.8,54.6,324.5,47.7,312.5 M42.3,315.6c5.2,9,2.1,20.5-6.9,25.7c-9,5.2-20.5,2.1-25.7-6.9
		c-5.2-9-2.1-20.5,6.9-25.7C25.6,303.6,37.1,306.7,42.3,315.6"/>
	<path id="foreground_7_" class="st1" d="M47.7,312.5c6.9,12,2.8,27.2-9.2,34.2l-3.1-5.4c9-5.2,12.1-16.7,6.9-25.7
		C42.3,315.6,47.7,312.5,47.7,312.5z"/>
</g>
<g>
	<path id="_x23_999999_8_" class="st0" d="M49.8,367.3c-4.3-13.2-18.3-20.3-31.5-16.1s-20.3,18.3-16.1,31.5
		c4.3,13.2,18.3,20.3,31.5,16.1S54.1,380.5,49.8,367.3 M43.9,369.2c3.2,9.8-2.2,20.5-12.1,23.7s-20.5-2.2-23.7-12.1
		s2.2-20.5,12.1-23.7S40.7,359.4,43.9,369.2"/>
	<path id="foreground_8_" class="st1" d="M49.8,367.3c4.3,13.2-2.9,27.2-16.1,31.5l-1.9-5.9c9.8-3.2,15.3-13.8,12.1-23.7
		C43.9,369.2,49.8,367.3,49.8,367.3z"/>
</g>
<g>
	<path id="_x23_999999_9_" class="st0" d="M50.9,422.4c-1.4-13.8-13.7-23.7-27.5-22.2s-23.7,13.7-22.2,27.5s13.7,23.7,27.5,22.2
		S52.3,436.2,50.9,422.4 M44.7,423.1c1.1,10.3-6.4,19.6-16.7,20.7c-10.3,1.1-19.6-6.4-20.7-16.7c-1.1-10.3,6.4-19.6,16.7-20.7
		C34.3,405.3,43.6,412.8,44.7,423.1"/>
	<path id="foreground_9_" class="st1" d="M50.9,422.4c1.4,13.8-8.5,26-22.2,27.5l-0.6-6.2c10.3-1.1,17.8-10.4,16.7-20.7
		C44.7,423.1,50.9,422.4,50.9,422.4z"/>
</g>
<g>
	<path id="_x23_999999_10_" class="st0" d="M50.9,477.7c1.4-13.8-8.5-26-22.2-27.5s-26,8.5-27.5,22.2c-1.4,13.8,8.5,26,22.2,27.5
		C37.2,501.4,49.4,491.5,50.9,477.7 M44.7,477c-1.1,10.3-10.4,17.8-20.7,16.7S6.2,483.4,7.3,473.1c1.1-10.3,10.4-17.8,20.7-16.7
		C38.3,457.5,45.8,466.7,44.7,477"/>
	<path id="foreground_10_" class="st1" d="M50.9,477.7c-1.4,13.8-13.7,23.7-27.5,22.2l0.6-6.2c10.3,1.1,19.6-6.4,20.7-16.7
		C44.7,477,50.9,477.7,50.9,477.7z"/>
</g>
<g>
	<path id="_x23_999999_11_" class="st0" d="M49.8,532.8c4.3-13.2-2.9-27.2-16.1-31.5s-27.2,2.9-31.5,16.1s2.9,27.2,16.1,31.5
		S45.5,546,49.8,532.8 M43.9,530.9c-3.2,9.8-13.8,15.3-23.7,12.1S4.9,529.1,8.1,519.3S22,504,31.8,507.2S47.1,521,43.9,530.9"/>
	<path id="foreground_11_" class="st1" d="M49.8,532.8c-4.3,13.2-18.3,20.3-31.5,16.1l1.9-5.9c9.8,3.2,20.5-2.2,23.7-12.1
		C43.9,530.9,49.8,532.8,49.8,532.8z"/>
</g>
<g>
	<path id="_x23_999999_12_" class="st0" d="M47.7,587.6c6.9-12,2.8-27.2-9.2-34.2s-27.2-2.8-34.2,9.2c-6.9,12-2.8,27.2,9.2,34.2
		S40.7,599.6,47.7,587.6 M42.3,584.5c-5.2,9-16.7,12.1-25.7,6.9s-12.1-16.7-6.9-25.7c5.2-9,16.7-12.1,25.7-6.9
		C44.4,564,47.4,575.5,42.3,584.5"/>
	<path id="foreground_12_" class="st1" d="M47.7,587.6c-6.9,12-22.2,16.1-34.2,9.2l3.1-5.4c9,5.2,20.5,2.1,25.7-6.9
		C42.3,584.5,47.7,587.6,47.7,587.6z"/>
</g>
<g>
	<path id="_x23_999999_13_" class="st0" d="M44.6,641.8c9.3-10.3,8.4-26-1.9-35.3c-10.3-9.3-26-8.4-35.3,1.9s-8.4,26,1.9,35.3
		C19.6,652.9,35.3,652.1,44.6,641.8 M40,637.7c-6.9,7.7-18.8,8.3-26.5,1.4s-8.3-18.8-1.4-26.5s18.8-8.3,26.5-1.4S46.9,630,40,637.7"
		/>
	<path id="foreground_13_" class="st1" d="M44.6,641.8c-9.3,10.3-25,11.1-35.3,1.9l4.2-4.6c7.7,6.9,19.6,6.3,26.5-1.4
		C40,637.7,44.6,641.8,44.6,641.8z"/>
</g>
<g>
	<path id="_x23_999999_14_" class="st0" d="M40.7,695.3c11.2-8.1,13.7-23.7,5.5-34.9s-23.7-13.7-34.9-5.5s-13.7,23.7-5.5,34.9
		C13.9,701,29.5,703.5,40.7,695.3 M37,690.3c-8.4,6.1-20.2,4.2-26.2-4.2c-6.1-8.4-4.2-20.2,4.2-26.2s20.2-4.2,26.2,4.2
		C47.3,672.4,45.4,684.2,37,690.3"/>
	<path id="foreground_14_" class="st1" d="M40.7,695.3c-11.2,8.1-26.8,5.7-34.9-5.5l5-3.7c6.1,8.4,17.9,10.2,26.2,4.2
		C37,690.3,40.7,695.3,40.7,695.3z"/>
</g>
<g>
	<path id="_x23_999999_15_" class="st0" d="M36.2,747.9c12.7-5.6,18.3-20.4,12.7-33c-5.6-12.7-20.4-18.3-33-12.7
		c-12.7,5.6-18.3,20.4-12.7,33S23.5,753.6,36.2,747.9 M33.6,742.3c-9.5,4.2-20.6-0.1-24.8-9.5c-4.2-9.5,0.1-20.6,9.5-24.8
		s20.6,0.1,24.8,9.5S43.1,738,33.6,742.3"/>
	<path id="foreground_15_" class="st1" d="M36.2,747.9c-12.7,5.6-27.4,0-33-12.7l5.7-2.5c4.2,9.5,15.4,13.7,24.8,9.5
		C33.6,742.3,36.2,747.9,36.2,747.9z"/>
</g>
<g>
	<path id="_x23_999999_16_" class="st0" d="M31.2,799.6c13.6-2.9,22.1-16.1,19.3-29.7c-2.9-13.6-16.1-22.1-29.7-19.3
		s-22.1,16.1-19.3,29.7C4.4,793.8,17.6,802.4,31.2,799.6 M29.9,793.5c-10.1,2.2-20.1-4.3-22.3-14.5s4.3-20.1,14.5-22.3
		s20.1,4.3,22.3,14.5C46.5,781.3,40,791.3,29.9,793.5"/>
	<path id="foreground_16_" class="st1" d="M31.2,799.6c-13.6,2.9-26.8-5.7-29.7-19.3l6.1-1.3c2.2,10.1,12.2,16.6,22.3,14.5
		C29.9,793.5,31.2,799.6,31.2,799.6z"/>
</g>
<g>
	<path id="_x23_999999_17_" class="st0" d="M26,850.1c13.9,0,25-11.1,25-25s-11.1-25-25-25s-25,11.1-25,25S12.1,850.1,26,850.1
		 M26,843.9c-10.4,0-18.8-8.4-18.8-18.8s8.4-18.8,18.8-18.8s18.8,8.4,18.8,18.8S36.4,843.9,26,843.9"/>
	<path id="foreground_17_" class="st1" d="M26,850.1c-13.9,0-25-11.1-25-25h6.2c0,10.4,8.4,18.8,18.8,18.8
		C26,843.9,26,850.1,26,850.1z"/>
</g>
<g>
	<path id="_x23_999999_18_" class="st0" d="M20.8,899.6c13.6,2.9,26.8-5.7,29.7-19.3c2.9-13.6-5.7-26.8-19.3-29.7
		s-26.8,5.7-29.7,19.3C-1.3,883.5,7.3,896.7,20.8,899.6 M22.1,893.5C12,891.3,5.5,881.3,7.6,871.2s12.2-16.6,22.3-14.5
		c10.1,2.2,16.6,12.2,14.5,22.3C42.2,889.1,32.2,895.6,22.1,893.5"/>
	<path id="foreground_18_" class="st1" d="M20.8,899.6c-13.6-2.9-22.1-16.1-19.3-29.7l6.1,1.3c-2.2,10.1,4.3,20.1,14.5,22.3
		C22.1,893.5,20.8,899.6,20.8,899.6z"/>
</g>
<g>
	<path id="_x23_999999_19_" class="st0" d="M15.8,948c12.7,5.6,27.4,0,33-12.7c5.6-12.7,0-27.4-12.7-33s-27.4,0-33,12.7
		S3.2,942.3,15.8,948 M18.4,942.3c-9.5-4.2-13.7-15.4-9.5-24.8c4.2-9.5,15.4-13.7,24.8-9.5s13.7,15.4,9.5,24.8
		S27.8,946.5,18.4,942.3"/>
	<path id="foreground_19_" class="st1" d="M15.8,948c-12.7-5.6-18.3-20.4-12.7-33l5.7,2.5c-4.2,9.5,0.1,20.6,9.5,24.8
		C18.4,942.3,15.8,948,15.8,948z"/>
</g>
<g>
	<path id="_x23_999999_20_" class="st0" d="M11.3,995.4c11.2,8.1,26.8,5.7,34.9-5.5s5.7-26.8-5.5-34.9s-26.8-5.7-34.9,5.5
		C-2.4,971.6,0.1,987.2,11.3,995.4 M15,990.3c-8.4-6.1-10.2-17.9-4.2-26.2c6.1-8.4,17.9-10.2,26.2-4.2c8.4,6.1,10.2,17.9,4.2,26.2
		C35.1,994.5,23.3,996.4,15,990.3"/>
	<path id="foreground_20_" class="st1" d="M11.3,995.4c-11.2-8.1-13.7-23.7-5.5-34.9l5,3.7c-6.1,8.4-4.2,20.2,4.2,26.2
		C15,990.3,11.3,995.4,11.3,995.4z"/>
</g>
<g>
	<path id="_x23_999999_21_" class="st0" d="M7.4,1041.9c9.3,10.3,25,11.1,35.3,1.9c10.3-9.3,11.1-25,1.9-35.3
		c-9.3-10.3-25-11.1-35.3-1.9C-1,1015.8-1.8,1031.6,7.4,1041.9 M12,1037.7c-6.9-7.7-6.3-19.6,1.4-26.5s19.6-6.3,26.5,1.4
		s6.3,19.6-1.4,26.5C30.9,1046,19,1045.4,12,1037.7"/>
	<path id="foreground_21_" class="st1" d="M7.4,1041.9c-9.3-10.3-8.4-26,1.9-35.3l4.2,4.6c-7.7,6.9-8.3,18.8-1.4,26.5
		C12,1037.7,7.4,1041.9,7.4,1041.9z"/>
</g>
<g>
	<path id="_x23_999999_22_" class="st0" d="M4.3,1087.6c6.9,12,22.2,16.1,34.2,9.2s16.1-22.2,9.2-34.2c-6.9-12-22.2-16.1-34.2-9.2
		S-2.6,1075.6,4.3,1087.6 M9.7,1084.5c-5.2-9-2.1-20.5,6.9-25.7s20.5-2.1,25.7,6.9s2.1,20.5-6.9,25.7S14.9,1093.5,9.7,1084.5"/>
	<path id="foreground_22_" class="st1" d="M4.3,1087.6c-6.9-12-2.8-27.2,9.2-34.2l3.1,5.4c-9,5.2-12.1,16.7-6.9,25.7
		C9.7,1084.5,4.3,1087.6,4.3,1087.6z"/>
</g>
<g>
	<path id="_x23_999999_23_" class="st0" d="M2.2,1132.9c4.3,13.2,18.3,20.3,31.5,16.1c13.2-4.3,20.3-18.3,16.1-31.5
		c-4.3-13.2-18.3-20.3-31.5-16.1S-2.1,1119.7,2.2,1132.9 M8.1,1131c-3.2-9.8,2.2-20.5,12.1-23.7c9.8-3.2,20.5,2.2,23.7,12.1
		c3.2,9.8-2.2,20.5-12.1,23.7C22,1146.2,11.3,1140.8,8.1,1131"/>
	<path id="foreground_23_" class="st1" d="M2.2,1132.9c-4.3-13.2,2.9-27.2,16.1-31.5l1.9,5.9c-9.8,3.2-15.3,13.8-12.1,23.7
		C8.1,1131,2.2,1132.9,2.2,1132.9z"/>
</g>
<g>
	<path id="_x23_999999_24_" class="st0" d="M1.1,1177.8c1.4,13.8,13.7,23.7,27.5,22.2c13.8-1.4,23.7-13.7,22.2-27.5
		s-13.7-23.7-27.5-22.2C9.6,1151.7-0.3,1164,1.1,1177.8 M7.3,1177.1c-1.1-10.3,6.4-19.6,16.7-20.7c10.3-1.1,19.6,6.4,20.7,16.7
		c1.1,10.3-6.4,19.6-16.7,20.7S8.4,1187.4,7.3,1177.1"/>
	<path id="foreground_24_" class="st1" d="M1.1,1177.8c-1.4-13.8,8.5-26,22.2-27.5l0.6,6.2c-10.3,1.1-17.8,10.4-16.7,20.7
		C7.3,1177.1,1.1,1177.8,1.1,1177.8z"/>
</g>
<g>
	<path id="_x23_999999_25_" class="st0" d="M1.1,1222.5c-1.4,13.8,8.5,26,22.2,27.5c13.8,1.4,26-8.5,27.5-22.2s-8.5-26-22.2-27.5
		C14.8,1198.8,2.6,1208.8,1.1,1222.5 M7.3,1223.2c1.1-10.3,10.4-17.8,20.7-16.7s17.8,10.4,16.7,20.7s-10.4,17.8-20.7,16.7
		S6.2,1233.5,7.3,1223.2"/>
	<path id="foreground_25_" class="st1" d="M1.1,1222.5c1.4-13.8,13.7-23.7,27.5-22.2l-0.6,6.2c-10.3-1.1-19.6,6.4-20.7,16.7
		C7.3,1223.2,1.1,1222.5,1.1,1222.5z"/>
</g>
<g>
	<path id="_x23_999999_26_" class="st0" d="M2.2,1267.4c-4.3,13.2,2.9,27.2,16.1,31.5s27.2-2.9,31.5-16.1
		c4.3-13.2-2.9-27.2-16.1-31.5C20.5,1247.1,6.5,1254.3,2.2,1267.4 M8.1,1269.4c3.2-9.8,13.8-15.3,23.7-12.1
		c9.8,3.2,15.3,13.8,12.1,23.7c-3.2,9.8-13.8,15.3-23.7,12.1C10.3,1289.8,4.9,1279.2,8.1,1269.4"/>
	<path id="foreground_26_" class="st1" d="M2.2,1267.4c4.3-13.2,18.3-20.3,31.5-16.1l-1.9,5.9c-9.8-3.2-20.5,2.2-23.7,12.1
		C8.1,1269.4,2.2,1267.4,2.2,1267.4z"/>
</g>
<g>
	<path id="_x23_999999_27_" class="st0" d="M4.3,1312.7c-6.9,12-2.8,27.2,9.2,34.2s27.2,2.8,34.2-9.2c6.9-12,2.8-27.2-9.2-34.2
		S11.3,1300.7,4.3,1312.7 M9.7,1315.8c5.2-9,16.7-12.1,25.7-6.9s12.1,16.7,6.9,25.7s-16.7,12.1-25.7,6.9
		C7.6,1336.3,4.6,1324.7,9.7,1315.8"/>
	<path id="foreground_27_" class="st1" d="M4.3,1312.7c6.9-12,22.2-16.1,34.2-9.2l-3.1,5.4c-9-5.2-20.5-2.1-25.7,6.9
		C9.7,1315.8,4.3,1312.7,4.3,1312.7z"/>
</g>
<g>
	<path id="_x23_999999_28_" class="st0" d="M7.4,1358.4c-9.3,10.3-8.4,26,1.9,35.3s26,8.4,35.3-1.9s8.4-26-1.9-35.3
		C32.4,1347.3,16.7,1348.2,7.4,1358.4 M12,1362.6c6.9-7.7,18.8-8.3,26.5-1.4c7.7,6.9,8.3,18.8,1.4,26.5s-18.8,8.3-26.5,1.4
		C5.7,1382.2,5.1,1370.3,12,1362.6"/>
	<path id="foreground_28_" class="st1" d="M7.4,1358.4c9.3-10.3,25-11.1,35.3-1.9l-4.2,4.6c-7.7-6.9-19.6-6.3-26.5,1.4
		C12,1362.6,7.4,1358.4,7.4,1358.4z"/>
</g>
<g>
	<path id="_x23_999999_29_" class="st0" d="M11.3,1405c-11.2,8.1-13.7,23.7-5.5,34.9c8.1,11.2,23.7,13.7,34.9,5.5
		c11.2-8.1,13.7-23.7,5.5-34.9C38.1,1399.3,22.5,1396.8,11.3,1405 M15,1410c8.4-6.1,20.2-4.2,26.2,4.2c6.1,8.4,4.2,20.2-4.2,26.2
		c-8.4,6.1-20.2,4.2-26.2-4.2C4.7,1427.9,6.6,1416.1,15,1410"/>
	<path id="foreground_29_" class="st1" d="M11.3,1405c11.2-8.1,26.8-5.7,34.9,5.5l-5,3.7c-6.1-8.4-17.9-10.2-26.2-4.2
		C15,1410,11.3,1405,11.3,1405z"/>
</g>
<g>
	<path id="_x23_999999_30_" class="st0" d="M15.8,1452.4c-12.7,5.6-18.3,20.4-12.7,33c5.6,12.7,20.4,18.3,33,12.7s18.3-20.4,12.7-33
		C43.2,1452.4,28.5,1446.7,15.8,1452.4 M18.4,1458c9.5-4.2,20.6,0.1,24.8,9.5c4.2,9.5-0.1,20.6-9.5,24.8s-20.6-0.1-24.8-9.5
		C4.6,1473.4,8.9,1462.2,18.4,1458"/>
	<path id="foreground_30_" class="st1" d="M15.8,1452.4c12.7-5.6,27.4,0,33,12.7l-5.7,2.5c-4.2-9.5-15.4-13.7-24.8-9.5
		C18.4,1458,15.8,1452.4,15.8,1452.4z"/>
</g>
</svg>
