<?xml version="1.0" encoding="utf-8"?>
<!-- Generator: Adobe Illustrator 19.1.0, SVG Export Plug-In . SVG Version: 6.00 Build 0)  -->
<svg version="1.1" id="Layer_1" xmlns="http://www.w3.org/2000/svg" xmlns:xlink="http://www.w3.org/1999/xlink" x="0px" y="0px"
	 viewBox="0 0 33.2 978" style="enable-background:new 0 0 33.2 978;" xml:space="preserve">
<style type="text/css">
	.st0{opacity:0.25;fill:#989898;enable-background:new    ;}
	.st1{fill:#989898;}
</style>
<g>
	<path id="_x23_999999_1_" class="st0" d="M16.6,16C7.9,16,0.9,23,0.9,31.7s7,15.7,15.7,15.7s15.7-7,15.7-15.7S25.3,16,16.6,16
		 M16.6,19.9c6.5,0,11.8,5.3,11.8,11.8s-5.3,11.8-11.8,11.8S4.8,38.2,4.8,31.7S10.1,19.9,16.6,19.9"/>
	<path id="foreground_1_" class="st1" d="M16.6,16c8.7,0,15.7,7,15.7,15.7h-3.9c0-6.5-5.3-11.8-11.8-11.8V16z"/>
</g>
<g>
	<path id="_x23_999999_2_" class="st0" d="M19.9,49.5c-8.5-1.8-16.8,3.6-18.6,12.1s3.6,16.8,12.1,18.6c8.5,1.8,16.8-3.6,18.6-12.1
		S28.3,51.3,19.9,49.5 M19.1,53.4c6.4,1.4,10.4,7.6,9.1,13.9s-7.6,10.4-13.9,9.1S3.8,68.8,5.1,62.4S12.7,52,19.1,53.4"/>
	<path id="foreground_2_" class="st1" d="M19.9,49.5c8.5,1.8,13.9,10.1,12.1,18.6l-3.8-0.8c1.4-6.4-2.7-12.6-9.1-13.9L19.9,49.5z"/>
</g>
<g>
	<path id="_x23_999999_3_" class="st0" d="M23,83.7c-7.9-3.5-17.2,0-20.7,7.9s0,17.2,7.9,20.7c7.9,3.5,17.2,0,20.7-7.9
		S30.9,87.2,23,83.7 M21.4,87.3c5.9,2.6,8.6,9.6,6,15.5c-2.6,5.9-9.6,8.6-15.5,6s-8.6-9.6-6-15.5C8.5,87.3,15.5,84.6,21.4,87.3"/>
	<path id="foreground_3_" class="st1" d="M23,83.7c7.9,3.5,11.5,12.8,7.9,20.7l-3.6-1.6c2.6-5.9,0-12.9-6-15.5L23,83.7z"/>
</g>
<g>
	<path id="_x23_999999_4_" class="st0" d="M25.8,118.5c-7-5.1-16.8-3.5-21.9,3.5s-3.5,16.8,3.5,21.9s16.8,3.5,21.9-3.5
		C34.4,133.4,32.8,123.6,25.8,118.5 M23.5,121.7c5.3,3.8,6.4,11.2,2.6,16.4s-11.2,6.4-16.4,2.6s-6.4-11.2-2.6-16.4
		S18.3,117.9,23.5,121.7"/>
	<path id="foreground_4_" class="st1" d="M25.8,118.5c7,5.1,8.6,14.9,3.5,21.9l-3.2-2.3c3.8-5.3,2.7-12.6-2.6-16.4L25.8,118.5z"/>
</g>
<g>
	<path id="_x23_999999_5_" class="st0" d="M28.3,153.9c-5.8-6.4-15.7-7-22.1-1.2c-6.4,5.8-7,15.7-1.2,22.1s15.7,7,22.1,1.2
		S34.1,160.3,28.3,153.9 M25.4,156.5c4.3,4.8,4,12.3-0.9,16.6s-12.3,4-16.6-0.9s-4-12.3,0.9-16.6C13.6,151.3,21,151.7,25.4,156.5"/>
	<path id="foreground_5_" class="st1" d="M28.3,153.9c5.8,6.4,5.3,16.4-1.2,22.1l-2.6-2.9c4.8-4.3,5.2-11.8,0.9-16.6L28.3,153.9z"/>
</g>
<g>
	<path id="_x23_999999_6_" class="st0" d="M30.2,189.7c-4.3-7.5-13.9-10.1-21.4-5.7S-1.3,197.9,3,205.4s13.9,10.1,21.4,5.7
		S34.5,197.2,30.2,189.7 M26.8,191.7c3.2,5.6,1.3,12.8-4.3,16.1c-5.6,3.2-12.8,1.3-16.1-4.3c-3.2-5.6-1.3-12.8,4.3-16.1
		C16.4,184.1,23.5,186,26.8,191.7"/>
	<path id="foreground_6_" class="st1" d="M30.2,189.7c4.3,7.5,1.8,17.1-5.7,21.4l-2-3.4c5.6-3.2,7.6-10.4,4.3-16.1L30.2,189.7z"/>
</g>
<g>
	<path id="_x23_999999_7_" class="st0" d="M31.5,225.9c-2.7-8.2-11.5-12.7-19.8-10.1C3.5,218.5-1,227.3,1.7,235.6
		c2.7,8.2,11.5,12.7,19.8,10.1C29.7,243,34.2,234.1,31.5,225.9 M27.8,227.1c2,6.2-1.4,12.8-7.6,14.8c-6.2,2-12.8-1.4-14.8-7.6
		c-2-6.2,1.4-12.8,7.6-14.8S25.8,220.9,27.8,227.1"/>
	<path id="foreground_7_" class="st1" d="M31.5,225.9c2.7,8.2-1.8,17.1-10.1,19.8l-1.2-3.7c6.2-2,9.6-8.6,7.6-14.8L31.5,225.9z"/>
</g>
<g>
	<path id="_x23_999999_8_" class="st0" d="M32.2,262.3c-0.9-8.6-8.6-14.9-17.2-14s-14.9,8.6-14,17.2c0.9,8.6,8.6,14.9,17.2,14
		C26.9,278.6,33.1,270.9,32.2,262.3 M28.3,262.7c0.7,6.5-4,12.2-10.5,12.9c-6.5,0.7-12.2-4-12.9-10.5c-0.7-6.5,4-12.2,10.5-12.9
		S27.6,256.2,28.3,262.7"/>
	<path id="foreground_8_" class="st1" d="M32.2,262.3c0.9,8.6-5.3,16.3-14,17.2l-0.4-3.9c6.5-0.7,11.1-6.5,10.5-12.9L32.2,262.3z"/>
</g>
<g>
	<path id="_x23_999999_9_" class="st0" d="M32.2,298.7c0.9-8.6-5.3-16.3-14-17.2c-8.6-0.9-16.3,5.3-17.2,14
		c-0.9,8.6,5.3,16.3,14,17.2C23.6,313.6,31.3,307.3,32.2,298.7 M28.3,298.3c-0.7,6.5-6.5,11.1-12.9,10.5
		c-6.5-0.7-11.1-6.5-10.5-12.9c0.7-6.5,6.5-11.1,12.9-10.5C24.3,286,29,291.8,28.3,298.3"/>
	<path id="foreground_9_" class="st1" d="M32.2,298.7c-0.9,8.6-8.6,14.9-17.2,14l0.4-3.9c6.5,0.7,12.2-4,12.9-10.5L32.2,298.7z"/>
</g>
<g>
	<path id="_x23_999999_10_" class="st0" d="M31.5,335.1c2.7-8.2-1.8-17.1-10.1-19.8c-8.2-2.7-17.1,1.8-19.8,10.1
		c-2.7,8.2,1.8,17.1,10.1,19.8C20,347.8,28.8,343.3,31.5,335.1 M27.8,333.9c-2,6.2-8.6,9.6-14.8,7.6s-9.6-8.6-7.6-14.8
		s8.6-9.6,14.8-7.6S29.8,327.7,27.8,333.9"/>
	<path id="foreground_10_" class="st1" d="M31.5,335.1c-2.7,8.2-11.5,12.7-19.8,10.1l1.2-3.7c6.2,2,12.8-1.4,14.8-7.6L31.5,335.1z"
		/>
</g>
<g>
	<path id="_x23_999999_11_" class="st0" d="M30.2,371.2c4.3-7.5,1.8-17.1-5.7-21.4S7.4,348.1,3,355.6S1.3,372.7,8.8,377
		S25.9,378.7,30.2,371.2 M26.8,369.3c-3.2,5.6-10.4,7.6-16.1,4.3s-7.6-10.4-4.3-16.1s10.4-7.6,16.1-4.3S30,363.7,26.8,369.3"/>
	<path id="foreground_11_" class="st1" d="M30.2,371.2c-4.3,7.5-13.9,10.1-21.4,5.7l2-3.4c5.6,3.2,12.8,1.3,16.1-4.3L30.2,371.2z"/>
</g>
<g>
	<path id="_x23_999999_12_" class="st0" d="M28.3,407.1c5.8-6.4,5.3-16.4-1.2-22.1c-6.4-5.8-16.4-5.3-22.1,1.2s-5.3,16.4,1.2,22.1
		C12.6,414,22.5,413.5,28.3,407.1 M25.4,404.5c-4.3,4.8-11.8,5.2-16.6,0.9c-4.8-4.3-5.2-11.8-0.9-16.6s11.8-5.2,16.6-0.9
		C29.3,392.2,29.7,399.6,25.4,404.5"/>
	<path id="foreground_12_" class="st1" d="M28.3,407.1c-5.8,6.4-15.7,7-22.1,1.2l2.6-2.9c4.8,4.3,12.3,4,16.6-0.9L28.3,407.1z"/>
</g>
<g>
	<path id="_x23_999999_13_" class="st0" d="M25.8,442.4c7-5.1,8.6-14.9,3.5-21.9s-14.9-8.6-21.9-3.5S-1.2,432,3.9,439
		C9,446,18.8,447.5,25.8,442.4 M23.5,439.3c-5.3,3.8-12.6,2.7-16.4-2.6c-3.8-5.3-2.7-12.6,2.6-16.4c5.3-3.8,12.6-2.7,16.4,2.6
		S28.8,435.5,23.5,439.3"/>
	<path id="foreground_13_" class="st1" d="M25.8,442.4c-7,5.1-16.8,3.5-21.9-3.5l3.2-2.3c3.8,5.3,11.2,6.4,16.4,2.6L25.8,442.4z"/>
</g>
<g>
	<path id="_x23_999999_14_" class="st0" d="M23,477.2c7.9-3.5,11.5-12.8,7.9-20.7c-3.5-7.9-12.8-11.5-20.7-7.9
		c-7.9,3.5-11.5,12.8-7.9,20.7C5.8,477.2,15.1,480.8,23,477.2 M21.4,473.7c-5.9,2.6-12.9,0-15.5-6c-2.6-5.9,0-12.9,6-15.5
		s12.9,0,15.5,6S27.3,471,21.4,473.7"/>
	<path id="foreground_14_" class="st1" d="M23,477.2c-7.9,3.5-17.2,0-20.7-7.9l3.6-1.6c2.6,5.9,9.6,8.6,15.5,6L23,477.2z"/>
</g>
<g>
	<path id="_x23_999999_15_" class="st0" d="M19.9,511.4c8.5-1.8,13.9-10.1,12.1-18.6c-1.8-8.5-10.1-13.9-18.6-12.1
		s-13.9,10.1-12.1,18.6C3.1,507.8,11.4,513.2,19.9,511.4 M19.1,507.6c-6.4,1.4-12.6-2.7-13.9-9.1s2.7-12.6,9.1-13.9
		s12.6,2.7,13.9,9.1C29.5,500,25.4,506.3,19.1,507.6"/>
	<path id="foreground_15_" class="st1" d="M19.9,511.4c-8.5,1.8-16.8-3.6-18.6-12.1l3.8-0.8c1.4,6.4,7.6,10.4,13.9,9.1L19.9,511.4z"
		/>
</g>
<g>
	<path id="_x23_999999_16_" class="st0" d="M16.6,545c8.7,0,15.7-7,15.7-15.7s-7-15.7-15.7-15.7s-15.7,7-15.7,15.7S7.9,545,16.6,545
		 M16.6,541c-6.5,0-11.8-5.3-11.8-11.8s5.3-11.8,11.8-11.8s11.8,5.3,11.8,11.8S23.1,541,16.6,541"/>
	<path id="foreground_16_" class="st1" d="M16.6,545c-8.7,0-15.7-7-15.7-15.7h3.9c0,6.5,5.3,11.8,11.8,11.8V545z"/>
</g>
<g>
	<path id="_x23_999999_17_" class="st0" d="M13.4,577.8c8.5,1.8,16.8-3.6,18.6-12.1s-3.6-16.8-12.1-18.6s-16.8,3.6-18.6,12.1
		S4.9,576,13.4,577.8 M14.2,573.9c-6.4-1.4-10.4-7.6-9.1-13.9s7.6-10.4,13.9-9.1c6.4,1.4,10.4,7.6,9.1,13.9
		C26.8,571.2,20.5,575.3,14.2,573.9"/>
	<path id="foreground_17_" class="st1" d="M13.4,577.8C4.9,576-0.5,567.7,1.3,559.2l3.8,0.8c-1.4,6.4,2.7,12.6,9.1,13.9L13.4,577.8z
		"/>
</g>
<g>
	<path id="_x23_999999_18_" class="st0" d="M10.2,609.9c7.9,3.5,17.2,0,20.7-7.9s0-17.2-7.9-20.7c-7.9-3.5-17.2,0-20.7,7.9
		C-1.2,597.1,2.3,606.4,10.2,609.9 M11.8,606.4c-5.9-2.6-8.6-9.6-6-15.5s9.6-8.6,15.5-6s8.6,9.6,6,15.5S17.8,609,11.8,606.4"/>
	<path id="foreground_18_" class="st1" d="M10.2,609.9c-7.9-3.5-11.5-12.8-7.9-20.7l3.6,1.6c-2.6,5.9,0,12.9,6,15.5L10.2,609.9z"/>
</g>
<g>
	<path id="_x23_999999_19_" class="st0" d="M7.4,641.5c7,5.1,16.8,3.5,21.9-3.5s3.5-16.8-3.5-21.9S9,612.6,3.9,619.6
		C-1.2,626.6,0.4,636.4,7.4,641.5 M9.7,638.3c-5.3-3.8-6.4-11.2-2.6-16.4s11.2-6.4,16.4-2.6c5.3,3.8,6.4,11.2,2.6,16.4
		S15,642.1,9.7,638.3"/>
	<path id="foreground_19_" class="st1" d="M7.4,641.5c-7-5.1-8.6-14.9-3.5-21.9l3.2,2.3c-3.8,5.3-2.7,12.6,2.6,16.4L7.4,641.5z"/>
</g>
<g>
	<path id="_x23_999999_20_" class="st0" d="M5,672.5c5.8,6.4,15.7,7,22.1,1.2c6.4-5.8,7-15.7,1.2-22.1s-15.7-7-22.1-1.2
		S-0.8,666,5,672.5 M7.9,669.8c-4.3-4.8-4-12.3,0.9-16.6c4.8-4.3,12.3-4,16.6,0.9c4.3,4.8,4,12.3-0.9,16.6S12.2,674.7,7.9,669.8"/>
	<path id="foreground_20_" class="st1" d="M5,672.5c-5.8-6.4-5.3-16.4,1.2-22.1l2.6,2.9c-4.8,4.3-5.2,11.8-0.9,16.6L5,672.5z"/>
</g>
<g>
	<path id="_x23_999999_21_" class="st0" d="M3,703c4.3,7.5,13.9,10.1,21.4,5.7c7.5-4.3,10.1-13.9,5.7-21.4
		c-4.3-7.5-13.9-10.1-21.4-5.7C1.3,685.9-1.3,695.5,3,703 M6.4,701c-3.2-5.6-1.3-12.8,4.3-16.1s12.8-1.3,16.1,4.3
		c3.2,5.6,1.3,12.8-4.3,16.1C16.9,708.6,9.7,706.6,6.4,701"/>
	<path id="foreground_21_" class="st1" d="M3,703c-4.3-7.5-1.8-17.1,5.7-21.4l2,3.4c-5.6,3.2-7.6,10.4-4.3,16.1L3,703z"/>
</g>
<g>
	<path id="_x23_999999_22_" class="st0" d="M1.7,733.1c2.7,8.2,11.5,12.7,19.8,10.1c8.2-2.7,12.7-11.5,10.1-19.8
		S20,710.7,11.8,713.4C3.5,716.1-1,724.9,1.7,733.1 M5.4,731.9c-2-6.2,1.4-12.8,7.6-14.8c6.2-2,12.8,1.4,14.8,7.6
		s-1.4,12.8-7.6,14.8C14.1,741.5,7.4,738.1,5.4,731.9"/>
	<path id="foreground_22_" class="st1" d="M1.7,733.1c-2.7-8.2,1.8-17.1,10.1-19.8l1.2,3.7c-6.2,2-9.6,8.6-7.6,14.8L1.7,733.1z"/>
</g>
<g>
	<path id="_x23_999999_23_" class="st0" d="M1,763.1c0.9,8.6,8.6,14.9,17.2,14c8.6-0.9,14.9-8.6,14-17.2c-0.9-8.6-8.6-14.9-17.2-14
		C6.4,746.8,0.1,754.5,1,763.1 M4.9,762.7c-0.7-6.5,4-12.2,10.5-12.9c6.5-0.7,12.2,4,12.9,10.5s-4,12.2-10.5,12.9
		S5.6,769.2,4.9,762.7"/>
	<path id="foreground_23_" class="st1" d="M1,763.1c-0.9-8.6,5.3-16.3,14-17.2l0.4,3.9c-6.5,0.7-11.1,6.5-10.5,12.9L1,763.1z"/>
</g>
<g>
	<path id="_x23_999999_24_" class="st0" d="M1,793c-0.9,8.6,5.3,16.3,14,17.2s16.3-5.3,17.2-14c0.9-8.6-5.3-16.3-14-17.2
		S1.9,784.4,1,793 M4.9,793.4c0.7-6.5,6.5-11.1,12.9-10.5s11.1,6.5,10.5,12.9s-6.5,11.1-12.9,10.5S4.2,799.9,4.9,793.4"/>
	<path id="foreground_24_" class="st1" d="M1,793c0.9-8.6,8.6-14.9,17.2-14l-0.4,3.9c-6.5-0.7-12.2,4-12.9,10.5L1,793z"/>
</g>
<g>
	<path id="_x23_999999_25_" class="st0" d="M1.7,823c-2.7,8.2,1.8,17.1,10.1,19.8c8.2,2.7,17.1-1.8,19.8-10.1s-1.8-17.1-10.1-19.8
		C13.2,810.2,4.4,814.7,1.7,823 M5.4,824.2c2-6.2,8.6-9.6,14.8-7.6c6.2,2,9.6,8.6,7.6,14.8S19.2,841,13,839
		C6.8,837,3.4,830.4,5.4,824.2"/>
	<path id="foreground_25_" class="st1" d="M1.7,823c2.7-8.2,11.5-12.7,19.8-10.1l-1.2,3.7c-6.2-2-12.8,1.4-14.8,7.6L1.7,823z"/>
</g>
<g>
	<path id="_x23_999999_26_" class="st0" d="M3,853.2c-4.3,7.5-1.8,17.1,5.7,21.4c7.5,4.3,17.1,1.8,21.4-5.7
		c4.3-7.5,1.8-17.1-5.7-21.4C17,843.1,7.4,845.7,3,853.2 M6.4,855.1c3.2-5.6,10.4-7.6,16.1-4.3c5.6,3.2,7.6,10.4,4.3,16.1
		s-10.4,7.6-16.1,4.3C5.1,867.9,3.2,860.7,6.4,855.1"/>
	<path id="foreground_26_" class="st1" d="M3,853.2c4.3-7.5,13.9-10.1,21.4-5.7l-2,3.4c-5.6-3.2-12.8-1.3-16.1,4.3L3,853.2z"/>
</g>
<g>
	<path id="_x23_999999_27_" class="st0" d="M5,883.7c-5.8,6.4-5.3,16.4,1.2,22.1c6.4,5.8,16.4,5.3,22.1-1.2s5.3-16.4-1.2-22.1
		S10.8,877.2,5,883.7 M7.9,886.3c4.3-4.8,11.8-5.2,16.6-0.9c4.8,4.3,5.2,11.8,0.9,16.6c-4.3,4.8-11.8,5.2-16.6,0.9
		S3.5,891.1,7.9,886.3"/>
	<path id="foreground_27_" class="st1" d="M5,883.7c5.8-6.4,15.7-7,22.1-1.2l-2.6,2.9c-4.8-4.3-12.3-4-16.6,0.9L5,883.7z"/>
</g>
<g>
	<path id="_x23_999999_28_" class="st0" d="M7.4,914.7c-7,5.1-8.6,14.9-3.5,21.9s14.9,8.6,21.9,3.5s8.6-14.9,3.5-21.9
		S14.4,909.6,7.4,914.7 M9.7,917.8c5.3-3.8,12.6-2.7,16.4,2.6s2.7,12.6-2.6,16.4s-12.6,2.7-16.4-2.6C3.3,929,4.4,921.6,9.7,917.8"/>
	<path id="foreground_28_" class="st1" d="M7.4,914.7c7-5.1,16.8-3.5,21.9,3.5l-3.2,2.3c-3.8-5.3-11.2-6.4-16.4-2.6L7.4,914.7z"/>
</g>
<g>
	<path id="_x23_999999_29_" class="st0" d="M10.2,946.2c-7.9,3.5-11.5,12.8-7.9,20.7c3.5,7.9,12.8,11.5,20.7,7.9
		c7.9-3.5,11.5-12.8,7.9-20.7C27.4,946.2,18.1,942.7,10.2,946.2 M11.8,949.8c5.9-2.6,12.9,0,15.5,6s0,12.9-6,15.5s-12.9,0-15.5-6
		S5.9,952.4,11.8,949.8"/>
	<path id="foreground_29_" class="st1" d="M10.2,946.2c7.9-3.5,17.2,0,20.7,7.9l-3.6,1.6c-2.6-5.9-9.6-8.6-15.5-6L10.2,946.2z"/>
</g>
</svg>
