<?xml version="1.0" encoding="utf-8"?>
<!-- Generator: Adobe Illustrator 19.1.0, SVG Export Plug-In . SVG Version: 6.00 Build 0)  -->
<svg version="1.1" id="Layer_1" xmlns="http://www.w3.org/2000/svg" xmlns:xlink="http://www.w3.org/1999/xlink" x="0px" y="0px"
	 width="52px" height="1602px" viewBox="-73 -701 52 1602" style="enable-background:new -73 -701 52 1602;" xml:space="preserve">
<style type="text/css">
	.st0{opacity:0.25;fill:#989798;enable-background:new    ;}
	.st1{fill:#989798;}
</style>
<g>
	<path id="_x23_999999_2_" class="st0" d="M-47-649.1c-14.4,0-25.9,11.6-25.9,25.9s11.5,25.9,25.9,25.9s25.9-11.5,25.9-25.9
		S-32.6-649.1-47-649.1 M-47-642.7c10.8,0,19.5,8.7,19.5,19.5s-8.7,19.5-19.5,19.5s-19.5-8.7-19.5-19.5S-57.8-642.7-47-642.7"/>
	<path id="foreground_2_" class="st1" d="M-47-649.1c14.4,0,25.9,11.5,25.9,25.9h-6.4c0-10.8-8.7-19.5-19.5-19.5V-649.1z"/>
</g>
<g>
	<path id="_x23_999999_3_" class="st0" d="M-41.6-596.7c-14.1-3-27.8,5.9-30.8,20s5.9,27.8,20,30.8s27.8-5.9,30.8-20
		C-18.7-580-27.6-593.8-41.6-596.7 M-42.9-590.4c10.5,2.3,17.2,12.7,15,23.1c-2.3,10.5-12.7,17.2-23.1,15
		c-10.5-2.3-17.2-12.7-15-23.1C-63.9-585.9-53.4-592.6-42.9-590.4"/>
	<path id="foreground_3_" class="st1" d="M-41.6-596.7c14.1,3,22.9,16.7,20,30.8l-6.3-1.3c2.3-10.5-4.5-20.8-15-23.1
		C-42.9-590.4-41.6-596.7-41.6-596.7z"/>
</g>
<g>
	<path id="_x23_999999_4_" class="st0" d="M-36.5-543.1c-13.2-5.8-28.4,0-34.2,13.2c-5.8,13.2,0,28.4,13.2,34.2s28.4,0,34.2-13.2
		S-23.4-537.3-36.5-543.1 M-39.3-537.2c9.9,4.4,14.2,16,9.9,25.7c-4.4,9.7-16,14.2-25.7,9.9c-9.7-4.4-14.2-16-9.9-25.7
		C-60.6-537.2-49-541.7-39.3-537.2"/>
	<path id="foreground_4_" class="st1" d="M-36.5-543.1c13.2,5.8,19,21.2,13.2,34.2l-5.9-2.6c4.4-9.9-0.1-21.4-9.9-25.7
		C-39.3-537.2-36.5-543.1-36.5-543.1z"/>
</g>
<g>
	<path id="_x23_999999_5_" class="st0" d="M-31.8-488.6c-11.6-8.4-27.8-5.9-36.2,5.7s-5.9,27.8,5.7,36.2s27.8,5.9,36.2-5.7
		C-17.7-464-20.2-480.2-31.8-488.6 M-35.6-483.4c8.7,6.3,10.6,18.6,4.4,27.2s-18.6,10.6-27.2,4.4s-10.7-18.5-4.4-27.2
		S-44.2-489.7-35.6-483.4"/>
	<path id="foreground_5_" class="st1" d="M-31.8-488.6c11.6,8.4,14.2,24.6,5.7,36.2l-5.2-3.8c6.3-8.7,4.4-21-4.4-27.2
		C-35.6-483.4-31.8-488.6-31.8-488.6z"/>
</g>
<g>
	<path id="_x23_999999_6_" class="st0" d="M-27.7-433.1c-9.6-10.7-25.9-11.5-36.6-2s-11.5,25.9-2,36.6s25.9,11.5,36.6,2
		C-19-406.1-18.2-422.4-27.7-433.1 M-32.5-428.7c7.2,8,6.5,20.3-1.5,27.5s-20.3,6.5-27.6-1.5c-7.3-8-6.5-20.3,1.5-27.5
		C-52.1-437.4-39.8-436.7-32.5-428.7"/>
	<path id="foreground_6_" class="st1" d="M-27.7-433.1c9.6,10.7,8.7,27-2,36.6l-4.4-4.8c8-7.2,8.6-19.5,1.5-27.5
		C-32.5-428.7-27.7-433.1-27.7-433.1z"/>
</g>
<g>
	<path id="_x23_999999_7_" class="st0" d="M-24.5-376.9c-7.2-12.4-23-16.7-35.5-9.5c-12.4,7.2-16.7,23-9.5,35.5
		c7.2,12.4,23,16.7,35.5,9.5C-21.6-348.6-17.3-364.4-24.5-376.9 M-30.1-373.7c5.4,9.3,2.2,21.3-7.2,26.7s-21.3,2.2-26.7-7.2
		c-5.4-9.3-2.2-21.3,7.2-26.7C-47.4-386.1-35.5-382.9-30.1-373.7"/>
	<path id="foreground_7_" class="st1" d="M-24.5-376.9c7.2,12.4,2.9,28.2-9.5,35.5l-3.2-5.6c9.3-5.4,12.5-17.3,7.2-26.7
		C-30.1-373.7-24.5-376.9-24.5-376.9z"/>
</g>
<g>
	<path id="_x23_999999_8_" class="st0" d="M-22.3-320.1c-4.5-13.7-19-21.1-32.7-16.7s-21.1,19-16.7,32.7c4.5,13.7,19,21.1,32.7,16.7
		C-25.3-291.7-17.9-306.4-22.3-320.1 M-28.5-318.1c3.3,10.2-2.3,21.3-12.5,24.6c-10.3,3.3-21.3-2.3-24.6-12.5
		c-3.3-10.2,2.3-21.3,12.5-24.6C-42.8-334-31.8-328.2-28.5-318.1"/>
	<path id="foreground_8_" class="st1" d="M-22.3-320.1c4.5,13.7-3,28.2-16.7,32.7l-2-6.1c10.2-3.3,15.9-14.3,12.5-24.6L-22.3-320.1z
		"/>
</g>
<g>
	<path id="_x23_999999_9_" class="st0" d="M-21.2-262.9c-1.5-14.3-14.2-24.6-28.5-23s-24.6,14.2-23,28.5s14.2,24.6,28.5,23
		C-29.9-235.9-19.8-248.6-21.2-262.9 M-27.6-262.2c1.1,10.7-6.6,20.3-17.3,21.5c-10.7,1.1-20.3-6.6-21.5-17.3
		c-1.1-10.7,6.6-20.3,17.3-21.5C-38.4-280.6-28.8-272.9-27.6-262.2"/>
	<path id="foreground_9_" class="st1" d="M-21.2-262.9c1.5,14.3-8.8,27-23,28.5l-0.6-6.4c10.7-1.1,18.5-10.8,17.3-21.5
		C-27.6-262.2-21.2-262.9-21.2-262.9z"/>
</g>
<g>
	<path id="_x23_999999_10_" class="st0" d="M-21.2-205.6c1.5-14.3-8.8-27-23-28.5c-14.2-1.6-27,8.8-28.5,23
		c-1.5,14.3,8.8,27,23,28.5C-35.4-181-22.8-191.2-21.2-205.6 M-27.7-206.3c-1.1,10.7-10.8,18.5-21.5,17.3
		c-10.7-1.1-18.5-10.7-17.3-21.4c1.1-10.7,10.8-18.5,21.5-17.3C-34.3-226.5-26.5-217-27.7-206.3"/>
	<path id="foreground_10_" class="st1" d="M-21.2-205.6c-1.5,14.3-14.2,24.6-28.5,23l0.6-6.4c10.7,1.1,20.3-6.6,21.5-17.3
		L-21.2-205.6z"/>
</g>
<g>
	<path id="_x23_999999_11_" class="st0" d="M-22.3-148.4c4.5-13.7-3-28.2-16.7-32.7s-28.2,3-32.7,16.7s3,28.2,16.7,32.7
		S-26.8-134.7-22.3-148.4 M-28.4-150.4c-3.3,10.2-14.3,15.9-24.6,12.5s-15.9-14.4-12.5-24.6c3.3-10.2,14.4-15.9,24.6-12.5
		S-25.1-160.6-28.4-150.4"/>
	<path id="foreground_11_" class="st1" d="M-22.3-148.4c-4.5,13.7-19,21.1-32.7,16.7l2-6.1c10.2,3.3,21.3-2.3,24.6-12.5
		C-28.4-150.4-22.3-148.4-22.3-148.4z"/>
</g>
<g>
	<path id="_x23_999999_12_" class="st0" d="M-24.5-91.6c7.2-12.4,2.9-28.2-9.5-35.5s-28.2-2.9-35.5,9.5c-7.2,12.4-2.9,28.2,9.5,35.5
		C-47.5-74.8-31.8-79.1-24.5-91.6 M-30.1-94.8c-5.4,9.3-17.3,12.5-26.7,7.2s-12.5-17.3-7.2-26.7c5.4-9.3,17.3-12.5,26.7-7.2
		C-27.9-116-24.8-104.1-30.1-94.8"/>
	<path id="foreground_12_" class="st1" d="M-24.5-91.6c-7.2,12.4-23,16.7-35.5,9.5l3.2-5.6c9.3,5.4,21.3,2.2,26.7-7.2
		C-30.1-94.8-24.5-91.6-24.5-91.6z"/>
</g>
<g>
	<path id="_x23_999999_13_" class="st0" d="M-27.7-35.4c9.6-10.7,8.7-27-2-36.6s-27-8.7-36.6,2s-8.7,27,2,36.6S-37.4-24.7-27.7-35.4
		 M-32.5-39.6c-7.2,8-19.5,8.6-27.5,1.5s-8.6-19.5-1.5-27.5S-42-74.2-34-67.1S-25.3-47.6-32.5-39.6"/>
	<path id="foreground_13_" class="st1" d="M-27.7-35.4c-9.6,10.7-25.9,11.5-36.6,2l4.4-4.8c8,7.2,20.3,6.5,27.5-1.5L-27.7-35.4z"/>
</g>
<g>
	<path id="_x23_999999_14_" class="st0" d="M-31.8,20.1c11.6-8.4,14.2-24.6,5.7-36.2s-24.6-14.2-36.2-5.7S-76.5,2.8-68,14.4
		S-43.4,28.6-31.8,20.1 M-35.6,14.9c-8.7,6.3-21,4.4-27.2-4.4c-6.3-8.7-4.4-21,4.4-27.2s21-4.4,27.2,4.4
		C-24.9-3.6-26.9,8.6-35.6,14.9"/>
	<path id="foreground_14_" class="st1" d="M-31.8,20.1C-43.4,28.5-59.5,26-68,14.4l5.2-3.8c6.3,8.7,18.6,10.6,27.2,4.4L-31.8,20.1z"
		/>
</g>
<g>
	<path id="_x23_999999_15_" class="st0" d="M-36.5,74.7c13.2-5.8,19-21.2,13.2-34.2c-5.8-13.2-21.2-19-34.2-13.2
		c-13.2,5.8-19,21.2-13.2,34.2S-49.6,80.6-36.5,74.7 M-39.2,68.9c-9.8,4.3-21.3-0.1-25.7-9.9c-4.4-9.9,0.1-21.4,9.9-25.7
		s21.4,0.1,25.7,9.9S-29.3,64.4-39.2,68.9"/>
	<path id="foreground_15_" class="st1" d="M-36.5,74.7c-13.2,5.8-28.4,0-34.2-13.2l5.9-2.6c4.4,9.9,16,14.2,25.7,9.9
		C-39.2,68.9-36.5,74.7-36.5,74.7z"/>
</g>
<g>
	<path id="_x23_999999_16_" class="st0" d="M-41.6,128.3c14.1-3,22.9-16.7,20-30.8c-3-14.1-16.7-22.9-30.8-20
		c-14.1,2.9-22.9,16.7-20,30.8C-69.4,122.3-55.7,131.2-41.6,128.3 M-43,122c-10.5,2.3-20.8-4.5-23.1-15c-2.3-10.5,4.5-20.8,15-23.1
		c10.5-2.3,20.8,4.5,23.1,15C-25.7,109.3-32.5,119.7-43,122"/>
	<path id="foreground_16_" class="st1" d="M-41.6,128.3c-14.1,3-27.8-5.9-30.8-20l6.3-1.3c2.3,10.5,12.7,17.2,23.1,15L-41.6,128.3z"
		/>
</g>
<g>
	<path id="_x23_999999_17_" class="st0" d="M-47,180.7c14.4,0,25.9-11.5,25.9-25.9c0-14.4-11.5-26-25.9-26s-25.9,11.5-25.9,25.9
		C-72.9,169.1-61.4,180.7-47,180.7 M-47,174.2c-10.8,0-19.5-8.7-19.5-19.5s8.7-19.5,19.5-19.5s19.5,8.7,19.5,19.5
		S-36.2,174.2-47,174.2"/>
	<path id="foreground_17_" class="st1" d="M-47,180.7c-14.4,0-25.9-11.5-25.9-25.9h6.4c0,10.8,8.7,19.5,19.5,19.5
		C-47,174.2-47,180.7-47,180.7z"/>
</g>
<g>
	<path id="_x23_999999_18_" class="st0" d="M-52.4,232c14.1,3,27.8-5.9,30.8-20s-5.9-27.8-20-30.8s-27.8,5.9-30.8,20
		C-75.3,215.3-66.4,229-52.4,232 M-51.1,225.7c-10.5-2.3-17.2-12.7-15-23.1c2.2-10.5,12.7-17.2,23.1-15c10.5,2.3,17.2,12.7,15,23.1
		S-40.6,227.9-51.1,225.7"/>
	<path id="foreground_18_" class="st1" d="M-52.4,232c-14.1-3-22.9-16.7-20-30.8l6.3,1.3c-2.3,10.5,4.5,20.8,15,23.1
		C-51.1,225.7-52.4,232-52.4,232z"/>
</g>
<g>
	<path id="_x23_999999_19_" class="st0" d="M-57.5,282.2c13.2,5.8,28.4,0,34.2-13.2c5.8-13.2,0-28.4-13.2-34.2s-28.4,0-34.2,13.2
		C-76.5,261.2-70.6,276.3-57.5,282.2 M-54.8,276.3c-9.9-4.4-14.2-16-9.9-25.7c4.4-9.9,16-14.2,25.7-9.9s14.2,16,9.9,25.7
		C-33.4,276.1-45.1,280.7-54.8,276.3"/>
	<path id="foreground_19_" class="st1" d="M-57.5,282.2c-13.2-5.8-19-21.2-13.2-34.2l5.9,2.6c-4.4,9.9,0.1,21.4,9.9,25.7
		C-54.8,276.3-57.5,282.2-57.5,282.2z"/>
</g>
<g>
	<path id="_x23_999999_20_" class="st0" d="M-62.2,331.4c11.6,8.4,27.8,5.9,36.2-5.7s5.9-27.8-5.7-36.2c-11.6-8.4-27.8-5.9-36.2,5.7
		C-76.4,306.7-73.8,322.9-62.2,331.4 M-58.4,326.1c-8.7-6.3-10.6-18.6-4.4-27.2c6.3-8.7,18.6-10.6,27.2-4.4
		c8.7,6.3,10.6,18.6,4.4,27.2C-37.5,330.4-49.8,332.4-58.4,326.1"/>
	<path id="foreground_20_" class="st1" d="M-62.2,331.4c-11.6-8.4-14.2-24.6-5.7-36.2l5.2,3.8c-6.3,8.7-4.4,21,4.4,27.2
		C-58.4,326.1-62.2,331.4-62.2,331.4z"/>
</g>
<g>
	<path id="_x23_999999_21_" class="st0" d="M-66.3,379.6c9.6,10.7,25.9,11.5,36.6,2c10.7-9.6,11.5-25.9,2-36.6
		c-9.6-10.7-25.9-11.5-36.6-2S-75.8,368.9-66.3,379.6 M-61.5,375.2c-7.2-8-6.5-20.3,1.5-27.5s20.3-6.5,27.5,1.5s6.5,20.3-1.5,27.5
		C-41.9,383.9-54.2,383.2-61.5,375.2"/>
	<path id="foreground_21_" class="st1" d="M-66.3,379.6c-9.6-10.7-8.7-27,2-36.6l4.4,4.8c-8,7.2-8.6,19.5-1.5,27.5
		C-61.5,375.2-66.3,379.6-66.3,379.6z"/>
</g>
<g>
	<path id="_x23_999999_22_" class="st0" d="M-69.5,427c7.2,12.4,23,16.7,35.5,9.5s16.7-23,9.5-35.5c-7.2-12.4-23-16.7-35.5-9.5
		C-72.4,398.7-76.7,414.6-69.5,427 M-63.9,423.8c-5.4-9.3-2.2-21.3,7.2-26.7c9.3-5.4,21.3-2.2,26.7,7.2c5.4,9.3,2.2,21.3-7.2,26.7
		C-46.6,436.3-58.5,433.1-63.9,423.8"/>
	<path id="foreground_22_" class="st1" d="M-69.5,427c-7.2-12.4-2.9-28.2,9.5-35.5l3.2,5.6c-9.3,5.4-12.5,17.3-7.2,26.7
		C-63.9,423.8-69.5,427-69.5,427z"/>
</g>
<g>
	<path id="_x23_999999_23_" class="st0" d="M-71.7,474c4.5,13.7,19,21.1,32.7,16.7c13.7-4.5,21.1-19,16.7-32.7
		c-4.5-13.7-19-21.1-32.7-16.7C-68.7,445.7-76.1,460.3-71.7,474 M-65.5,472c-3.3-10.2,2.3-21.3,12.5-24.6
		c10.2-3.3,21.3,2.3,24.6,12.5s-2.3,21.3-12.5,24.6C-51.1,487.8-62.2,482.2-65.5,472"/>
	<path id="foreground_23_" class="st1" d="M-71.7,474c-4.5-13.7,3-28.2,16.7-32.7l2,6.1c-10.2,3.3-15.9,14.3-12.5,24.6L-71.7,474z"
		/>
</g>
<g>
	<path id="_x23_999999_24_" class="st0" d="M-72.8,520.5c1.5,14.3,14.2,24.6,28.5,23c14.3-1.5,24.6-14.2,23-28.5s-14.2-24.6-28.5-23
		C-64,493.5-74.2,506.2-72.8,520.5 M-66.4,519.8c-1.1-10.7,6.6-20.3,17.3-21.5c10.7-1.1,20.3,6.6,21.5,17.3
		c1.1,10.7-6.6,20.3-17.3,21.5S-65.2,530.5-66.4,519.8"/>
	<path id="foreground_24_" class="st1" d="M-72.8,520.5c-1.5-14.3,8.8-27,23-28.5l0.6,6.4c-10.7,1.1-18.5,10.8-17.3,21.5
		C-66.4,519.8-72.8,520.5-72.8,520.5z"/>
</g>
<g>
	<path id="_x23_999999_25_" class="st0" d="M-72.8,566.9c-1.5,14.3,8.8,27,23,28.5c14.3,1.5,27-8.8,28.5-23c1.6-14.2-8.8-27-23-28.5
		C-58.6,542.3-71.2,552.7-72.8,566.9 M-66.4,567.6c1.1-10.7,10.8-18.5,21.5-17.3c10.7,1.1,18.5,10.8,17.3,21.5
		c-1.1,10.7-10.8,18.5-21.5,17.3C-59.7,588-67.5,578.3-66.4,567.6"/>
	<path id="foreground_25_" class="st1" d="M-72.8,566.9c1.5-14.3,14.2-24.6,28.5-23l-0.6,6.4c-10.7-1.1-20.3,6.6-21.5,17.3
		C-66.4,567.6-72.8,566.9-72.8,566.9z"/>
</g>
<g>
	<path id="_x23_999999_26_" class="st0" d="M-71.7,613.5c-4.5,13.7,3,28.2,16.7,32.7s28.2-3,32.7-16.7s-3-28.2-16.7-32.7
		C-52.7,592.4-67.2,599.9-71.7,613.5 M-65.6,615.6c3.3-10.2,14.3-15.9,24.6-12.5c10.2,3.3,15.9,14.3,12.5,24.6
		c-3.3,10.2-14.3,15.9-24.6,12.5C-63.3,636.7-68.9,625.7-65.6,615.6"/>
	<path id="foreground_26_" class="st1" d="M-71.7,613.5c4.5-13.7,19-21.1,32.7-16.7l-2,6.1c-10.2-3.3-21.3,2.3-24.6,12.5
		C-65.6,615.6-71.7,613.5-71.7,613.5z"/>
</g>
<g>
	<path id="_x23_999999_27_" class="st0" d="M-69.5,660.5c-7.2,12.4-2.9,28.2,9.5,35.5s28.2,2.9,35.5-9.5c7.2-12.4,2.9-28.2-9.5-35.5
		C-46.5,643.7-62.2,648-69.5,660.5 M-63.9,663.7c5.4-9.3,17.3-12.5,26.7-7.2c9.3,5.4,12.5,17.3,7.2,26.7s-17.3,12.5-26.7,7.2
		S-69.2,672.9-63.9,663.7"/>
	<path id="foreground_27_" class="st1" d="M-69.5,660.5c7.2-12.4,23-16.7,35.5-9.5l-3.2,5.6c-9.3-5.4-21.3-2.2-26.7,7.2
		C-63.9,663.7-69.5,660.5-69.5,660.5z"/>
</g>
<g>
	<path id="_x23_999999_28_" class="st0" d="M-66.3,707.9c-9.6,10.7-8.7,27,2,36.6s27,8.7,36.6-2s8.7-27-2-36.6
		C-40.4,696.3-56.6,697.3-66.3,707.9 M-61.5,712.2c7.2-8,19.5-8.6,27.5-1.5s8.6,19.5,1.5,27.5c-7.2,8-19.5,8.6-27.5,1.5
		C-68.1,732.5-68.7,720.2-61.5,712.2"/>
	<path id="foreground_28_" class="st1" d="M-66.3,707.9c9.6-10.7,25.9-11.5,36.6-2l-4.4,4.8c-8-7.2-20.3-6.5-27.5,1.5
		C-61.5,712.2-66.3,707.9-66.3,707.9z"/>
</g>
<g>
	<path id="_x23_999999_29_" class="st0" d="M-62.2,756.2c-11.6,8.4-14.2,24.6-5.7,36.2c8.4,11.6,24.6,14.2,36.2,5.7
		c11.6-8.4,14.2-24.6,5.7-36.2C-34.5,750.3-50.6,747.7-62.2,756.2 M-58.4,761.4c8.7-6.3,21-4.4,27.2,4.4c6.3,8.7,4.4,21-4.4,27.2
		c-8.7,6.3-21,4.4-27.2-4.4C-69.1,779.9-67.1,767.7-58.4,761.4"/>
	<path id="foreground_29_" class="st1" d="M-62.2,756.2c11.6-8.4,27.8-5.9,36.2,5.7l-5.2,3.8c-6.3-8.7-18.6-10.6-27.2-4.4
		L-62.2,756.2z"/>
</g>
<g>
	<path id="_x23_999999_30_" class="st0" d="M-57.5,805.3c-13.2,5.8-19,21.2-13.2,34.2c5.8,13.2,21.2,19,34.2,13.2s19-21.2,13.2-34.2
		C-29.1,805.3-44.3,799.4-57.5,805.3 M-54.8,811.2c9.9-4.4,21.4,0.1,25.7,9.9c4.4,9.9-0.1,21.4-9.9,25.7s-21.4-0.1-25.7-9.9
		C-69.1,827.1-64.7,815.5-54.8,811.2"/>
	<path id="foreground_30_" class="st1" d="M-57.5,805.3c13.2-5.8,28.4,0,34.2,13.2l-5.9,2.6c-4.4-9.9-16-14.2-25.7-9.9
		C-54.8,811.2-57.5,805.3-57.5,805.3z"/>
</g>
<g>
	<path id="_x23_999999_31_" class="st0" d="M-52.3,855.5c-14.1,2.9-22.9,16.7-20,30.7c2.9,14.1,16.7,22.9,30.7,20s22.9-16.7,20-30.7
		S-38.2,852.5-52.3,855.5 M-50.9,861.8c10.6-2.2,20.8,4.6,23.1,14.9c2.2,10.6-4.6,20.8-14.9,23.1s-20.8-4.6-23.1-14.9
		C-68.2,874.4-61.5,863.9-50.9,861.8"/>
	<path id="foreground_31_" class="st1" d="M-52.3,855.5c14.1-2.9,27.8,5.9,30.7,20l-6.3,1.3c-2.2-10.6-12.7-17.2-23.1-14.9
		C-50.9,861.8-52.3,855.5-52.3,855.5z"/>
</g>
</svg>
