<?xml version="1.0" encoding="utf-8"?>
<!-- Generator: Adobe Illustrator 19.1.0, SVG Export Plug-In . SVG Version: 6.00 Build 0)  -->
<svg version="1.1" id="Layer_1" xmlns="http://www.w3.org/2000/svg" xmlns:xlink="http://www.w3.org/1999/xlink" x="0px" y="0px"
	 width="52px" height="1602px" viewBox="-79 -747.2 52 1602" style="enable-background:new -79 -747.2 52 1602;"
	 xml:space="preserve">
<style type="text/css">
	.st0{opacity:0.25;fill:#989798;enable-background:new    ;}
	.st1{fill:#989798;}
</style>
<g>
	<g>
		<path id="_x23_999999_1_" class="st0" d="M-53-753c-14.4,0-25.9,11.5-25.9,25.9s11.5,25.9,25.9,25.9s25.9-11.5,25.9-25.9
			S-38.6-753-53-753 M-53-746.6c10.8,0,19.5,8.7,19.5,19.5s-8.7,19.5-19.5,19.5s-19.5-8.7-19.5-19.5S-63.8-746.6-53-746.6"/>
		<path id="foreground_1_" class="st1" d="M-53-753c14.4,0,25.9,11.5,25.9,25.9h-6.4c0-10.8-8.7-19.5-19.5-19.5
			C-53-746.6-53-753-53-753z"/>
	</g>
	<g>
		<path id="_x23_999999_2_" class="st0" d="M-53-701.1c-14.4,0-25.9,11.6-25.9,25.9s11.5,25.9,25.9,25.9s25.9-11.5,25.9-25.9
			S-38.6-701.1-53-701.1 M-53-694.7c10.8,0,19.5,8.7,19.5,19.5s-8.7,19.5-19.5,19.5s-19.5-8.7-19.5-19.5S-63.8-694.7-53-694.7"/>
		<path id="foreground_2_" class="st1" d="M-53-701.1c14.4,0,25.9,11.5,25.9,25.9h-6.4c0-10.8-8.7-19.5-19.5-19.5V-701.1z"/>
	</g>
	<g>
		<path id="_x23_999999_3_" class="st0" d="M-47.6-648.7c-14.1-3-27.8,5.9-30.8,20c-3,14.1,5.9,27.8,20,30.8s27.8-5.9,30.8-20
			C-24.7-632-33.6-645.8-47.6-648.7 M-48.9-642.4c10.5,2.3,17.2,12.7,15,23.1c-2.3,10.5-12.7,17.2-23.1,15
			c-10.5-2.3-17.2-12.7-15-23.1C-69.9-637.9-59.4-644.6-48.9-642.4"/>
		<path id="foreground_3_" class="st1" d="M-47.6-648.7c14.1,3,22.9,16.7,20,30.8l-6.3-1.3c2.3-10.5-4.5-20.8-15-23.1
			C-48.9-642.4-47.6-648.7-47.6-648.7z"/>
	</g>
	<g>
		<path id="_x23_999999_4_" class="st0" d="M-42.5-595.1c-13.2-5.8-28.4,0-34.2,13.2c-5.8,13.2,0,28.4,13.2,34.2
			c13.2,5.8,28.4,0,34.2-13.2S-29.4-589.3-42.5-595.1 M-45.3-589.2c9.9,4.4,14.2,16,9.9,25.7c-4.4,9.7-16,14.2-25.7,9.9
			c-9.7-4.4-14.2-16-9.9-25.7C-66.6-589.2-55-593.7-45.3-589.2"/>
		<path id="foreground_4_" class="st1" d="M-42.5-595.1c13.2,5.8,19,21.2,13.2,34.2l-5.9-2.6c4.4-9.9-0.1-21.4-9.9-25.7
			C-45.3-589.2-42.5-595.1-42.5-595.1z"/>
	</g>
	<g>
		<path id="_x23_999999_5_" class="st0" d="M-37.8-540.6c-11.6-8.4-27.8-5.9-36.2,5.7s-5.9,27.8,5.7,36.2s27.8,5.9,36.2-5.7
			C-23.7-516-26.2-532.2-37.8-540.6 M-41.6-535.4c8.7,6.3,10.6,18.6,4.4,27.2s-18.6,10.6-27.2,4.4c-8.6-6.2-10.7-18.5-4.4-27.2
			S-50.2-541.7-41.6-535.4"/>
		<path id="foreground_5_" class="st1" d="M-37.8-540.6c11.6,8.4,14.2,24.6,5.7,36.2l-5.2-3.8c6.3-8.7,4.4-21-4.4-27.2
			C-41.6-535.4-37.8-540.6-37.8-540.6z"/>
	</g>
	<g>
		<path id="_x23_999999_6_" class="st0" d="M-33.7-485.1c-9.6-10.7-25.9-11.5-36.6-2s-11.5,25.9-2,36.6c9.5,10.7,25.9,11.5,36.6,2
			C-25-458.1-24.2-474.4-33.7-485.1 M-38.5-480.7c7.2,8,6.5,20.3-1.5,27.5c-8,7.2-20.3,6.5-27.6-1.5s-6.5-20.3,1.5-27.5
			C-58.1-489.4-45.8-488.7-38.5-480.7"/>
		<path id="foreground_6_" class="st1" d="M-33.7-485.1c9.6,10.7,8.7,27-2,36.6l-4.4-4.8c8-7.2,8.6-19.5,1.5-27.5
			C-38.5-480.7-33.7-485.1-33.7-485.1z"/>
	</g>
	<g>
		<path id="_x23_999999_7_" class="st0" d="M-30.5-428.9c-7.2-12.4-23-16.7-35.5-9.5c-12.4,7.2-16.7,23-9.5,35.5
			c7.2,12.4,23,16.7,35.5,9.5C-27.6-400.6-23.3-416.4-30.5-428.9 M-36.1-425.7c5.4,9.3,2.2,21.3-7.2,26.7s-21.3,2.2-26.7-7.2
			c-5.4-9.3-2.2-21.3,7.2-26.7C-53.4-438.1-41.5-434.9-36.1-425.7"/>
		<path id="foreground_7_" class="st1" d="M-30.5-428.9c7.2,12.4,2.9,28.2-9.5,35.5l-3.2-5.6c9.3-5.4,12.5-17.3,7.2-26.7
			C-36.1-425.7-30.5-428.9-30.5-428.9z"/>
	</g>
	<g>
		<path id="_x23_999999_8_" class="st0" d="M-28.3-372.1c-4.5-13.7-19-21.1-32.7-16.7c-13.7,4.4-21.1,19-16.7,32.7
			c4.5,13.7,19,21.1,32.7,16.7C-31.3-343.7-23.9-358.4-28.3-372.1 M-34.5-370.1c3.3,10.2-2.3,21.3-12.5,24.6
			c-10.3,3.3-21.3-2.3-24.6-12.5s2.3-21.3,12.5-24.6C-48.8-386-37.8-380.2-34.5-370.1"/>
		<path id="foreground_8_" class="st1" d="M-28.3-372.1c4.5,13.7-3,28.2-16.7,32.7l-2-6.1c10.2-3.3,15.9-14.3,12.5-24.6
			C-34.5-370.1-28.3-372.1-28.3-372.1z"/>
	</g>
	<g>
		<path id="_x23_999999_9_" class="st0" d="M-27.2-314.9c-1.5-14.3-14.2-24.6-28.5-23c-14.3,1.6-24.6,14.2-23,28.5
			s14.2,24.6,28.5,23C-35.9-287.9-25.8-300.6-27.2-314.9 M-33.6-314.2c1.1,10.7-6.6,20.3-17.3,21.5c-10.7,1.1-20.3-6.6-21.5-17.3
			c-1.1-10.7,6.6-20.3,17.3-21.5C-44.4-332.6-34.8-324.9-33.6-314.2"/>
		<path id="foreground_9_" class="st1" d="M-27.2-314.9c1.5,14.3-8.8,27-23,28.5l-0.6-6.4c10.7-1.1,18.5-10.8,17.3-21.5
			C-33.6-314.2-27.2-314.9-27.2-314.9z"/>
	</g>
	<g>
		<path id="_x23_999999_10_" class="st0" d="M-27.2-257.6c1.5-14.3-8.8-27-23-28.5c-14.2-1.6-27,8.8-28.5,23
			c-1.5,14.3,8.8,27,23,28.5C-41.4-233-28.8-243.2-27.2-257.6 M-33.7-258.3c-1.1,10.7-10.8,18.5-21.5,17.3
			c-10.7-1.1-18.5-10.7-17.3-21.4c1.1-10.7,10.8-18.5,21.5-17.3C-40.3-278.5-32.5-269-33.7-258.3"/>
		<path id="foreground_10_" class="st1" d="M-27.2-257.6c-1.5,14.3-14.2,24.6-28.5,23l0.6-6.4c10.7,1.1,20.3-6.6,21.5-17.3
			L-27.2-257.6z"/>
	</g>
	<g>
		<path id="_x23_999999_11_" class="st0" d="M-28.3-200.4c4.5-13.7-3-28.2-16.7-32.7c-13.7-4.5-28.2,3-32.7,16.7
			c-4.5,13.7,3,28.2,16.7,32.7C-47.3-179.2-32.8-186.7-28.3-200.4 M-34.4-202.4c-3.3,10.2-14.3,15.9-24.6,12.5s-15.9-14.4-12.5-24.6
			c3.3-10.2,14.4-15.9,24.6-12.5S-31.1-212.6-34.4-202.4"/>
		<path id="foreground_11_" class="st1" d="M-28.3-200.4c-4.5,13.7-19,21.1-32.7,16.7l2-6.1c10.2,3.3,21.3-2.3,24.6-12.5
			C-34.4-202.4-28.3-200.4-28.3-200.4z"/>
	</g>
	<g>
		<path id="_x23_999999_12_" class="st0" d="M-30.5-143.6c7.2-12.4,2.9-28.2-9.5-35.5c-12.4-7.3-28.2-2.9-35.5,9.5
			c-7.2,12.4-2.9,28.2,9.5,35.5C-53.5-126.8-37.8-131.1-30.5-143.6 M-36.1-146.8c-5.4,9.3-17.3,12.5-26.7,7.2s-12.5-17.3-7.2-26.7
			c5.4-9.3,17.3-12.5,26.7-7.2C-33.9-168-30.8-156.1-36.1-146.8"/>
		<path id="foreground_12_" class="st1" d="M-30.5-143.6c-7.2,12.4-23,16.7-35.5,9.5l3.2-5.6c9.3,5.4,21.3,2.2,26.7-7.2
			C-36.1-146.8-30.5-143.6-30.5-143.6z"/>
	</g>
	<g>
		<path id="_x23_999999_13_" class="st0" d="M-33.7-87.4c9.6-10.7,8.7-27-2-36.6s-27-8.7-36.6,2s-8.7,27,2,36.6
			C-59.6-75.8-43.4-76.7-33.7-87.4 M-38.5-91.6c-7.2,8-19.5,8.6-27.5,1.5s-8.6-19.5-1.5-27.5s19.5-8.6,27.5-1.5
			S-31.3-99.6-38.5-91.6"/>
		<path id="foreground_13_" class="st1" d="M-33.7-87.4c-9.6,10.7-25.9,11.5-36.6,2l4.4-4.8c8,7.2,20.3,6.5,27.5-1.5L-33.7-87.4z"/>
	</g>
	<g>
		<path id="_x23_999999_14_" class="st0" d="M-37.8-31.9c11.6-8.4,14.2-24.6,5.7-36.2s-24.6-14.2-36.2-5.7S-82.5-49.2-74-37.6
			C-65.5-26-49.4-23.4-37.8-31.9 M-41.6-37.1c-8.7,6.3-21,4.4-27.2-4.4c-6.3-8.7-4.4-21,4.4-27.2s21-4.4,27.2,4.4
			C-30.9-55.6-32.9-43.4-41.6-37.1"/>
		<path id="foreground_14_" class="st1" d="M-37.8-31.9C-49.4-23.5-65.5-26-74-37.6l5.2-3.8c6.3,8.7,18.6,10.6,27.2,4.4L-37.8-31.9z
			"/>
	</g>
	<g>
		<path id="_x23_999999_15_" class="st0" d="M-42.5,22.7c13.2-5.8,19-21.2,13.2-34.2c-5.8-13.2-21.2-19-34.2-13.2
			c-13.2,5.8-19,21.2-13.2,34.2S-55.6,28.6-42.5,22.7 M-45.2,16.9C-55,21.2-66.5,16.8-70.9,7c-4.4-9.9,0.1-21.4,9.9-25.7
			s21.4,0.1,25.7,9.9S-35.3,12.4-45.2,16.9"/>
		<path id="foreground_15_" class="st1" d="M-42.5,22.7c-13.2,5.8-28.4,0-34.2-13.2l5.9-2.6c4.4,9.9,16,14.2,25.7,9.9
			C-45.2,16.9-42.5,22.7-42.5,22.7z"/>
	</g>
	<g>
		<path id="_x23_999999_16_" class="st0" d="M-47.6,76.3c14.1-3,22.9-16.7,20-30.8c-3-14.1-16.7-22.9-30.8-20s-22.9,16.7-20,30.8
			C-75.4,70.3-61.7,79.2-47.6,76.3 M-49,70c-10.5,2.3-20.8-4.5-23.1-15s4.5-20.8,15-23.1s20.8,4.5,23.1,15
			C-31.7,57.3-38.5,67.7-49,70"/>
		<path id="foreground_16_" class="st1" d="M-47.6,76.3c-14.1,3-27.8-5.9-30.8-20l6.3-1.3c2.3,10.5,12.7,17.2,23.1,15L-47.6,76.3z"
			/>
	</g>
	<g>
		<path id="_x23_999999_17_" class="st0" d="M-53,128.7c14.4,0,25.9-11.5,25.9-25.9S-38.6,76.8-53,76.8s-25.9,11.5-25.9,25.9
			S-67.4,128.7-53,128.7 M-53,122.2c-10.8,0-19.5-8.7-19.5-19.5s8.7-19.5,19.5-19.5s19.5,8.7,19.5,19.5S-42.2,122.2-53,122.2"/>
		<path id="foreground_17_" class="st1" d="M-53,128.7c-14.4,0-25.9-11.5-25.9-25.9h6.4c0,10.8,8.7,19.5,19.5,19.5
			C-53,122.2-53,128.7-53,128.7z"/>
	</g>
	<g>
		<path id="_x23_999999_18_" class="st0" d="M-58.4,180c14.1,3,27.8-5.9,30.8-20c3-14.1-5.9-27.8-20-30.8c-14.1-3-27.8,5.9-30.8,20
			C-81.3,163.3-72.4,177-58.4,180 M-57.1,173.7c-10.5-2.3-17.2-12.7-15-23.1c2.2-10.5,12.7-17.2,23.1-15c10.5,2.3,17.2,12.7,15,23.1
			C-36.2,169.1-46.6,175.9-57.1,173.7"/>
		<path id="foreground_18_" class="st1" d="M-58.4,180c-14.1-3-22.9-16.7-20-30.8l6.3,1.3c-2.3,10.5,4.5,20.8,15,23.1
			C-57.1,173.7-58.4,180-58.4,180z"/>
	</g>
	<g>
		<path id="_x23_999999_19_" class="st0" d="M-63.5,230.2c13.2,5.8,28.4,0,34.2-13.2s0-28.4-13.2-34.2c-13.2-5.8-28.4,0-34.2,13.2
			S-76.6,224.3-63.5,230.2 M-60.8,224.3c-9.9-4.4-14.2-16-9.9-25.7c4.4-9.9,16-14.2,25.7-9.9s14.2,16,9.9,25.7
			S-51.1,228.7-60.8,224.3"/>
		<path id="foreground_19_" class="st1" d="M-63.5,230.2c-13.2-5.8-19-21.2-13.2-34.2l5.9,2.6c-4.4,9.9,0.1,21.4,9.9,25.7
			C-60.8,224.3-63.5,230.2-63.5,230.2z"/>
	</g>
	<g>
		<path id="_x23_999999_20_" class="st0" d="M-68.2,279.4c11.6,8.4,27.8,5.9,36.2-5.7c8.4-11.6,5.9-27.8-5.7-36.2
			c-11.6-8.4-27.8-5.9-36.2,5.7C-82.4,254.7-79.8,270.9-68.2,279.4 M-64.4,274.1c-8.7-6.3-10.6-18.6-4.4-27.2
			c6.3-8.7,18.6-10.6,27.2-4.4c8.7,6.3,10.6,18.6,4.4,27.2C-43.5,278.4-55.8,280.4-64.4,274.1"/>
		<path id="foreground_20_" class="st1" d="M-68.2,279.4c-11.6-8.4-14.2-24.6-5.7-36.2l5.2,3.8c-6.3,8.7-4.4,21,4.4,27.2
			C-64.4,274.1-68.2,279.4-68.2,279.4z"/>
	</g>
	<g>
		<path id="_x23_999999_21_" class="st0" d="M-72.3,327.6c9.6,10.7,25.9,11.5,36.6,2c10.7-9.6,11.5-25.9,2-36.6
			c-9.6-10.7-25.9-11.5-36.6-2S-81.8,316.9-72.3,327.6 M-67.5,323.2c-7.2-8-6.5-20.3,1.5-27.5c8-7.2,20.3-6.5,27.5,1.5
			c7.2,8,6.5,20.3-1.5,27.5C-47.9,331.9-60.2,331.2-67.5,323.2"/>
		<path id="foreground_21_" class="st1" d="M-72.3,327.6c-9.6-10.7-8.7-27,2-36.6l4.4,4.8c-8,7.2-8.6,19.5-1.5,27.5
			C-67.5,323.2-72.3,327.6-72.3,327.6z"/>
	</g>
	<g>
		<path id="_x23_999999_22_" class="st0" d="M-75.5,375c7.2,12.4,23,16.7,35.5,9.5s16.7-23,9.5-35.5c-7.2-12.4-23-16.7-35.5-9.5
			C-78.4,346.7-82.7,362.6-75.5,375 M-69.9,371.8c-5.4-9.3-2.2-21.3,7.2-26.7c9.3-5.4,21.3-2.2,26.7,7.2c5.4,9.3,2.2,21.3-7.2,26.7
			C-52.6,384.3-64.5,381.1-69.9,371.8"/>
		<path id="foreground_22_" class="st1" d="M-75.5,375c-7.2-12.4-2.9-28.2,9.5-35.5l3.2,5.6c-9.3,5.4-12.5,17.3-7.2,26.7
			C-69.9,371.8-75.5,375-75.5,375z"/>
	</g>
	<g>
		<path id="_x23_999999_23_" class="st0" d="M-77.7,422c4.5,13.7,19,21.1,32.7,16.7c13.7-4.5,21.1-19,16.7-32.7
			c-4.5-13.7-19-21.1-32.7-16.7C-74.7,393.7-82.1,408.3-77.7,422 M-71.5,420c-3.3-10.2,2.3-21.3,12.5-24.6
			c10.2-3.3,21.3,2.3,24.6,12.5c3.3,10.2-2.3,21.3-12.5,24.6C-57.1,435.8-68.2,430.2-71.5,420"/>
		<path id="foreground_23_" class="st1" d="M-77.7,422c-4.5-13.7,3-28.2,16.7-32.7l2,6.1c-10.2,3.3-15.9,14.3-12.5,24.6L-77.7,422z"
			/>
	</g>
	<g>
		<path id="_x23_999999_24_" class="st0" d="M-78.8,468.5c1.5,14.3,14.2,24.6,28.5,23c14.3-1.5,24.6-14.2,23-28.5
			s-14.2-24.6-28.5-23C-70,441.5-80.2,454.2-78.8,468.5 M-72.4,467.8c-1.1-10.7,6.6-20.3,17.3-21.5c10.7-1.1,20.3,6.6,21.5,17.3
			c1.1,10.7-6.6,20.3-17.3,21.5S-71.2,478.5-72.4,467.8"/>
		<path id="foreground_24_" class="st1" d="M-78.8,468.5c-1.5-14.3,8.8-27,23-28.5l0.6,6.4c-10.7,1.1-18.5,10.8-17.3,21.5
			C-72.4,467.8-78.8,468.5-78.8,468.5z"/>
	</g>
	<g>
		<path id="_x23_999999_25_" class="st0" d="M-78.8,514.9c-1.5,14.3,8.8,27,23,28.5c14.3,1.5,27-8.8,28.5-23
			c1.6-14.2-8.8-27-23-28.5C-64.6,490.3-77.2,500.7-78.8,514.9 M-72.4,515.6c1.1-10.7,10.8-18.5,21.5-17.3
			c10.7,1.1,18.5,10.8,17.3,21.5c-1.1,10.7-10.8,18.5-21.5,17.3C-65.7,536-73.5,526.3-72.4,515.6"/>
		<path id="foreground_25_" class="st1" d="M-78.8,514.9c1.5-14.3,14.2-24.6,28.5-23l-0.6,6.4c-10.7-1.1-20.3,6.6-21.5,17.3
			C-72.4,515.6-78.8,514.9-78.8,514.9z"/>
	</g>
	<g>
		<path id="_x23_999999_26_" class="st0" d="M-77.7,561.5c-4.5,13.7,3,28.2,16.7,32.7s28.2-3,32.7-16.7c4.5-13.7-3-28.2-16.7-32.7
			C-58.7,540.4-73.2,547.9-77.7,561.5 M-71.6,563.6c3.3-10.2,14.3-15.9,24.6-12.5c10.2,3.3,15.9,14.3,12.5,24.6
			c-3.3,10.2-14.3,15.9-24.6,12.5C-69.3,584.7-74.9,573.7-71.6,563.6"/>
		<path id="foreground_26_" class="st1" d="M-77.7,561.5c4.5-13.7,19-21.1,32.7-16.7l-2,6.1c-10.2-3.3-21.3,2.3-24.6,12.5
			C-71.6,563.6-77.7,561.5-77.7,561.5z"/>
	</g>
	<g>
		<path id="_x23_999999_27_" class="st0" d="M-75.5,608.5c-7.2,12.4-2.9,28.2,9.5,35.5s28.2,2.9,35.5-9.5
			c7.2-12.4,2.9-28.2-9.5-35.5C-52.5,591.7-68.2,596-75.5,608.5 M-69.9,611.7c5.4-9.3,17.3-12.5,26.7-7.2
			c9.3,5.4,12.5,17.3,7.2,26.7s-17.3,12.5-26.7,7.2S-75.2,620.9-69.9,611.7"/>
		<path id="foreground_27_" class="st1" d="M-75.5,608.5c7.2-12.4,23-16.7,35.5-9.5l-3.2,5.6c-9.3-5.4-21.3-2.2-26.7,7.2
			C-69.9,611.7-75.5,608.5-75.5,608.5z"/>
	</g>
	<g>
		<path id="_x23_999999_28_" class="st0" d="M-72.3,655.9c-9.6,10.7-8.7,27,2,36.6s27,8.7,36.6-2c9.6-10.7,8.7-27-2-36.6
			C-46.4,644.3-62.6,645.3-72.3,655.9 M-67.5,660.2c7.2-8,19.5-8.6,27.5-1.5s8.6,19.5,1.5,27.5c-7.2,8-19.5,8.6-27.5,1.5
			C-74.1,680.5-74.7,668.2-67.5,660.2"/>
		<path id="foreground_28_" class="st1" d="M-72.3,655.9c9.6-10.7,25.9-11.5,36.6-2l-4.4,4.8c-8-7.2-20.3-6.5-27.5,1.5
			C-67.5,660.2-72.3,655.9-72.3,655.9z"/>
	</g>
	<g>
		<path id="_x23_999999_29_" class="st0" d="M-68.2,704.2c-11.6,8.4-14.2,24.6-5.7,36.2c8.4,11.6,24.6,14.2,36.2,5.7
			c11.6-8.4,14.2-24.6,5.7-36.2C-40.5,698.3-56.6,695.7-68.2,704.2 M-64.4,709.4c8.7-6.3,21-4.4,27.2,4.4c6.3,8.7,4.4,21-4.4,27.2
			c-8.7,6.3-21,4.4-27.2-4.4C-75.1,727.9-73.1,715.7-64.4,709.4"/>
		<path id="foreground_29_" class="st1" d="M-68.2,704.2c11.6-8.4,27.8-5.9,36.2,5.7l-5.2,3.8c-6.3-8.7-18.6-10.6-27.2-4.4
			L-68.2,704.2z"/>
	</g>
	<g>
		<path id="_x23_999999_30_" class="st0" d="M-63.5,753.3c-13.2,5.8-19,21.2-13.2,34.2c5.8,13.2,21.2,19,34.2,13.2
			s19-21.2,13.2-34.2C-35.1,753.3-50.3,747.4-63.5,753.3 M-60.8,759.2c9.9-4.4,21.4,0.1,25.7,9.9c4.4,9.9-0.1,21.4-9.9,25.7
			s-21.4-0.1-25.7-9.9C-75.1,775.1-70.7,763.5-60.8,759.2"/>
		<path id="foreground_30_" class="st1" d="M-63.5,753.3c13.2-5.8,28.4,0,34.2,13.2l-5.9,2.6c-4.4-9.9-16-14.2-25.7-9.9
			C-60.8,759.2-63.5,753.3-63.5,753.3z"/>
	</g>
	<g>
		<path id="_x23_999999_31_" class="st0" d="M-58.3,803.5c-14.1,2.9-22.9,16.7-20,30.7c2.9,14.1,16.7,22.9,30.7,20
			s22.9-16.7,20-30.7C-30.5,809.5-44.2,800.5-58.3,803.5 M-56.9,809.8c10.6-2.2,20.8,4.6,23.1,14.9c2.2,10.6-4.6,20.8-14.9,23.1
			s-20.8-4.6-23.1-14.9C-74.2,822.4-67.5,811.9-56.9,809.8"/>
		<path id="foreground_31_" class="st1" d="M-58.3,803.5c14.1-2.9,27.8,5.9,30.7,20l-6.3,1.3c-2.2-10.6-12.7-17.2-23.1-14.9
			C-56.9,809.8-58.3,803.5-58.3,803.5z"/>
	</g>
</g>
</svg>
