<?xml version="1.0" encoding="utf-8"?>
<!-- Generator: Adobe Illustrator 19.1.0, SVG Export Plug-In . SVG Version: 6.00 Build 0)  -->
<svg version="1.1" id="Layer_1" xmlns="http://www.w3.org/2000/svg" xmlns:xlink="http://www.w3.org/1999/xlink" x="0px" y="0px"
	 viewBox="0 0 33.2 960.2" style="enable-background:new 0 0 33.2 960.2;" xml:space="preserve">
<style type="text/css">
	.st0{opacity:0.25;fill:#989898;enable-background:new    ;}
	.st1{fill:#989898;}
</style>
<g>
	<path id="_x23_999999_1_" class="st0" d="M16.6,0C7.9,0,0.8,7.1,0.8,15.8s7.1,15.8,15.8,15.8s15.8-7.1,15.8-15.8S25.4,0,16.6,0
		 M16.6,4c6.6,0,11.9,5.3,11.9,11.9s-5.3,11.9-11.9,11.9S4.7,22.4,4.7,15.8S10,4,16.6,4"/>
	<path id="foreground_1_" class="st1" d="M16.6,0c8.7,0,15.8,7.1,15.8,15.8h-4C28.5,9.3,23.2,4,16.6,4V0z"/>
</g>
<g>
	<path id="_x23_999999_2_" class="st0" d="M19.9,32.4c-8.6-1.8-17,3.6-18.8,12.2s3.6,17,12.2,18.8c8.6,1.8,17-3.6,18.8-12.2
		S28.5,34.2,19.9,32.4 M19.1,36.2c6.4,1.4,10.5,7.7,9.2,14.1c-1.4,6.4-7.7,10.5-14.1,9.2C7.7,58.1,3.6,51.8,5,45.4
		S12.7,34.9,19.1,36.2"/>
	<path id="foreground_2_" class="st1" d="M19.9,32.4c8.6,1.8,14,10.2,12.2,18.8l-3.9-0.8c1.4-6.4-2.7-12.7-9.2-14.1L19.9,32.4z"/>
</g>
<g>
	<path id="_x23_999999_3_" class="st0" d="M23.1,65.4c-8-3.6-17.4,0-20.9,8s0,17.4,8,20.9c8,3.6,17.4,0,20.9-8S31,69,23.1,65.4
		 M21.4,69c6,2.7,8.7,9.7,6,15.7c-2.7,6-9.7,8.7-15.7,6c-6-2.7-8.7-9.7-6-15.7C8.4,69,15.4,66.4,21.4,69"/>
	<path id="foreground_3_" class="st1" d="M23.1,65.4c8,3.6,11.6,12.9,8,20.9l-3.6-1.6c2.7-6,0-13-6-15.7L23.1,65.4z"/>
</g>
<g>
	<path id="_x23_999999_4_" class="st0" d="M25.9,99.1c-7.1-5.1-17-3.6-22.1,3.5c-5.1,7.1-3.6,17,3.5,22.1s17,3.6,22.1-3.5
		S33,104.2,25.9,99.1 M23.6,102.3c5.3,3.9,6.5,11.3,2.6,16.6s-11.3,6.5-16.6,2.6S3.1,110.2,7,104.9S18.3,98.4,23.6,102.3"/>
	<path id="foreground_4_" class="st1" d="M25.9,99.1c7.1,5.1,8.6,15,3.5,22.1l-3.2-2.3c3.9-5.3,2.7-12.7-2.6-16.6L25.9,99.1z"/>
</g>
<g>
	<path id="_x23_999999_5_" class="st0" d="M28.4,133.3c-5.9-6.5-15.9-7-22.4-1.2s-7,15.9-1.2,22.4s15.9,7,22.4,1.2
		C33.7,149.8,34.2,139.8,28.4,133.3 M25.4,136c4.4,4.9,4,12.4-0.9,16.8s-12.4,4-16.8-0.9c-4.4-4.9-4-12.4,0.9-16.8
		C13.5,130.7,21,131.1,25.4,136"/>
	<path id="foreground_5_" class="st1" d="M28.4,133.3c5.9,6.5,5.3,16.5-1.2,22.4l-2.6-2.9c4.9-4.4,5.3-11.9,0.9-16.8L28.4,133.3z"/>
</g>
<g>
	<path id="_x23_999999_6_" class="st0" d="M30.3,168c-4.4-7.6-14.1-10.2-21.6-5.8c-7.6,4.4-10.2,14.1-5.8,21.6S17,194,24.5,189.6
		C32.1,185.3,34.7,175.6,30.3,168 M26.9,170c3.3,5.7,1.3,12.9-4.3,16.2c-5.7,3.3-12.9,1.3-16.2-4.3s-1.3-12.9,4.3-16.2
		C16.4,162.4,23.6,164.3,26.9,170"/>
	<path id="foreground_6_" class="st1" d="M30.3,168c4.4,7.6,1.8,17.3-5.8,21.6l-2-3.4c5.7-3.3,7.6-10.5,4.3-16.2L30.3,168z"/>
</g>
<g>
	<path id="_x23_999999_7_" class="st0" d="M31.7,203.1c-2.7-8.3-11.6-12.9-20-10.2s-12.9,11.6-10.2,20s11.6,12.9,20,10.2
		S34.4,211.4,31.7,203.1 M27.9,204.3c2,6.2-1.4,12.9-7.6,15c-6.2,2-12.9-1.4-15-7.6s1.4-12.9,7.6-15C19.2,194.6,25.9,198,27.9,204.3
		"/>
	<path id="foreground_7_" class="st1" d="M31.7,203.1c2.7,8.3-1.8,17.3-10.2,20l-1.2-3.8c6.2-2,9.7-8.7,7.6-15L31.7,203.1z"/>
</g>
<g>
	<path id="_x23_999999_8_" class="st0" d="M32.4,238.3c-0.9-8.7-8.7-15-17.4-14.1c-8.7,0.9-15,8.7-14.1,17.4
		c0.9,8.7,8.7,15,17.4,14.1C27,254.8,33.3,247,32.4,238.3 M28.4,238.7c0.7,6.5-4,12.4-10.6,13.1s-12.4-4-13.1-10.6
		c-0.7-6.5,4-12.4,10.6-13.1C21.9,227.5,27.7,232.2,28.4,238.7"/>
	<path id="foreground_8_" class="st1" d="M32.4,238.3c0.9,8.7-5.4,16.5-14.1,17.4l-0.4-3.9c6.5-0.7,11.3-6.5,10.6-13.1L32.4,238.3z"
		/>
</g>
<g>
	<path id="_x23_999999_9_" class="st0" d="M32.4,273.6c0.9-8.7-5.4-16.5-14.1-17.4c-8.7-0.9-16.5,5.4-17.4,14.1s5.4,16.5,14.1,17.4
		S31.4,282.3,32.4,273.6 M28.4,273.2c-0.7,6.5-6.5,11.3-13.1,10.6s-11.3-6.5-10.6-13.1s6.5-11.3,13.1-10.6S29.1,266.7,28.4,273.2"/>
	<path id="foreground_9_" class="st1" d="M32.4,273.6c-0.9,8.7-8.7,15-17.4,14.1l0.4-3.9c6.5,0.7,12.4-4,13.1-10.6L32.4,273.6z"/>
</g>
<g>
	<path id="_x23_999999_10_" class="st0" d="M31.7,308.9c2.7-8.3-1.8-17.3-10.2-20s-17.3,1.8-20,10.2c-2.7,8.3,1.8,17.3,10.2,20
		S29,317.2,31.7,308.9 M27.9,307.7c-2,6.2-8.7,9.7-15,7.6s-9.7-8.7-7.6-15c2-6.2,8.7-9.7,15-7.6S29.9,301.4,27.9,307.7"/>
	<path id="foreground_10_" class="st1" d="M31.7,308.9c-2.7,8.3-11.6,12.9-20,10.2l1.2-3.8c6.2,2,12.9-1.4,15-7.6L31.7,308.9z"/>
</g>
<g>
	<path id="_x23_999999_11_" class="st0" d="M30.3,343.9c4.4-7.6,1.8-17.3-5.8-21.6c-7.6-4.4-17.3-1.8-21.6,5.8
		c-4.4,7.6-1.8,17.3,5.8,21.6S26,351.5,30.3,343.9 M26.9,342c-3.3,5.7-10.5,7.6-16.2,4.3C5,343,3,335.8,6.3,330.1
		c3.3-5.7,10.5-7.6,16.2-4.3S30.2,336.3,26.9,342"/>
	<path id="foreground_11_" class="st1" d="M30.3,343.9c-4.4,7.6-14.1,10.2-21.6,5.8l2-3.4c5.7,3.3,12.9,1.3,16.2-4.3L30.3,343.9z"/>
</g>
<g>
	<path id="_x23_999999_12_" class="st0" d="M28.4,378.6c5.9-6.5,5.3-16.5-1.2-22.4s-16.5-5.3-22.4,1.2C-1,363.9-0.5,374,6,379.8
		C12.5,385.7,22.5,385.1,28.4,378.6 M25.4,376c-4.4,4.9-11.9,5.3-16.8,0.9S3.4,365,7.8,360.1s11.9-5.3,16.8-0.9S29.8,371.1,25.4,376
		"/>
	<path id="foreground_12_" class="st1" d="M28.4,378.6c-5.9,6.5-15.9,7-22.4,1.2l2.6-2.9c4.9,4.4,12.4,4,16.8-0.9L28.4,378.6z"/>
</g>
<g>
	<path id="_x23_999999_13_" class="st0" d="M25.9,412.9c7.1-5.1,8.6-15,3.5-22.1c-5.1-7.1-15-8.6-22.1-3.5s-8.6,15-3.5,22.1
		C8.9,416.4,18.8,418,25.9,412.9 M23.6,409.7c-5.3,3.9-12.7,2.7-16.6-2.6s-2.7-12.7,2.6-16.6s12.7-2.7,16.6,2.6
		S28.9,405.8,23.6,409.7"/>
	<path id="foreground_13_" class="st1" d="M25.9,412.9c-7.1,5.1-17,3.6-22.1-3.5L7,407c3.9,5.3,11.3,6.5,16.6,2.6L25.9,412.9z"/>
</g>
<g>
	<path id="_x23_999999_14_" class="st0" d="M23.1,446.5c8-3.6,11.6-12.9,8-20.9c-3.6-8-12.9-11.6-20.9-8s-11.6,12.9-8,20.9
		S15.1,450.1,23.1,446.5 M21.4,442.9c-6,2.7-13,0-15.7-6c-2.7-6,0-13,6-15.7c6-2.7,13,0,15.7,6C30.1,433.2,27.4,440.3,21.4,442.9"/>
	<path id="foreground_14_" class="st1" d="M23.1,446.5c-8,3.6-17.4,0-20.9-8l3.6-1.6c2.7,6,9.7,8.7,15.7,6L23.1,446.5z"/>
</g>
<g>
	<path id="_x23_999999_15_" class="st0" d="M19.9,479.6c8.6-1.8,14-10.2,12.2-18.8c-1.8-8.6-10.2-14-18.8-12.2
		c-8.6,1.8-14,10.2-12.2,18.8C2.9,475.9,11.3,481.4,19.9,479.6 M19.1,475.7c-6.4,1.4-12.7-2.7-14.1-9.2s2.7-12.7,9.2-14.1
		s12.7,2.7,14.1,9.2C29.6,468,25.5,474.3,19.1,475.7"/>
	<path id="foreground_15_" class="st1" d="M19.9,479.6c-8.6,1.8-17-3.6-18.8-12.2l3.9-0.8c1.4,6.4,7.7,10.5,14.1,9.2L19.9,479.6z"/>
</g>
<g>
	<path id="_x23_999999_16_" class="st0" d="M16.6,511.9c8.7,0,15.8-7.1,15.8-15.8s-7.1-15.8-15.8-15.8s-15.8,7.1-15.8,15.8
		S7.9,511.9,16.6,511.9 M16.6,508c-6.6,0-11.9-5.3-11.9-11.9c0-6.6,5.3-11.9,11.9-11.9s11.9,5.3,11.9,11.9
		C28.5,502.7,23.2,508,16.6,508"/>
	<path id="foreground_16_" class="st1" d="M16.6,511.9c-8.7,0-15.8-7.1-15.8-15.8h4c0,6.6,5.3,11.9,11.9,11.9V511.9z"/>
</g>
<g>
	<path id="_x23_999999_17_" class="st0" d="M13.3,543.6c8.6,1.8,17-3.6,18.8-12.2s-3.6-17-12.2-18.8s-17,3.6-18.8,12.2
		C-0.7,533.4,4.8,541.8,13.3,543.6 M14.1,539.7c-6.4-1.4-10.5-7.7-9.2-14.1s7.7-10.5,14.1-9.2s10.5,7.7,9.2,14.1
		C26.9,537,20.6,541.1,14.1,539.7"/>
	<path id="foreground_17_" class="st1" d="M13.3,543.6c-8.6-1.8-14-10.2-12.2-18.8l3.9,0.8c-1.4,6.4,2.7,12.7,9.2,14.1L13.3,543.6z"
		/>
</g>
<g>
	<path id="_x23_999999_18_" class="st0" d="M10.2,574.6c8,3.6,17.4,0,20.9-8s0-17.4-8-20.9c-8-3.6-17.4,0-20.9,8
		C-1.4,561.7,2.2,571.1,10.2,574.6 M11.8,571c-6-2.7-8.7-9.7-6-15.7s9.7-8.7,15.7-6c6,2.7,8.7,9.7,6,15.7S17.8,573.7,11.8,571"/>
	<path id="foreground_18_" class="st1" d="M10.2,574.6c-8-3.6-11.6-12.9-8-20.9l3.6,1.6c-2.7,6,0,13,6,15.7L10.2,574.6z"/>
</g>
<g>
	<path id="_x23_999999_19_" class="st0" d="M7.3,605c7.1,5.1,17,3.6,22.1-3.5s3.6-17-3.5-22.1c-7.1-5.1-17-3.6-22.1,3.5
		S0.2,599.8,7.3,605 M9.6,601.8c-5.3-3.9-6.5-11.3-2.6-16.6c3.9-5.3,11.3-6.5,16.6-2.6c5.3,3.9,6.5,11.3,2.6,16.6
		S14.9,605.6,9.6,601.8"/>
	<path id="foreground_19_" class="st1" d="M7.3,605c-7.1-5.1-8.6-15-3.5-22.1l3.2,2.3c-3.9,5.3-2.7,12.7,2.6,16.6L7.3,605z"/>
</g>
<g>
	<path id="_x23_999999_20_" class="st0" d="M4.8,634.8c5.9,6.5,15.9,7,22.4,1.2c6.5-5.9,7-15.9,1.2-22.4s-15.9-7-22.4-1.2
		S-1,628.3,4.8,634.8 M7.8,632.1c-4.4-4.9-4-12.4,0.9-16.8s12.4-4,16.8,0.9s4,12.4-0.9,16.8S12.2,637,7.8,632.1"/>
	<path id="foreground_20_" class="st1" d="M4.8,634.8c-5.9-6.5-5.3-16.5,1.2-22.4l2.6,2.9c-4.9,4.4-5.3,11.9-0.9,16.8L4.8,634.8z"/>
</g>
<g>
	<path id="_x23_999999_21_" class="st0" d="M2.9,664.1c4.4,7.6,14.1,10.2,21.6,5.8c7.6-4.4,10.2-14.1,5.8-21.6s-14.1-10.2-21.6-5.8
		S-1.5,656.5,2.9,664.1 M6.3,662.1c-3.3-5.7-1.3-12.9,4.3-16.2s12.9-1.3,16.2,4.3s1.3,12.9-4.3,16.2S9.6,667.8,6.3,662.1"/>
	<path id="foreground_21_" class="st1" d="M2.9,664.1c-4.4-7.6-1.8-17.3,5.8-21.6l2,3.4C5,649.2,3,656.4,6.3,662.1L2.9,664.1z"/>
</g>
<g>
	<path id="_x23_999999_22_" class="st0" d="M1.5,693.1c2.7,8.3,11.6,12.9,20,10.2c8.3-2.7,12.9-11.6,10.2-20s-11.6-12.9-20-10.2
		C3.4,675.8-1.2,684.8,1.5,693.1 M5.3,691.9c-2-6.2,1.4-12.9,7.6-15c6.2-2,12.9,1.4,15,7.6s-1.4,12.9-7.6,15S7.3,698.1,5.3,691.9"/>
	<path id="foreground_22_" class="st1" d="M1.5,693.1c-2.7-8.3,1.8-17.3,10.2-20l1.2,3.8c-6.2,2-9.7,8.7-7.6,15L1.5,693.1z"/>
</g>
<g>
	<path id="_x23_999999_23_" class="st0" d="M0.9,721.9c0.9,8.7,8.7,15,17.4,14.1s15-8.7,14.1-17.4c-0.9-8.7-8.7-15-17.4-14.1
		S-0.1,713.2,0.9,721.9 M4.8,721.5c-0.7-6.5,4-12.4,10.6-13.1c6.5-0.7,12.4,4,13.1,10.6c0.7,6.5-4,12.4-10.6,13.1
		C11.3,732.7,5.5,728,4.8,721.5"/>
	<path id="foreground_23_" class="st1" d="M0.9,721.9c-0.9-8.7,5.4-16.5,14.1-17.4l0.4,3.9c-6.5,0.7-11.3,6.5-10.6,13.1L0.9,721.9z"
		/>
</g>
<g>
	<path id="_x23_999999_24_" class="st0" d="M0.9,750.6c-0.9,8.7,5.4,16.5,14.1,17.4s16.5-5.4,17.4-14.1c0.9-8.7-5.4-16.5-14.1-17.4
		S1.8,741.9,0.9,750.6 M4.8,751c0.7-6.5,6.5-11.3,13.1-10.6c6.5,0.7,11.3,6.5,10.6,13.1c-0.7,6.5-6.5,11.3-13.1,10.6
		C8.8,763.4,4.1,757.5,4.8,751"/>
	<path id="foreground_24_" class="st1" d="M0.9,750.6c0.9-8.7,8.7-15,17.4-14.1l-0.4,3.9c-6.5-0.7-12.4,4-13.1,10.6L0.9,750.6z"/>
</g>
<g>
	<path id="_x23_999999_25_" class="st0" d="M1.5,779.4c-2.7,8.3,1.8,17.3,10.2,20c8.3,2.7,17.3-1.8,20-10.2s-1.8-17.3-10.2-20
		C13.2,766.5,4.2,771,1.5,779.4 M5.3,780.6c2-6.2,8.7-9.7,15-7.6c6.2,2,9.7,8.7,7.6,15c-2,6.2-8.7,9.7-15,7.6
		C6.7,793.5,3.3,786.8,5.3,780.6"/>
	<path id="foreground_25_" class="st1" d="M1.5,779.4c2.7-8.3,11.6-12.9,20-10.2l-1.2,3.8c-6.2-2-12.9,1.4-15,7.6L1.5,779.4z"/>
</g>
<g>
	<path id="_x23_999999_26_" class="st0" d="M2.9,808.4c-4.4,7.6-1.8,17.3,5.8,21.6c7.6,4.4,17.3,1.8,21.6-5.8
		c4.4-7.6,1.8-17.3-5.8-21.6S7.3,800.8,2.9,808.4 M6.3,810.3c3.3-5.7,10.5-7.6,16.2-4.3c5.7,3.3,7.6,10.5,4.3,16.2
		c-3.3,5.7-10.5,7.6-16.2,4.3S3,816,6.3,810.3"/>
	<path id="foreground_26_" class="st1" d="M2.9,808.4c4.4-7.6,14.1-10.2,21.6-5.8l-2,3.4c-5.7-3.3-12.9-1.3-16.2,4.3L2.9,808.4z"/>
</g>
<g>
	<path id="_x23_999999_27_" class="st0" d="M4.8,837.7c-5.9,6.5-5.3,16.5,1.2,22.4c6.5,5.9,16.5,5.3,22.4-1.2
		c5.9-6.5,5.3-16.5-1.2-22.4S10.7,831.2,4.8,837.7 M7.8,840.3c4.4-4.9,11.9-5.3,16.8-0.9s5.3,11.9,0.9,16.8
		c-4.4,4.9-11.9,5.3-16.8,0.9S3.4,845.2,7.8,840.3"/>
	<path id="foreground_27_" class="st1" d="M4.8,837.7c5.9-6.5,15.9-7,22.4-1.2l-2.6,2.9c-4.9-4.4-12.4-4-16.8,0.9L4.8,837.7z"/>
</g>
<g>
	<path id="_x23_999999_28_" class="st0" d="M7.3,867.5c-7.1,5.1-8.6,15-3.5,22.1c5.1,7.1,15,8.6,22.1,3.5c7.1-5.1,8.6-15,3.5-22.1
		C24.3,863.9,14.4,862.4,7.3,867.5 M9.6,870.7c5.3-3.9,12.7-2.7,16.6,2.6c3.9,5.3,2.7,12.7-2.6,16.6c-5.3,3.9-12.7,2.7-16.6-2.6
		C3.1,882,4.3,874.6,9.6,870.7"/>
	<path id="foreground_28_" class="st1" d="M7.3,867.5c7.1-5.1,17-3.6,22.1,3.5l-3.2,2.3c-3.9-5.3-11.3-6.5-16.6-2.6L7.3,867.5z"/>
</g>
<g>
	<path id="_x23_999999_29_" class="st0" d="M10.2,897.9c-8,3.6-11.6,12.9-8,20.9s12.9,11.6,20.9,8c8-3.6,11.6-12.9,8-20.9
		C27.5,897.9,18.2,894.3,10.2,897.9 M11.8,901.5c6-2.7,13,0,15.7,6s0,13-6,15.7s-13,0-15.7-6S5.8,904.1,11.8,901.5"/>
	<path id="foreground_29_" class="st1" d="M10.2,897.9c8-3.6,17.4,0,20.9,8l-3.6,1.6c-2.7-6-9.7-8.7-15.7-6L10.2,897.9z"/>
</g>
<g>
	<path id="_x23_999999_30_" class="st0" d="M13.3,928.9c-8.6,1.8-14,10.2-12.2,18.8s10.2,14,18.8,12.2c8.6-1.8,14-10.2,12.2-18.8
		C30.3,932.5,21.9,927,13.3,928.9 M14.1,932.7c6.4-1.4,12.7,2.7,14.1,9.2c1.4,6.4-2.7,12.7-9.2,14.1S6.4,953.2,5,946.8
		C3.6,940.4,7.7,934.1,14.1,932.7"/>
	<path id="foreground_30_" class="st1" d="M13.3,928.9c8.6-1.8,17,3.6,18.8,12.2l-3.9,0.8c-1.4-6.4-7.7-10.5-14.1-9.2L13.3,928.9z"
		/>
</g>
</svg>
