<?xml version="1.0" encoding="utf-8"?>
<!-- Generator: Adobe Illustrator 19.1.0, SVG Export Plug-In . SVG Version: 6.00 Build 0)  -->
<svg version="1.1" id="Layer_1" xmlns="http://www.w3.org/2000/svg" xmlns:xlink="http://www.w3.org/1999/xlink" x="0px" y="0px"
	 viewBox="0 0 33.2 1012.3" style="enable-background:new 0 0 33.2 1012.3;" xml:space="preserve">
<style type="text/css">
	.st0{opacity:0.25;fill:#989898;enable-background:new    ;}
	.st1{fill:#989898;}
</style>
<g>
	<path id="_x23_999999_1_" class="st0" d="M16.6,0C7.9,0,0.9,7,0.9,15.7s7,15.7,15.7,15.7s15.7-7,15.7-15.7S25.3,0,16.6,0 M16.6,3.9
		c6.5,0,11.8,5.3,11.8,11.8s-5.3,11.8-11.8,11.8S4.8,22.2,4.8,15.7S10.1,3.9,16.6,3.9"/>
	<path id="foreground_1_" class="st1" d="M16.6,0c8.7,0,15.7,7,15.7,15.7h-3.9c0-6.5-5.3-11.8-11.8-11.8V0z"/>
</g>
<g>
	<path id="_x23_999999_2_" class="st0" d="M19.9,34.2c-8.5-1.8-16.8,3.6-18.6,12.1S4.9,63,13.4,64.8c8.5,1.8,16.8-3.6,18.6-12.1
		S28.3,36,19.9,34.2 M19.1,38c6.4,1.4,10.4,7.6,9.1,13.9S20.5,62.4,14.2,61c-6.4-1.4-10.4-7.6-9.1-13.9S12.7,36.7,19.1,38"/>
	<path id="foreground_2_" class="st1" d="M19.9,34.2c8.5,1.8,13.9,10.1,12.1,18.6L28.1,52c1.4-6.4-2.7-12.6-9.1-13.9L19.9,34.2z"/>
</g>
<g>
	<path id="_x23_999999_3_" class="st0" d="M23,69C15.1,65.5,5.8,69,2.3,77s0,17.2,7.9,20.7s17.2,0,20.7-7.9S30.9,72.5,23,69
		 M21.4,72.6c5.9,2.6,8.6,9.6,6,15.5s-9.6,8.6-15.5,6c-5.9-2.6-8.6-9.6-6-15.5C8.5,72.6,15.5,69.9,21.4,72.6"/>
	<path id="foreground_3_" class="st1" d="M23,69c7.9,3.5,11.5,12.8,7.9,20.7l-3.6-1.6c2.6-5.9,0-12.9-6-15.5L23,69z"/>
</g>
<g>
	<path id="_x23_999999_4_" class="st0" d="M25.8,104.5c-7-5.1-16.8-3.5-21.9,3.5s-3.5,16.8,3.5,21.9c7,5.1,16.8,3.5,21.9-3.5
		S32.8,109.6,25.8,104.5 M23.5,107.6c5.3,3.8,6.4,11.2,2.6,16.4s-11.2,6.4-16.4,2.6s-6.4-11.2-2.6-16.4
		C10.9,105,18.3,103.8,23.5,107.6"/>
	<path id="foreground_4_" class="st1" d="M25.8,104.5c7,5.1,8.6,14.9,3.5,21.9l-3.2-2.3c3.8-5.3,2.7-12.6-2.6-16.4L25.8,104.5z"/>
</g>
<g>
	<path id="_x23_999999_5_" class="st0" d="M28.3,140.5c-5.8-6.4-15.7-7-22.1-1.2c-6.4,5.8-7,15.7-1.2,22.1s15.7,7,22.1,1.2
		S34.1,146.9,28.3,140.5 M25.4,143.1c4.3,4.8,4,12.3-0.9,16.6s-12.3,4-16.6-0.9s-4-12.3,0.9-16.6S21,138.3,25.4,143.1"/>
	<path id="foreground_5_" class="st1" d="M28.3,140.5c5.8,6.4,5.3,16.4-1.2,22.1l-2.6-2.9c4.8-4.3,5.2-11.8,0.9-16.6L28.3,140.5z"/>
</g>
<g>
	<path id="_x23_999999_6_" class="st0" d="M30.2,177c-4.3-7.5-13.9-10.1-21.4-5.7c-7.5,4.3-10.1,13.9-5.7,21.4
		c4.3,7.5,13.9,10.1,21.4,5.7S34.5,184.5,30.2,177 M26.8,178.9c3.2,5.6,1.3,12.8-4.3,16.1c-5.6,3.2-12.8,1.3-16.1-4.3
		s-1.3-12.8,4.3-16.1C16.4,171.4,23.5,173.3,26.8,178.9"/>
	<path id="foreground_6_" class="st1" d="M30.2,177c4.3,7.5,1.8,17.1-5.7,21.4l-2-3.4c5.6-3.2,7.6-10.4,4.3-16.1L30.2,177z"/>
</g>
<g>
	<path id="_x23_999999_7_" class="st0" d="M31.5,213.8c-2.7-8.2-11.5-12.7-19.8-10.1C3.5,206.4-1,215.2,1.7,223.5
		c2.7,8.2,11.5,12.7,19.8,10.1C29.7,230.9,34.2,222,31.5,213.8 M27.8,215c2,6.2-1.4,12.8-7.6,14.8s-12.8-1.4-14.8-7.6
		c-2-6.2,1.4-12.8,7.6-14.8C19.2,205.4,25.8,208.8,27.8,215"/>
	<path id="foreground_7_" class="st1" d="M31.5,213.8c2.7,8.2-1.8,17.1-10.1,19.8l-1.2-3.7c6.2-2,9.6-8.6,7.6-14.8L31.5,213.8z"/>
</g>
<g>
	<path id="_x23_999999_8_" class="st0" d="M32.2,250.8c-0.9-8.6-8.6-14.9-17.2-14s-14.9,8.6-14,17.2c0.9,8.6,8.6,14.9,17.2,14
		C26.9,267.2,33.1,259.4,32.2,250.8 M28.3,251.2c0.7,6.5-4,12.2-10.5,12.9c-6.5,0.7-12.2-4-12.9-10.5s4-12.2,10.5-12.9
		S27.6,244.8,28.3,251.2"/>
	<path id="foreground_8_" class="st1" d="M32.2,250.8c0.9,8.6-5.3,16.3-14,17.2l-0.4-3.9c6.5-0.7,11.1-6.5,10.5-12.9L32.2,250.8z"/>
</g>
<g>
	<path id="_x23_999999_9_" class="st0" d="M32.2,287.9c0.9-8.6-5.3-16.3-14-17.2c-8.6-0.9-16.3,5.3-17.2,14
		c-0.9,8.6,5.3,16.3,14,17.2C23.6,302.8,31.3,296.5,32.2,287.9 M28.3,287.5c-0.7,6.5-6.5,11.1-12.9,10.5
		c-6.5-0.7-11.1-6.5-10.5-12.9s6.5-11.1,12.9-10.5C24.3,275.3,29,281.1,28.3,287.5"/>
	<path id="foreground_9_" class="st1" d="M32.2,287.9c-0.9,8.6-8.6,14.9-17.2,14l0.4-3.9c6.5,0.7,12.2-4,12.9-10.5L32.2,287.9z"/>
</g>
<g>
	<path id="_x23_999999_10_" class="st0" d="M31.5,325c2.7-8.2-1.8-17.1-10.1-19.8c-8.2-2.7-17.1,1.8-19.8,10.1
		c-2.7,8.2,1.8,17.1,10.1,19.8S28.8,333.2,31.5,325 M27.8,323.8c-2,6.2-8.6,9.6-14.8,7.6s-9.6-8.6-7.6-14.8s8.6-9.6,14.8-7.6
		S29.8,317.6,27.8,323.8"/>
	<path id="foreground_10_" class="st1" d="M31.5,325c-2.7,8.2-11.5,12.7-19.8,10.1l1.2-3.7c6.2,2,12.8-1.4,14.8-7.6L31.5,325z"/>
</g>
<g>
	<path id="_x23_999999_11_" class="st0" d="M30.2,361.8c4.3-7.5,1.8-17.1-5.7-21.4S7.4,338.6,3,346.1s-1.8,17.1,5.7,21.4
		C16.3,371.9,25.9,369.3,30.2,361.8 M26.8,359.8c-3.2,5.6-10.4,7.6-16.1,4.3c-5.6-3.2-7.6-10.4-4.3-16.1c3.2-5.6,10.4-7.6,16.1-4.3
		S30,354.2,26.8,359.8"/>
	<path id="foreground_11_" class="st1" d="M30.2,361.8c-4.3,7.5-13.9,10.1-21.4,5.7l2-3.4c5.6,3.2,12.8,1.3,16.1-4.3L30.2,361.8z"/>
</g>
<g>
	<path id="_x23_999999_12_" class="st0" d="M28.3,398.3c5.8-6.4,5.3-16.4-1.2-22.1c-6.4-5.8-16.4-5.3-22.1,1.2s-5.3,16.4,1.2,22.1
		C12.6,405.2,22.5,404.7,28.3,398.3 M25.4,395.6c-4.3,4.8-11.8,5.2-16.6,0.9c-4.8-4.3-5.2-11.8-0.9-16.6s11.8-5.2,16.6-0.9
		C29.3,383.4,29.7,390.8,25.4,395.6"/>
	<path id="foreground_12_" class="st1" d="M28.3,398.3c-5.8,6.4-15.7,7-22.1,1.2l2.6-2.9c4.8,4.3,12.3,4,16.6-0.9L28.3,398.3z"/>
</g>
<g>
	<path id="_x23_999999_13_" class="st0" d="M25.8,434.3c7-5.1,8.6-14.9,3.5-21.9s-14.9-8.6-21.9-3.5s-8.6,14.9-3.5,21.9
		C9,437.8,18.8,439.4,25.8,434.3 M23.5,431.1c-5.3,3.8-12.6,2.7-16.4-2.6c-3.8-5.3-2.7-12.6,2.6-16.4c5.3-3.8,12.6-2.7,16.4,2.6
		S28.8,427.3,23.5,431.1"/>
	<path id="foreground_13_" class="st1" d="M25.8,434.3c-7,5.1-16.8,3.5-21.9-3.5l3.2-2.3c3.8,5.3,11.2,6.4,16.4,2.6L25.8,434.3z"/>
</g>
<g>
	<path id="_x23_999999_14_" class="st0" d="M23,469.8c7.9-3.5,11.5-12.8,7.9-20.7c-3.5-7.9-12.8-11.5-20.7-7.9
		c-7.9,3.5-11.5,12.8-7.9,20.7C5.8,469.7,15.1,473.3,23,469.8 M21.4,466.2c-5.9,2.6-12.9,0-15.5-6s0-12.9,6-15.5s12.9,0,15.5,6
		C30,456.6,27.3,463.5,21.4,466.2"/>
	<path id="foreground_14_" class="st1" d="M23,469.8c-7.9,3.5-17.2,0-20.7-7.9l3.6-1.6c2.6,5.9,9.6,8.6,15.5,6L23,469.8z"/>
</g>
<g>
	<path id="_x23_999999_15_" class="st0" d="M19.9,504.6c8.5-1.8,13.9-10.1,12.1-18.6c-1.8-8.5-10.1-13.9-18.6-12.1
		C4.9,475.7-0.5,484,1.3,492.5C3.1,501,11.4,506.4,19.9,504.6 M19.1,500.8c-6.4,1.4-12.6-2.7-13.9-9.1c-1.4-6.4,2.7-12.6,9.1-13.9
		s12.6,2.7,13.9,9.1C29.5,493.2,25.4,499.4,19.1,500.8"/>
	<path id="foreground_15_" class="st1" d="M19.9,504.6c-8.5,1.8-16.8-3.6-18.6-12.1l3.8-0.8c1.4,6.4,7.6,10.4,13.9,9.1L19.9,504.6z"
		/>
</g>
<g>
	<path id="_x23_999999_16_" class="st0" d="M16.6,538.8c8.7,0,15.7-7,15.7-15.7c0-8.7-7-15.7-15.7-15.7s-15.7,7-15.7,15.7
		C0.9,531.7,7.9,538.8,16.6,538.8 M16.6,534.8c-6.5,0-11.8-5.3-11.8-11.8c0-6.5,5.3-11.8,11.8-11.8s11.8,5.3,11.8,11.8
		C28.4,529.6,23.1,534.8,16.6,534.8"/>
	<path id="foreground_16_" class="st1" d="M16.6,538.8c-8.7,0-15.7-7-15.7-15.7h3.9c0,6.5,5.3,11.8,11.8,11.8V538.8z"/>
</g>
<g>
	<path id="_x23_999999_17_" class="st0" d="M13.4,572.2c8.5,1.8,16.8-3.6,18.6-12.1s-3.6-16.8-12.1-18.6s-16.8,3.6-18.6,12.1
		S4.9,570.4,13.4,572.2 M14.2,568.4c-6.4-1.4-10.4-7.6-9.1-13.9c1.4-6.4,7.6-10.4,13.9-9.1c6.4,1.4,10.4,7.6,9.1,13.9
		C26.8,565.7,20.5,569.8,14.2,568.4"/>
	<path id="foreground_17_" class="st1" d="M13.4,572.2c-8.5-1.8-13.9-10.1-12.1-18.6l3.8,0.8c-1.4,6.4,2.7,12.6,9.1,13.9L13.4,572.2
		z"/>
</g>
<g>
	<path id="_x23_999999_18_" class="st0" d="M10.2,605.1c7.9,3.5,17.2,0,20.7-7.9c3.5-7.9,0-17.2-7.9-20.7c-7.9-3.5-17.2,0-20.7,7.9
		C-1.2,592.3,2.3,601.5,10.2,605.1 M11.8,601.5c-5.9-2.6-8.6-9.6-6-15.5s9.6-8.6,15.5-6s8.6,9.6,6,15.5S17.8,604.1,11.8,601.5"/>
	<path id="foreground_18_" class="st1" d="M10.2,605.1c-7.9-3.5-11.5-12.8-7.9-20.7l3.6,1.6c-2.6,5.9,0,12.9,6,15.5L10.2,605.1z"/>
</g>
<g>
	<path id="_x23_999999_19_" class="st0" d="M7.4,637.2c7,5.1,16.8,3.5,21.9-3.5s3.5-16.8-3.5-21.9S9,608.3,3.9,615.3
		S0.4,632.2,7.4,637.2 M9.7,634.1c-5.3-3.8-6.4-11.2-2.6-16.4c3.8-5.3,11.2-6.4,16.4-2.6s6.4,11.2,2.6,16.4
		C22.3,636.7,15,637.9,9.7,634.1"/>
	<path id="foreground_19_" class="st1" d="M7.4,637.2c-7-5.1-8.6-14.9-3.5-21.9l3.2,2.3c-3.8,5.3-2.7,12.6,2.6,16.4L7.4,637.2z"/>
</g>
<g>
	<path id="_x23_999999_20_" class="st0" d="M5,668.9c5.8,6.4,15.7,7,22.1,1.2c6.4-5.8,7-15.7,1.2-22.1c-5.8-6.4-15.7-7-22.1-1.2
		C-0.3,652.5-0.8,662.4,5,668.9 M7.9,666.3c-4.3-4.8-4-12.3,0.9-16.6s12.3-4,16.6,0.9s4,12.3-0.9,16.6S12.2,671.1,7.9,666.3"/>
	<path id="foreground_20_" class="st1" d="M5,668.9c-5.8-6.4-5.3-16.4,1.2-22.1l2.6,2.9c-4.8,4.3-5.2,11.8-0.9,16.6L5,668.9z"/>
</g>
<g>
	<path id="_x23_999999_21_" class="st0" d="M3,700.1c4.3,7.5,13.9,10.1,21.4,5.7c7.5-4.3,10.1-13.9,5.7-21.4
		c-4.3-7.5-13.9-10.1-21.4-5.7C1.3,683-1.3,692.6,3,700.1 M6.4,698.1c-3.2-5.6-1.3-12.8,4.3-16.1c5.6-3.2,12.8-1.3,16.1,4.3
		s1.3,12.8-4.3,16.1C16.9,705.6,9.7,703.7,6.4,698.1"/>
	<path id="foreground_21_" class="st1" d="M3,700.1c-4.3-7.5-1.8-17.1,5.7-21.4l2,3.4c-5.6,3.2-7.6,10.4-4.3,16.1L3,700.1z"/>
</g>
<g>
	<path id="_x23_999999_22_" class="st0" d="M1.7,730.9c2.7,8.2,11.5,12.7,19.8,10.1c8.2-2.7,12.7-11.5,10.1-19.8
		c-2.7-8.2-11.5-12.7-19.8-10.1S-1,722.6,1.7,730.9 M5.4,729.7c-2-6.2,1.4-12.8,7.6-14.8c6.2-2,12.8,1.4,14.8,7.6
		s-1.4,12.8-7.6,14.8C14.1,739.2,7.4,735.8,5.4,729.7"/>
	<path id="foreground_22_" class="st1" d="M1.7,730.9c-2.7-8.2,1.8-17.1,10.1-19.8l1.2,3.7c-6.2,2-9.6,8.6-7.6,14.8L1.7,730.9z"/>
</g>
<g>
	<path id="_x23_999999_23_" class="st0" d="M1,761.5c0.9,8.6,8.6,14.9,17.2,14c8.6-0.9,14.9-8.6,14-17.2c-0.9-8.6-8.6-14.9-17.2-14
		S0.1,752.9,1,761.5 M4.9,761.1c-0.7-6.5,4-12.2,10.5-12.9s12.2,4,12.9,10.5s-4,12.2-10.5,12.9S5.6,767.6,4.9,761.1"/>
	<path id="foreground_23_" class="st1" d="M1,761.5c-0.9-8.6,5.3-16.3,14-17.2l0.4,3.9c-6.5,0.7-11.1,6.5-10.5,12.9L1,761.5z"/>
</g>
<g>
	<path id="_x23_999999_24_" class="st0" d="M1,792.1c-0.9,8.6,5.3,16.3,14,17.2c8.6,0.9,16.3-5.3,17.2-14c0.9-8.6-5.3-16.3-14-17.2
		C9.6,777.2,1.9,783.4,1,792.1 M4.9,792.5c0.7-6.5,6.5-11.1,12.9-10.5c6.5,0.7,11.1,6.5,10.5,12.9c-0.7,6.5-6.5,11.1-12.9,10.5
		S4.2,798.9,4.9,792.5"/>
	<path id="foreground_24_" class="st1" d="M1,792.1c0.9-8.6,8.6-14.9,17.2-14l-0.4,3.9c-6.5-0.7-12.2,4-12.9,10.5L1,792.1z"/>
</g>
<g>
	<path id="_x23_999999_25_" class="st0" d="M1.7,822.7c-2.7,8.2,1.8,17.1,10.1,19.8c8.2,2.7,17.1-1.8,19.8-10.1s-1.8-17.1-10.1-19.8
		C13.2,809.9,4.4,814.4,1.7,822.7 M5.4,823.9c2-6.2,8.6-9.6,14.8-7.6c6.2,2,9.6,8.6,7.6,14.8s-8.6,9.6-14.8,7.6
		C6.8,836.7,3.4,830.1,5.4,823.9"/>
	<path id="foreground_25_" class="st1" d="M1.7,822.7c2.7-8.2,11.5-12.7,19.8-10.1l-1.2,3.7c-6.2-2-12.8,1.4-14.8,7.6L1.7,822.7z"/>
</g>
<g>
	<path id="_x23_999999_26_" class="st0" d="M3,853.5c-4.3,7.5-1.8,17.1,5.7,21.4c7.5,4.3,17.1,1.8,21.4-5.7s1.8-17.1-5.7-21.4
		C17,843.4,7.4,846,3,853.5 M6.4,855.5c3.2-5.6,10.4-7.6,16.1-4.3c5.6,3.2,7.6,10.4,4.3,16.1s-10.4,7.6-16.1,4.3
		C5.1,868.3,3.2,861.1,6.4,855.5"/>
	<path id="foreground_26_" class="st1" d="M3,853.5c4.3-7.5,13.9-10.1,21.4-5.7l-2,3.4c-5.6-3.2-12.8-1.3-16.1,4.3L3,853.5z"/>
</g>
<g>
	<path id="_x23_999999_27_" class="st0" d="M5,884.7c-5.8,6.4-5.3,16.4,1.2,22.1s16.4,5.3,22.1-1.2s5.3-16.4-1.2-22.1
		C20.7,877.7,10.8,878.2,5,884.7 M7.9,887.3c4.3-4.8,11.8-5.2,16.6-0.9s5.2,11.8,0.9,16.6c-4.3,4.8-11.8,5.2-16.6,0.9
		C3.9,899.6,3.5,892.1,7.9,887.3"/>
	<path id="foreground_27_" class="st1" d="M5,884.7c5.8-6.4,15.7-7,22.1-1.2l-2.6,2.9c-4.8-4.3-12.3-4-16.6,0.9L5,884.7z"/>
</g>
<g>
	<path id="_x23_999999_28_" class="st0" d="M7.4,916.3c-7,5.1-8.6,14.9-3.5,21.9c5.1,7,14.9,8.6,21.9,3.5s8.6-14.9,3.5-21.9
		S14.4,911.2,7.4,916.3 M9.7,919.5c5.3-3.8,12.6-2.7,16.4,2.6s2.7,12.6-2.6,16.4s-12.6,2.7-16.4-2.6S4.4,923.3,9.7,919.5"/>
	<path id="foreground_28_" class="st1" d="M7.4,916.3c7-5.1,16.8-3.5,21.9,3.5l-3.2,2.3c-3.8-5.3-11.2-6.4-16.4-2.6L7.4,916.3z"/>
</g>
<g>
	<path id="_x23_999999_29_" class="st0" d="M10.2,948.5c-7.9,3.5-11.5,12.8-7.9,20.7c3.5,7.9,12.8,11.5,20.7,7.9
		c7.9-3.5,11.5-12.8,7.9-20.7S18.1,945,10.2,948.5 M11.8,952.1c5.9-2.6,12.9,0,15.5,6c2.6,5.9,0,12.9-6,15.5s-12.9,0-15.5-6
		S5.9,954.7,11.8,952.1"/>
	<path id="foreground_29_" class="st1" d="M10.2,948.5c7.9-3.5,17.2,0,20.7,7.9l-3.6,1.6c-2.6-5.9-9.6-8.6-15.5-6L10.2,948.5z"/>
</g>
<g>
	<path id="_x23_999999_30_" class="st0" d="M13.4,981.3c-8.5,1.8-13.9,10.1-12.1,18.6c1.8,8.5,10.1,13.9,18.6,12.1
		s13.9-10.1,12.1-18.6S21.8,979.5,13.4,981.3 M14.2,985.1c6.4-1.4,12.6,2.7,13.9,9.1c1.4,6.4-2.7,12.6-9.1,13.9
		c-6.4,1.4-12.6-2.7-13.9-9.1S7.8,986.5,14.2,985.1"/>
	<path id="foreground_30_" class="st1" d="M13.4,981.3c8.5-1.8,16.8,3.6,18.6,12.1l-3.8,0.8c-1.4-6.4-7.6-10.4-13.9-9.1L13.4,981.3z
		"/>
</g>
</svg>
