<?xml version="1.0" encoding="utf-8"?>
<!-- Generator: Adobe Illustrator 19.1.0, SVG Export Plug-In . SVG Version: 6.00 Build 0)  -->
<svg version="1.1" id="Layer_1" xmlns="http://www.w3.org/2000/svg" xmlns:xlink="http://www.w3.org/1999/xlink" x="0px" y="0px"
	 viewBox="0 0 33.2 960.2" style="enable-background:new 0 0 33.2 960.2;" xml:space="preserve">
<style type="text/css">
	.st0{opacity:0.25;fill:#989898;enable-background:new    ;}
	.st1{fill:#989898;}
</style>
<g>
	<path id="_x23_999999_1_" class="st0" d="M16.6,0c-8.8,0-16,7.2-16,16s7.2,16,16,16s16-7.2,16-16S25.4,0,16.6,0 M16.6,4
		c6.6,0,12,5.4,12,12s-5.4,12-12,12s-12-5.4-12-12S10,4,16.6,4"/>
	<path id="foreground_1_" class="st1" d="M16.6,0c8.8,0,16,7.2,16,16h-4c0-6.6-5.4-12-12-12V0z"/>
</g>
<g>
	<path id="_x23_999999_2_" class="st0" d="M19.9,32.4C11.3,30.5,2.8,36,1,44.7s3.7,17.1,12.3,19c8.6,1.8,17.1-3.7,19-12.3
		C34.1,42.7,28.6,34.2,19.9,32.4 M19.1,36.3c6.5,1.4,10.6,7.8,9.2,14.2C27,57,20.6,61.1,14.1,59.7C7.6,58.4,3.5,52,4.9,45.5
		S12.6,34.9,19.1,36.3"/>
	<path id="foreground_2_" class="st1" d="M19.9,32.4c8.6,1.8,14.2,10.3,12.3,19l-3.9-0.8c1.4-6.5-2.8-12.9-9.2-14.2L19.9,32.4z"/>
</g>
<g>
	<path id="_x23_999999_3_" class="st0" d="M23.1,65.4C15,61.8,5.6,65.4,2,73.5S2,91,10.1,94.6c8.1,3.6,17.5,0,21.1-8.1
		S31.2,69,23.1,65.4 M21.5,69.1c6.1,2.7,8.8,9.8,6.1,15.8c-2.7,6.1-9.8,8.8-15.8,6.1C5.7,88.3,3,81.2,5.6,75.1
		C8.3,69.1,15.4,66.4,21.5,69.1"/>
	<path id="foreground_3_" class="st1" d="M23.1,65.4c8.1,3.6,11.7,13.1,8.1,21.1l-3.7-1.6c2.7-6.1,0-13.1-6.1-15.8L23.1,65.4z"/>
</g>
<g>
	<path id="_x23_999999_4_" class="st0" d="M26,99.1c-7.1-5.2-17.2-3.6-22.3,3.5S0.1,119.8,7.2,125c7.1,5.2,17.2,3.6,22.3-3.5
		S33.2,104.3,26,99.1 M23.7,102.3c5.4,3.9,6.6,11.4,2.7,16.8s-11.4,6.6-16.8,2.7C4.2,117.8,3,110.3,6.9,105S18.3,98.4,23.7,102.3"/>
	<path id="foreground_4_" class="st1" d="M26,99.1c7.1,5.2,8.7,15.2,3.5,22.3l-3.2-2.4c3.9-5.4,2.7-12.9-2.7-16.8L26,99.1z"/>
</g>
<g>
	<path id="_x23_999999_5_" class="st0" d="M28.5,133.3c-5.9-6.6-16-7.1-22.6-1.2c-6.6,5.9-7.1,16-1.2,22.6c5.9,6.6,16,7.1,22.6,1.2
		S34.4,139.9,28.5,133.3 M25.5,136c4.4,4.9,4,12.5-0.9,16.9c-4.9,4.4-12.5,4-16.9-0.9c-4.4-4.9-4-12.5,0.9-16.9
		C13.5,130.7,21.1,131.1,25.5,136"/>
	<path id="foreground_5_" class="st1" d="M28.5,133.3c5.9,6.6,5.4,16.7-1.2,22.6l-2.7-3c4.9-4.4,5.3-12,0.9-16.9L28.5,133.3z"/>
</g>
<g>
	<path id="_x23_999999_6_" class="st0" d="M30.5,168c-4.4-7.7-14.2-10.3-21.9-5.9S-1.7,176.4,2.8,184c4.4,7.7,14.2,10.3,21.9,5.9
		S34.9,175.7,30.5,168 M27,170c3.3,5.7,1.3,13.1-4.4,16.4c-5.7,3.3-13.1,1.3-16.4-4.4c-3.3-5.7-1.3-13.1,4.4-16.4
		C16.4,162.3,23.7,164.3,27,170"/>
	<path id="foreground_6_" class="st1" d="M30.5,168c4.4,7.7,1.8,17.4-5.9,21.9l-2-3.5c5.7-3.3,7.7-10.7,4.4-16.4L30.5,168z"/>
</g>
<g>
	<path id="_x23_999999_7_" class="st0" d="M31.8,203.1c-2.7-8.4-11.8-13-20.2-10.3s-13,11.8-10.3,20.2s11.8,13,20.2,10.3
		S34.6,211.5,31.8,203.1 M28,204.3c2,6.3-1.4,13.1-7.7,15.1c-6.3,2-13.1-1.4-15.1-7.7c-2-6.3,1.4-13.1,7.7-15.1
		C19.2,194.6,26,198,28,204.3"/>
	<path id="foreground_7_" class="st1" d="M31.8,203.1c2.7,8.4-1.9,17.4-10.3,20.2l-1.2-3.8c6.3-2,9.8-8.8,7.7-15.1L31.8,203.1z"/>
</g>
<g>
	<path id="_x23_999999_8_" class="st0" d="M32.5,238.4c-0.9-8.8-8.8-15.2-17.6-14.2c-8.8,0.9-15.2,8.8-14.2,17.6
		c0.9,8.8,8.8,15.2,17.6,14.2C27.1,255,33.4,247.2,32.5,238.4 M28.5,238.8c0.7,6.6-4.1,12.5-10.7,13.2c-6.6,0.7-12.5-4.1-13.2-10.7
		s4.1-12.5,10.7-13.2C21.9,227.4,27.9,232.2,28.5,238.8"/>
	<path id="foreground_8_" class="st1" d="M32.5,238.4c0.9,8.8-5.5,16.7-14.2,17.6l-0.4-4c6.6-0.7,11.4-6.6,10.7-13.2L32.5,238.4z"/>
</g>
<g>
	<path id="_x23_999999_9_" class="st0" d="M32.5,273.7c0.9-8.8-5.5-16.7-14.2-17.6s-16.7,5.5-17.6,14.2S6.2,287,14.9,288
		S31.6,282.5,32.5,273.7 M28.5,273.3c-0.7,6.6-6.6,11.4-13.2,10.7S4,277.4,4.7,270.8c0.7-6.6,6.6-11.4,13.2-10.7
		S29.2,266.7,28.5,273.3"/>
	<path id="foreground_9_" class="st1" d="M32.5,273.7c-0.9,8.8-8.8,15.2-17.6,14.2l0.4-4c6.6,0.7,12.5-4.1,13.2-10.7L32.5,273.7z"/>
</g>
<g>
	<path id="_x23_999999_10_" class="st0" d="M31.8,309c2.7-8.4-1.9-17.4-10.3-20.2s-17.4,1.9-20.2,10.3c-2.7,8.4,1.9,17.4,10.3,20.2
		S29.1,317.4,31.8,309 M28,307.8c-2,6.3-8.8,9.8-15.1,7.7s-9.8-8.8-7.7-15.1s8.8-9.8,15.1-7.7C26.6,294.7,30.1,301.5,28,307.8"/>
	<path id="foreground_10_" class="st1" d="M31.8,309c-2.7,8.4-11.8,13-20.2,10.3l1.2-3.8c6.3,2,13.1-1.4,15.1-7.7L31.8,309z"/>
</g>
<g>
	<path id="_x23_999999_11_" class="st0" d="M30.5,344.1c4.4-7.7,1.8-17.4-5.9-21.9s-17.4-1.8-21.9,5.9c-4.4,7.7-1.8,17.4,5.9,21.9
		S26,351.7,30.5,344.1 M27,342.1c-3.3,5.7-10.7,7.7-16.4,4.4c-5.7-3.3-7.7-10.7-4.4-16.4c3.3-5.7,10.7-7.7,16.4-4.4
		C28.4,329,30.3,336.3,27,342.1"/>
	<path id="foreground_11_" class="st1" d="M30.5,344.1c-4.4,7.7-14.2,10.3-21.9,5.9l2-3.5c5.7,3.3,13.1,1.3,16.4-4.4L30.5,344.1z"/>
</g>
<g>
	<path id="_x23_999999_12_" class="st0" d="M28.5,378.8c5.9-6.6,5.4-16.7-1.2-22.6s-16.7-5.4-22.6,1.2c-5.9,6.6-5.4,16.7,1.2,22.6
		S22.6,385.3,28.5,378.8 M25.5,376.1c-4.4,4.9-12,5.3-16.9,0.9S3.3,365,7.7,360s12-5.3,16.9-0.9C29.6,363.6,30,371.2,25.5,376.1"/>
	<path id="foreground_12_" class="st1" d="M28.5,378.8c-5.9,6.6-16,7.1-22.6,1.2l2.7-3c4.9,4.4,12.5,4,16.9-0.9L28.5,378.8z"/>
</g>
<g>
	<path id="_x23_999999_13_" class="st0" d="M26,413c7.1-5.2,8.7-15.2,3.5-22.3s-15.2-8.7-22.3-3.5s-8.7,15.2-3.5,22.3
		S18.9,418.2,26,413 M23.7,409.8c-5.4,3.9-12.9,2.7-16.8-2.7s-2.7-12.9,2.7-16.8c5.4-3.9,12.9-2.7,16.8,2.7S29,405.9,23.7,409.8"/>
	<path id="foreground_13_" class="st1" d="M26,413c-7.1,5.2-17.2,3.6-22.3-3.5l3.2-2.4c3.9,5.4,11.4,6.6,16.8,2.7L26,413z"/>
</g>
<g>
	<path id="_x23_999999_14_" class="st0" d="M23.1,446.7c8.1-3.6,11.7-13.1,8.1-21.1s-13.1-11.7-21.1-8.1S-1.6,430.5,2,438.6
		C5.6,446.7,15,450.3,23.1,446.7 M21.5,443c-6.1,2.7-13.1,0-15.8-6.1s0-13.1,6.1-15.8c6.1-2.7,13.1,0,15.8,6.1S27.5,440.4,21.5,443"
		/>
	<path id="foreground_14_" class="st1" d="M23.1,446.7c-8.1,3.6-17.5,0-21.1-8.1l3.7-1.6c2.7,6.1,9.8,8.8,15.8,6.1L23.1,446.7z"/>
</g>
<g>
	<path id="_x23_999999_15_" class="st0" d="M19.9,479.7c8.6-1.8,14.2-10.3,12.3-19c-1.8-8.6-10.3-14.2-19-12.3
		c-8.6,1.8-14.2,10.3-12.3,19S11.3,481.6,19.9,479.7 M19.1,475.8c-6.5,1.4-12.9-2.8-14.2-9.2c-1.4-6.5,2.8-12.9,9.2-14.2
		c6.5-1.4,12.9,2.8,14.2,9.2C29.7,468.1,25.6,474.5,19.1,475.8"/>
	<path id="foreground_15_" class="st1" d="M19.9,479.7c-8.6,1.8-17.1-3.7-19-12.3l3.9-0.8c1.4,6.5,7.8,10.6,14.2,9.2L19.9,479.7z"/>
</g>
<g>
	<path id="_x23_999999_16_" class="st0" d="M16.6,512.1c8.8,0,16-7.2,16-16c0-8.8-7.2-16-16-16s-16,7.2-16,16
		C0.6,504.9,7.8,512.1,16.6,512.1 M16.6,508.1c-6.6,0-12-5.4-12-12s5.4-12,12-12s12,5.4,12,12S23.2,508.1,16.6,508.1"/>
	<path id="foreground_16_" class="st1" d="M16.6,512.1c-8.8,0-16-7.2-16-16h4c0,6.6,5.4,12,12,12V512.1z"/>
</g>
<g>
	<path id="_x23_999999_17_" class="st0" d="M13.3,543.8c8.6,1.8,17.1-3.7,19-12.3c1.8-8.6-3.7-17.1-12.3-19
		c-8.6-1.8-17.1,3.7-19,12.3C-0.9,533.4,4.6,541.9,13.3,543.8 M14.1,539.8c-6.5-1.4-10.6-7.8-9.2-14.2s7.8-10.6,14.2-9.2
		c6.5,1.4,10.6,7.8,9.2,14.2S20.6,541.2,14.1,539.8"/>
	<path id="foreground_17_" class="st1" d="M13.3,543.8c-8.6-1.8-14.2-10.3-12.3-19l3.9,0.8c-1.4,6.5,2.8,12.9,9.2,14.2L13.3,543.8z"
		/>
</g>
<g>
	<path id="_x23_999999_18_" class="st0" d="M10.1,574.7c8.1,3.6,17.5,0,21.1-8.1c3.6-8.1,0-17.5-8.1-21.1c-8.1-3.6-17.5,0-21.1,8.1
		S2,571.1,10.1,574.7 M11.7,571.1c-6.1-2.7-8.8-9.8-6.1-15.8s9.8-8.8,15.8-6.1s8.8,9.8,6.1,15.8S17.8,573.8,11.7,571.1"/>
	<path id="foreground_18_" class="st1" d="M10.1,574.7C2,571.1-1.6,561.7,2,553.6l3.7,1.6c-2.7,6.1,0,13.1,6.1,15.8L10.1,574.7z"/>
</g>
<g>
	<path id="_x23_999999_19_" class="st0" d="M7.2,605.1c7.1,5.2,17.2,3.6,22.3-3.5s3.6-17.2-3.5-22.3c-7.1-5.2-17.2-3.6-22.3,3.5
		S0.1,599.9,7.2,605.1 M9.6,601.8c-5.4-3.9-6.6-11.4-2.7-16.8s11.4-6.6,16.8-2.7s6.6,11.4,2.7,16.8S14.9,605.7,9.6,601.8"/>
	<path id="foreground_19_" class="st1" d="M7.2,605.1c-7.1-5.2-8.7-15.2-3.5-22.3l3.2,2.4c-3.9,5.4-2.7,12.9,2.7,16.8L7.2,605.1z"/>
</g>
<g>
	<path id="_x23_999999_20_" class="st0" d="M4.7,634.8c5.9,6.6,16,7.1,22.6,1.2c6.6-5.9,7.1-16,1.2-22.6s-16-7.1-22.6-1.2
		C-0.7,618.1-1.2,628.3,4.7,634.8 M7.7,632.2c-4.4-4.9-4-12.5,0.9-16.9c4.9-4.4,12.5-4,16.9,0.9c4.4,4.9,4,12.5-0.9,16.9
		S12.1,637.1,7.7,632.2"/>
	<path id="foreground_20_" class="st1" d="M4.7,634.8c-5.9-6.6-5.4-16.7,1.2-22.6l2.7,3c-4.9,4.4-5.3,12-0.9,16.9L4.7,634.8z"/>
</g>
<g>
	<path id="_x23_999999_21_" class="st0" d="M2.8,664.1c4.4,7.7,14.2,10.3,21.9,5.9s10.3-14.2,5.9-21.9c-4.4-7.7-14.2-10.3-21.9-5.9
		S-1.7,656.5,2.8,664.1 M6.2,662.1c-3.3-5.7-1.3-13.1,4.4-16.4s13.1-1.3,16.4,4.4c3.3,5.7,1.3,13.1-4.4,16.4S9.5,667.9,6.2,662.1"/>
	<path id="foreground_21_" class="st1" d="M2.8,664.1c-4.4-7.7-1.8-17.4,5.9-21.9l2,3.5c-5.7,3.3-7.7,10.7-4.4,16.4L2.8,664.1z"/>
</g>
<g>
	<path id="_x23_999999_22_" class="st0" d="M1.4,693.1c2.7,8.4,11.8,13,20.2,10.3s13-11.8,10.3-20.2s-11.8-13-20.2-10.3
		S-1.3,684.7,1.4,693.1 M5.2,691.8c-2-6.3,1.4-13.1,7.7-15.1s13.1,1.4,15.1,7.7s-1.4,13.1-7.7,15.1C14,701.6,7.2,698.1,5.2,691.8"/>
	<path id="foreground_22_" class="st1" d="M1.4,693.1c-2.7-8.4,1.9-17.4,10.3-20.2l1.2,3.8c-6.3,2-9.8,8.8-7.7,15.1L1.4,693.1z"/>
</g>
<g>
	<path id="_x23_999999_23_" class="st0" d="M0.7,721.8c0.9,8.8,8.8,15.2,17.6,14.2c8.8-0.9,15.2-8.8,14.2-17.6
		c-0.9-8.8-8.8-15.2-17.6-14.2C6.2,705.2-0.2,713,0.7,721.8 M4.7,721.4c-0.7-6.6,4.1-12.5,10.7-13.2s12.5,4.1,13.2,10.7
		c0.7,6.6-4.1,12.5-10.7,13.2S5.4,728,4.7,721.4"/>
	<path id="foreground_23_" class="st1" d="M0.7,721.8c-0.9-8.8,5.5-16.7,14.2-17.6l0.4,4c-6.6,0.7-11.4,6.6-10.7,13.2L0.7,721.8z"/>
</g>
<g>
	<path id="_x23_999999_24_" class="st0" d="M0.7,750.5c-0.9,8.8,5.5,16.7,14.2,17.6c8.8,0.9,16.7-5.5,17.6-14.2
		c0.9-8.8-5.5-16.7-14.2-17.6C9.5,735.3,1.6,741.7,0.7,750.5 M4.7,750.9c0.7-6.6,6.6-11.4,13.2-10.7s11.4,6.6,10.7,13.2
		c-0.7,6.6-6.6,11.4-13.2,10.7S4,757.5,4.7,750.9"/>
	<path id="foreground_24_" class="st1" d="M0.7,750.5c0.9-8.8,8.8-15.2,17.6-14.2l-0.4,4c-6.6-0.7-12.5,4.1-13.2,10.7L0.7,750.5z"/>
</g>
<g>
	<path id="_x23_999999_25_" class="st0" d="M1.4,779.2c-2.7,8.4,1.9,17.4,10.3,20.2s17.4-1.9,20.2-10.3s-1.9-17.4-10.3-20.2
		S4.1,770.8,1.4,779.2 M5.2,780.4c2-6.3,8.8-9.8,15.1-7.7s9.8,8.8,7.7,15.1s-8.8,9.8-15.1,7.7S3.1,786.8,5.2,780.4"/>
	<path id="foreground_25_" class="st1" d="M1.4,779.2c2.7-8.4,11.8-13,20.2-10.3l-1.2,3.8c-6.3-2-13.1,1.4-15.1,7.7L1.4,779.2z"/>
</g>
<g>
	<path id="_x23_999999_26_" class="st0" d="M2.8,808.2c-4.4,7.7-1.8,17.4,5.9,21.9s17.4,1.8,21.9-5.9c4.4-7.7,1.8-17.4-5.9-21.9
		S7.2,800.5,2.8,808.2 M6.2,810.2c3.3-5.7,10.7-7.7,16.4-4.4s7.7,10.7,4.4,16.4c-3.3,5.7-10.7,7.7-16.4,4.4S2.9,815.9,6.2,810.2"/>
	<path id="foreground_26_" class="st1" d="M2.8,808.2c4.4-7.7,14.2-10.3,21.9-5.9l-2,3.5c-5.7-3.3-13.1-1.3-16.4,4.4L2.8,808.2z"/>
</g>
<g>
	<path id="_x23_999999_27_" class="st0" d="M4.7,837.5c-5.9,6.6-5.4,16.7,1.2,22.6c6.6,5.9,16.7,5.4,22.6-1.2s5.4-16.7-1.2-22.6
		C20.7,830.4,10.6,830.9,4.7,837.5 M7.7,840.1c4.4-4.9,12-5.3,16.9-0.9s5.3,12,0.9,16.9c-4.4,4.9-12,5.3-16.9,0.9
		C3.7,852.7,3.3,845.1,7.7,840.1"/>
	<path id="foreground_27_" class="st1" d="M4.7,837.5c5.9-6.6,16-7.1,22.6-1.2l-2.7,3c-4.9-4.4-12.5-4-16.9,0.9L4.7,837.5z"/>
</g>
<g>
	<path id="_x23_999999_28_" class="st0" d="M7.2,867.2c-7.1,5.2-8.7,15.2-3.5,22.3s15.2,8.7,22.3,3.5c7.1-5.2,8.7-15.2,3.5-22.3
		C24.4,863.6,14.4,862,7.2,867.2 M9.6,870.5c5.4-3.9,12.9-2.7,16.8,2.7s2.7,12.9-2.7,16.8s-12.9,2.7-16.8-2.7S4.2,874.4,9.6,870.5"
		/>
	<path id="foreground_28_" class="st1" d="M7.2,867.2c7.1-5.2,17.2-3.6,22.3,3.5l-3.2,2.4c-3.9-5.4-11.4-6.6-16.8-2.7L7.2,867.2z"/>
</g>
<g>
	<path id="_x23_999999_29_" class="st0" d="M10.1,897.6C2,901.2-1.6,910.6,2,918.7s13.1,11.7,21.1,8.1s11.7-13.1,8.1-21.1
		S18.2,894,10.1,897.6 M11.7,901.2c6.1-2.7,13.1,0,15.8,6.1s0,13.1-6.1,15.8s-13.1,0-15.8-6.1S5.7,903.9,11.7,901.2"/>
	<path id="foreground_29_" class="st1" d="M10.1,897.6c8.1-3.6,17.5,0,21.1,8.1l-3.7,1.6c-2.7-6.1-9.8-8.8-15.8-6.1L10.1,897.6z"/>
</g>
<g>
	<path id="_x23_999999_30_" class="st0" d="M13.3,928.5c-8.6,1.8-14.2,10.3-12.3,19s10.3,14.2,19,12.3s14.2-10.3,12.3-19
		C30.4,932.2,21.9,926.7,13.3,928.5 M14.1,932.5c6.5-1.4,12.9,2.8,14.2,9.2s-2.8,12.9-9.2,14.2s-12.9-2.8-14.2-9.2
		S7.6,933.8,14.1,932.5"/>
	<path id="foreground_30_" class="st1" d="M13.3,928.5c8.6-1.8,17.1,3.7,19,12.3l-3.9,0.8c-1.4-6.5-7.8-10.6-14.2-9.2L13.3,928.5z"
		/>
</g>
</svg>
