<?xml version="1.0" encoding="utf-8"?>
<!-- Generator: Adobe Illustrator 19.1.0, SVG Export Plug-In . SVG Version: 6.00 Build 0)  -->
<svg version="1.1" id="Layer_1" xmlns="http://www.w3.org/2000/svg" xmlns:xlink="http://www.w3.org/1999/xlink" x="0px" y="0px"
	 viewBox="0 0 44.7 968.6" style="enable-background:new 0 0 44.7 968.6;" xml:space="preserve">
<style type="text/css">
	.st0{opacity:0.25;fill:#989898;enable-background:new    ;}
	.st1{fill:#989898;}
</style>
<path id="_x23_999999_1_" class="st0" d="M23.2,4c-8.8,0-16,7.2-16,16s7.2,16,16,16s16-7.2,16-16S32.1,4,23.2,4 M23.2,8
	c6.6,0,12,5.4,12,12s-5.4,12-12,12s-12-5.4-12-12S16.6,8,23.2,8"/>
<path id="foreground_1_" class="st1" d="M23.2,4c8.8,0,16,7.2,16,16h-4c0-6.6-5.4-12-12-12V4z"/>
<path id="_x23_999999_2_" class="st0" d="M26.5,36.3c-8.6-1.8-17.1,3.7-19,12.3s3.7,17.1,12.3,19c8.6,1.8,17.1-3.7,19-12.3
	S35.2,38.2,26.5,36.3 M25.7,40.3c6.5,1.4,10.6,7.8,9.2,14.2c-1.4,6.5-7.8,10.6-14.2,9.2c-6.5-1.4-10.6-7.8-9.2-14.2
	S19.2,38.9,25.7,40.3"/>
<path id="foreground_2_" class="st1" d="M26.5,36.3c8.6,1.8,14.2,10.3,12.3,19L35,54.5c1.4-6.5-2.8-12.9-9.2-14.2L26.5,36.3z"/>
<path id="_x23_999999_3_" class="st0" d="M29.7,69.4c-8.1-3.6-17.5,0-21.1,8.1s0,17.5,8.1,21.1s17.5,0,21.1-8.1
	C41.4,82.4,37.8,73,29.7,69.4 M28.1,73c6.1,2.7,8.8,9.8,6.1,15.8c-2.7,6.1-9.8,8.8-15.8,6.1s-8.8-9.8-6.1-15.8
	C15,73.1,22,70.3,28.1,73"/>
<path id="foreground_3_" class="st1" d="M29.7,69.4c8.1,3.6,11.7,13.1,8.1,21.1l-3.7-1.6c2.7-6.1,0-13.1-6.1-15.8L29.7,69.4z"/>
<path id="_x23_999999_4_" class="st0" d="M32.6,103.1c-7.1-5.2-17.2-3.6-22.3,3.5c-5.2,7.1-3.6,17.2,3.5,22.3
	c7.1,5.2,17.2,3.6,22.3-3.5S39.8,108.2,32.6,103.1 M30.3,106.3c5.4,3.9,6.6,11.4,2.7,16.8c-3.9,5.4-11.4,6.6-16.8,2.7
	s-6.6-11.4-2.7-16.8C17.4,103.6,24.9,102.4,30.3,106.3"/>
<path id="foreground_4_" class="st1" d="M32.6,103.1c7.1,5.2,8.7,15.2,3.5,22.3l-3.2-2.4c3.9-5.4,2.7-12.9-2.7-16.8L32.6,103.1z"/>
<path id="_x23_999999_5_" class="st0" d="M35.1,137.3c-5.9-6.6-16-7.1-22.6-1.2s-7.1,16-1.2,22.6c5.9,6.6,16,7.1,22.6,1.2
	S41,143.9,35.1,137.3 M32.1,140c4.4,4.9,4,12.5-0.9,16.9c-4.9,4.4-12.5,4-16.9-0.9c-4.4-4.9-4-12.5,0.9-16.9S27.7,135,32.1,140"/>
<path id="foreground_5_" class="st1" d="M35.1,137.3c5.9,6.6,5.4,16.7-1.2,22.6l-2.7-3c4.9-4.4,5.3-12,0.9-16.9L35.1,137.3z"/>
<path id="_x23_999999_6_" class="st0" d="M37.1,172c-4.4-7.7-14.2-10.3-21.9-5.9S4.9,180.3,9.4,188c4.4,7.7,14.2,10.3,21.9,5.9
	S41.5,179.7,37.1,172 M33.6,174c3.3,5.7,1.3,13.1-4.4,16.4c-5.7,3.3-13.1,1.3-16.4-4.4c-3.3-5.7-1.3-13.1,4.4-16.4
	C23,166.3,30.3,168.3,33.6,174"/>
<path id="foreground_6_" class="st1" d="M37.1,172c4.4,7.7,1.8,17.4-5.9,21.9l-2-3.5c5.7-3.3,7.7-10.7,4.4-16.4L37.1,172z"/>
<path id="_x23_999999_7_" class="st0" d="M38.4,207.1c-2.7-8.4-11.8-13-20.2-10.3c-8.4,2.7-13,11.8-10.3,20.2s11.8,13,20.2,10.3
	C36.6,224.5,41.2,215.5,38.4,207.1 M34.6,208.3c2,6.3-1.4,13.1-7.7,15.1c-6.3,2-13.1-1.4-15.1-7.7s1.4-13.1,7.7-15.1
	S32.6,202,34.6,208.3"/>
<path id="foreground_7_" class="st1" d="M38.4,207.1c2.7,8.4-1.9,17.4-10.3,20.2l-1.2-3.8c6.3-2,9.8-8.8,7.7-15.1L38.4,207.1z"/>
<path id="_x23_999999_8_" class="st0" d="M39.1,242.3c-0.9-8.8-8.8-15.2-17.6-14.2s-15.2,8.8-14.2,17.6s8.8,15.2,17.6,14.2
	S40.1,251.1,39.1,242.3 M35.2,242.7c0.7,6.6-4.1,12.5-10.7,13.2c-6.6,0.7-12.5-4.1-13.2-10.7s4.1-12.5,10.7-13.2
	S34.5,236.2,35.2,242.7"/>
<path id="foreground_8_" class="st1" d="M39.1,242.3c0.9,8.8-5.5,16.7-14.2,17.6l-0.4-4c6.6-0.7,11.4-6.6,10.7-13.2L39.1,242.3z"/>
<path id="_x23_999999_9_" class="st0" d="M39.1,277.7c0.9-8.8-5.5-16.7-14.2-17.6s-16.7,5.5-17.6,14.2c-0.9,8.8,5.5,16.7,14.2,17.6
	C30.3,292.8,38.2,286.5,39.1,277.7 M35.2,277.3c-0.7,6.6-6.6,11.4-13.2,10.7c-6.6-0.7-11.4-6.6-10.7-13.2
	c0.7-6.6,6.6-11.4,13.2-10.7S35.8,270.7,35.2,277.3"/>
<path id="foreground_9_" class="st1" d="M39.1,277.7c-0.9,8.8-8.8,15.2-17.6,14.2l0.4-4c6.6,0.7,12.5-4.1,13.2-10.7L39.1,277.7z"/>
<path id="_x23_999999_10_" class="st0" d="M38.4,312.9c2.7-8.4-1.9-17.4-10.3-20.2S10.7,294.7,8,303.1c-2.7,8.4,1.9,17.4,10.3,20.2
	S35.7,321.3,38.4,312.9 M34.6,311.7c-2,6.3-8.8,9.8-15.1,7.7c-6.3-2-9.8-8.8-7.7-15.1s8.8-9.8,15.1-7.7S36.7,305.4,34.6,311.7"/>
<path id="foreground_10_" class="st1" d="M38.4,312.9c-2.7,8.4-11.8,13-20.2,10.3l1.2-3.8c6.3,2,13.1-1.4,15.1-7.7L38.4,312.9z"/>
<path id="_x23_999999_11_" class="st0" d="M37.1,348c4.4-7.7,1.8-17.4-5.9-21.9c-7.7-4.4-17.4-1.8-21.9,5.9s-1.8,17.4,5.9,21.9
	S32.7,355.7,37.1,348 M33.6,346c-3.3,5.7-10.7,7.7-16.4,4.4c-5.7-3.3-7.7-10.7-4.4-16.4c3.3-5.7,10.7-7.7,16.4-4.4
	C35,332.9,36.9,340.3,33.6,346"/>
<path id="foreground_11_" class="st1" d="M37.1,348c-4.4,7.7-14.2,10.3-21.9,5.9l2-3.5c5.7,3.3,13.1,1.3,16.4-4.4L37.1,348z"/>
<path id="_x23_999999_12_" class="st0" d="M35.1,382.7c5.9-6.6,5.4-16.7-1.2-22.6s-16.7-5.4-22.6,1.2s-5.4,16.7,1.2,22.6
	S29.2,389.3,35.1,382.7 M32.1,380c-4.4,4.9-12,5.3-16.9,0.9c-4.9-4.4-5.3-12-0.9-16.9c4.4-4.9,12-5.3,16.9-0.9
	C36.2,367.5,36.6,375.1,32.1,380"/>
<path id="foreground_12_" class="st1" d="M35.1,382.7c-5.9,6.6-16,7.1-22.6,1.2l2.7-3c4.9,4.4,12.5,4,16.9-0.9L35.1,382.7z"/>
<path id="_x23_999999_13_" class="st0" d="M32.6,416.9c7.1-5.2,8.7-15.2,3.5-22.3s-15.2-8.7-22.3-3.5s-8.7,15.2-3.5,22.3
	S25.5,422.1,32.6,416.9 M30.3,413.7c-5.4,3.9-12.9,2.7-16.8-2.7c-3.9-5.4-2.7-12.9,2.7-16.8c5.4-3.9,12.9-2.7,16.8,2.7
	S35.6,409.8,30.3,413.7"/>
<path id="foreground_13_" class="st1" d="M32.6,416.9c-7.1,5.2-17.2,3.6-22.3-3.5l3.2-2.4c3.9,5.4,11.4,6.6,16.8,2.7L32.6,416.9z"/>
<path id="_x23_999999_14_" class="st0" d="M29.7,450.6c8.1-3.6,11.7-13.1,8.1-21.1c-3.6-8.1-13.1-11.7-21.1-8.1S5,434.4,8.6,442.5
	S21.7,454.2,29.7,450.6 M28.1,447c-6.1,2.7-13.1,0-15.8-6.1s0-13.1,6.1-15.8s13.1,0,15.8,6.1C36.9,437.2,34.2,444.3,28.1,447"/>
<path id="foreground_14_" class="st1" d="M29.7,450.6c-8.1,3.6-17.5,0-21.1-8.1l3.7-1.6c2.7,6.1,9.8,8.8,15.8,6.1L29.7,450.6z"/>
<path id="_x23_999999_15_" class="st0" d="M26.5,483.7c8.6-1.8,14.2-10.3,12.3-19s-10.3-14.2-19-12.3c-8.6,1.8-14.2,10.3-12.3,19
	S17.9,485.5,26.5,483.7 M25.7,479.7c-6.5,1.4-12.9-2.8-14.2-9.2c-1.4-6.5,2.8-12.9,9.2-14.2c6.5-1.4,12.9,2.8,14.2,9.2
	C36.3,472,32.2,478.4,25.7,479.7"/>
<path id="foreground_15_" class="st1" d="M26.5,483.7c-8.6,1.8-17.1-3.7-19-12.3l3.9-0.8c1.4,6.5,7.8,10.6,14.2,9.2L26.5,483.7z"/>
<path id="_x23_999999_16_" class="st0" d="M23.2,516c8.8,0,16-7.2,16-16c0-8.8-7.2-16-16-16s-16,7.2-16,16
	C7.2,508.8,14.4,516,23.2,516 M23.2,512c-6.6,0-12-5.4-12-12c0-6.6,5.4-12,12-12s12,5.4,12,12C35.2,506.6,29.8,512,23.2,512"/>
<path id="foreground_16_" class="st1" d="M23.2,516c-8.8,0-16-7.2-16-16h4c0,6.6,5.4,12,12,12V516z"/>
<path id="_x23_999999_17_" class="st0" d="M19.9,547.7c8.6,1.8,17.1-3.7,19-12.3c1.8-8.6-3.7-17.1-12.3-19s-17.1,3.7-19,12.3
	C5.7,537.3,11.3,545.8,19.9,547.7 M20.7,543.7c-6.5-1.4-10.6-7.8-9.2-14.2c1.4-6.5,7.8-10.6,14.2-9.2s10.6,7.8,9.2,14.2
	C33.6,541,27.2,545.1,20.7,543.7"/>
<path id="foreground_17_" class="st1" d="M19.9,547.7c-8.6-1.8-14.2-10.3-12.3-19l3.9,0.8c-1.4,6.5,2.8,12.9,9.2,14.2L19.9,547.7z"
	/>
<path id="_x23_999999_18_" class="st0" d="M16.7,578.6c8.1,3.6,17.5,0,21.1-8.1c3.6-8.1,0-17.5-8.1-21.1s-17.5,0-21.1,8.1
	S8.6,575,16.7,578.6 M18.3,575c-6.1-2.7-8.8-9.8-6.1-15.8s9.8-8.8,15.8-6.1s8.8,9.8,6.1,15.8S24.4,577.7,18.3,575"/>
<path id="foreground_18_" class="st1" d="M16.7,578.6C8.6,575,5,565.6,8.6,557.5l3.7,1.6c-2.7,6.1,0,13.1,6.1,15.8L16.7,578.6z"/>
<path id="_x23_999999_19_" class="st0" d="M13.8,608.9c7.1,5.2,17.2,3.6,22.3-3.5s3.6-17.2-3.5-22.3c-7.1-5.2-17.2-3.6-22.3,3.5
	S6.7,603.8,13.8,608.9 M16.2,605.7c-5.4-3.9-6.6-11.4-2.7-16.8s11.4-6.6,16.8-2.7s6.6,11.4,2.7,16.8S21.5,609.6,16.2,605.7"/>
<path id="foreground_19_" class="st1" d="M13.8,608.9c-7.1-5.2-8.7-15.2-3.5-22.3l3.2,2.4c-3.9,5.4-2.7,12.9,2.7,16.8L13.8,608.9z"
	/>
<path id="_x23_999999_20_" class="st0" d="M11.3,638.7c5.9,6.6,16,7.1,22.6,1.2c6.6-5.9,7.1-16,1.2-22.6s-16-7.1-22.6-1.2
	C5.9,622,5.4,632.1,11.3,638.7 M14.3,636c-4.4-4.9-4-12.5,0.9-16.9s12.5-4,16.9,0.9s4,12.5-0.9,16.9C26.3,641.4,18.7,641,14.3,636"
	/>
<path id="foreground_20_" class="st1" d="M11.3,638.7c-5.9-6.6-5.4-16.7,1.2-22.6l2.7,3c-4.9,4.4-5.3,12-0.9,16.9L11.3,638.7z"/>
<path id="_x23_999999_21_" class="st0" d="M9.4,668c4.4,7.7,14.2,10.3,21.9,5.9s10.3-14.2,5.9-21.9c-4.4-7.7-14.2-10.3-21.9-5.9
	S4.9,660.3,9.4,668 M12.8,666c-3.3-5.7-1.3-13.1,4.4-16.4c5.7-3.3,13.1-1.3,16.4,4.4c3.3,5.7,1.3,13.1-4.4,16.4S16.1,671.7,12.8,666
	"/>
<path id="foreground_21_" class="st1" d="M9.4,668c-4.4-7.7-1.8-17.4,5.9-21.9l2,3.5c-5.7,3.3-7.7,10.7-4.4,16.4L9.4,668z"/>
<path id="_x23_999999_22_" class="st0" d="M8,696.9c2.7,8.4,11.8,13,20.2,10.3s13-11.8,10.3-20.2c-2.7-8.4-11.8-13-20.2-10.3
	S5.3,688.5,8,696.9 M11.8,695.7c-2-6.3,1.4-13.1,7.7-15.1s13.1,1.4,15.1,7.7c2,6.3-1.4,13.1-7.7,15.1
	C20.6,705.5,13.9,702,11.8,695.7"/>
<path id="foreground_22_" class="st1" d="M8,696.9c-2.7-8.4,1.9-17.4,10.3-20.2l1.2,3.8c-6.3,2-9.8,8.8-7.7,15.1L8,696.9z"/>
<path id="_x23_999999_23_" class="st0" d="M7.3,725.7c0.9,8.8,8.8,15.2,17.6,14.2s15.2-8.8,14.2-17.6s-8.8-15.2-17.6-14.2
	C12.8,709,6.4,716.9,7.3,725.7 M11.3,725.3c-0.7-6.6,4.1-12.5,10.7-13.2s12.5,4.1,13.2,10.7c0.7,6.6-4.1,12.5-10.7,13.2
	S12,731.8,11.3,725.3"/>
<path id="foreground_23_" class="st1" d="M7.3,725.7c-0.9-8.8,5.5-16.7,14.2-17.6l0.4,4c-6.6,0.7-11.4,6.6-10.7,13.2L7.3,725.7z"/>
<path id="_x23_999999_24_" class="st0" d="M7.3,754.3c-0.9,8.8,5.5,16.7,14.2,17.6c8.8,0.9,16.7-5.5,17.6-14.2s-5.5-16.7-14.2-17.6
	S8.2,745.5,7.3,754.3 M11.3,754.7c0.7-6.6,6.6-11.4,13.2-10.7s11.4,6.6,10.7,13.2c-0.7,6.6-6.6,11.4-13.2,10.7
	S10.6,761.3,11.3,754.7"/>
<path id="foreground_24_" class="st1" d="M7.3,754.3c0.9-8.8,8.8-15.2,17.6-14.2l-0.4,4c-6.6-0.7-12.5,4.1-13.2,10.7L7.3,754.3z"/>
<path id="_x23_999999_25_" class="st0" d="M8,783.1c-2.7,8.4,1.9,17.4,10.3,20.2s17.4-1.9,20.2-10.3c2.7-8.4-1.9-17.4-10.3-20.2
	S10.7,774.7,8,783.1 M11.8,784.3c2-6.3,8.8-9.8,15.1-7.7c6.3,2,9.8,8.8,7.7,15.1c-2,6.3-8.8,9.8-15.1,7.7S9.8,790.6,11.8,784.3"/>
<path id="foreground_25_" class="st1" d="M8,783.1c2.7-8.4,11.8-13,20.2-10.3l-1.2,3.8c-6.3-2-13.1,1.4-15.1,7.7L8,783.1z"/>
<path id="_x23_999999_26_" class="st0" d="M9.4,812c-4.4,7.7-1.8,17.4,5.9,21.9s17.4,1.8,21.9-5.9c4.4-7.7,1.8-17.4-5.9-21.9
	S13.8,804.3,9.4,812 M12.8,814c3.3-5.7,10.7-7.7,16.4-4.4s7.7,10.7,4.4,16.4c-3.3,5.7-10.7,7.7-16.4,4.4S9.5,819.7,12.8,814"/>
<path id="foreground_26_" class="st1" d="M9.4,812c4.4-7.7,14.2-10.3,21.9-5.9l-2,3.5c-5.7-3.3-13.1-1.3-16.4,4.4L9.4,812z"/>
<path id="_x23_999999_27_" class="st0" d="M11.3,841.3c-5.9,6.6-5.4,16.7,1.2,22.6c6.6,5.9,16.7,5.4,22.6-1.2s5.4-16.7-1.2-22.6
	C27.4,834.2,17.2,834.7,11.3,841.3 M14.3,844c4.4-4.9,12-5.3,16.9-0.9c4.9,4.4,5.3,12,0.9,16.9s-12,5.3-16.9,0.9
	C10.3,856.5,9.9,848.9,14.3,844"/>
<path id="foreground_27_" class="st1" d="M11.3,841.3c5.9-6.6,16-7.1,22.6-1.2l-2.7,3c-4.9-4.4-12.5-4-16.9,0.9L11.3,841.3z"/>
<path id="_x23_999999_28_" class="st0" d="M13.8,871.1c-7.1,5.2-8.7,15.2-3.5,22.3s15.2,8.7,22.3,3.5c7.1-5.2,8.7-15.2,3.5-22.3
	S21,865.9,13.8,871.1 M16.2,874.3c5.4-3.9,12.9-2.7,16.8,2.7s2.7,12.9-2.7,16.8s-12.9,2.7-16.8-2.7S10.8,878.2,16.2,874.3"/>
<path id="foreground_28_" class="st1" d="M13.8,871.1c7.1-5.2,17.2-3.6,22.3,3.5l-3.2,2.4c-3.9-5.4-11.4-6.6-16.8-2.7L13.8,871.1z"
	/>
<path id="_x23_999999_30_" class="st0" d="M16.7,901.4C8.6,905,5,914.4,8.6,922.5s13.1,11.7,21.1,8.1s11.7-13.1,8.1-21.1
	S24.8,897.8,16.7,901.4 M18.3,905c6.1-2.7,13.1,0,15.8,6.1s0,13.1-6.1,15.8s-13.1,0-15.8-6.1S12.3,907.7,18.3,905"/>
<path id="foreground_30_" class="st1" d="M16.7,901.4c8.1-3.6,17.5,0,21.1,8.1l-3.7,1.6c-2.7-6.1-9.8-8.8-15.8-6.1L16.7,901.4z"/>
<path id="_x23_999999_31_" class="st0" d="M19.9,932.3c-8.6,1.8-14.2,10.3-12.3,19c1.8,8.6,10.3,14.2,19,12.3s14.2-10.3,12.3-19
	C37,936,28.5,930.5,19.9,932.3 M20.7,936.3c6.5-1.4,12.9,2.8,14.2,9.2c1.4,6.5-2.8,12.9-9.2,14.2s-12.9-2.8-14.2-9.2
	C10.1,944,14.2,937.6,20.7,936.3"/>
<path id="foreground_31_" class="st1" d="M19.9,932.3c8.6-1.8,17.1,3.7,19,12.3l-3.9,0.8c-1.4-6.5-7.8-10.6-14.2-9.2L19.9,932.3z"/>
</svg>
