<?xml version="1.0" encoding="utf-8"?>
<!-- Generator: Adobe Illustrator 19.1.0, SVG Export Plug-In . SVG Version: 6.00 Build 0)  -->
<svg version="1.1" id="Layer_1" xmlns="http://www.w3.org/2000/svg" xmlns:xlink="http://www.w3.org/1999/xlink" x="0px" y="0px"
	 viewBox="0 0 44.7 1542.5" style="enable-background:new 0 0 44.7 1542.5;" xml:space="preserve">
<style type="text/css">
	.st0{opacity:0.25;fill:#989898;enable-background:new    ;}
	.st1{fill:#989898;}
</style>
<g>
	<path id="_x23_999999_1_" class="st0" d="M22.3,0c-8.8,0-16,7.2-16,16s7.2,16,16,16s16-7.2,16-16S31.2,0,22.3,0 M22.3,4
		c6.6,0,12,5.4,12,12s-5.4,12-12,12s-12-5.4-12-12S15.7,4,22.3,4"/>
	<path id="foreground_1_" class="st1" d="M22.3,0c8.8,0,16,7.2,16,16h-4c0-6.6-5.4-12-12-12V0z"/>
</g>
<g>
	<path id="_x23_999999_2_" class="st0" d="M25.7,52.4c-8.6-1.8-17.1,3.7-19,12.3s3.7,17.1,12.3,19c8.6,1.8,17.1-3.7,19-12.3
		S34.3,54.3,25.7,52.4 M24.8,56.3c6.5,1.4,10.6,7.8,9.2,14.2c-1.4,6.5-7.8,10.6-14.2,9.2c-6.5-1.4-10.6-7.8-9.2-14.2
		S18.3,55,24.8,56.3"/>
	<path id="foreground_2_" class="st1" d="M25.7,52.4c8.6,1.8,14.2,10.3,12.3,19l-3.9-0.8c1.4-6.5-2.8-12.9-9.2-14.2L25.7,52.4z"/>
</g>
<g>
	<path id="_x23_999999_3_" class="st0" d="M28.8,105.6c-8.1-3.6-17.5,0-21.1,8.1s0,17.5,8.1,21.1c8.1,3.6,17.5,0,21.1-8.1
		C40.5,118.6,36.9,109.1,28.8,105.6 M27.2,109.2c6.1,2.7,8.8,9.8,6.1,15.8s-9.8,8.8-15.8,6.1s-8.8-9.8-6.1-15.8
		C14.1,109.2,21.2,106.5,27.2,109.2"/>
	<path id="foreground_3_" class="st1" d="M28.8,105.6c8.1,3.6,11.7,13.1,8.1,21.1l-3.7-1.6c2.7-6.1,0-13.1-6.1-15.8L28.8,105.6z"/>
</g>
<g>
	<path id="_x23_999999_4_" class="st0" d="M31.7,159.3c-7.1-5.2-17.2-3.6-22.3,3.5s-3.6,17.2,3.5,22.3c7.1,5.2,17.2,3.6,22.3-3.5
		S38.9,164.5,31.7,159.3 M29.4,162.6c5.4,3.9,6.6,11.4,2.7,16.8s-11.4,6.6-16.8,2.7c-5.4-3.9-6.6-11.4-2.7-16.8
		C16.5,159.8,24,158.7,29.4,162.6"/>
	<path id="foreground_4_" class="st1" d="M31.7,159.3c7.1,5.2,8.7,15.2,3.5,22.3l-3.2-2.4c3.9-5.4,2.7-12.9-2.7-16.8L31.7,159.3z"/>
</g>
<g>
	<path id="_x23_999999_5_" class="st0" d="M34.2,213.6c-5.9-6.6-16-7.1-22.6-1.2s-7.1,16-1.2,22.6c5.9,6.6,16,7.1,22.6,1.2
		S40.1,220.2,34.2,213.6 M31.3,216.3c4.4,4.9,4,12.5-0.9,16.9c-4.9,4.4-12.5,4-16.9-0.9c-4.4-4.9-4-12.5,0.9-16.9
		S26.8,211.4,31.3,216.3"/>
	<path id="foreground_5_" class="st1" d="M34.2,213.6c5.9,6.6,5.4,16.7-1.2,22.6l-2.7-3c4.9-4.4,5.3-12,0.9-16.9L34.2,213.6z"/>
</g>
<g>
	<path id="_x23_999999_6_" class="st0" d="M36.2,268.4c-4.4-7.7-14.2-10.3-21.9-5.9s-10.3,14.2-5.9,21.9s14.2,10.3,21.9,5.9
		S40.6,276.1,36.2,268.4 M32.7,270.4c3.3,5.7,1.3,13.1-4.4,16.4c-5.7,3.3-13.1,1.3-16.4-4.4c-3.3-5.7-1.3-13.1,4.4-16.4
		C22.1,262.7,29.4,264.7,32.7,270.4"/>
	<path id="foreground_6_" class="st1" d="M36.2,268.4c4.4,7.7,1.8,17.4-5.9,21.9l-2-3.5c5.7-3.3,7.7-10.7,4.4-16.4L36.2,268.4z"/>
</g>
<g>
	<path id="_x23_999999_7_" class="st0" d="M37.6,323.6c-2.7-8.4-11.8-13-20.2-10.3s-13,11.8-10.3,20.2c2.7,8.4,11.8,13,20.2,10.3
		S40.3,332,37.6,323.6 M33.7,324.8c2,6.3-1.4,13.1-7.7,15.1c-6.3,2-13.1-1.4-15.1-7.7s1.4-13.1,7.7-15.1S31.7,318.5,33.7,324.8"/>
	<path id="foreground_7_" class="st1" d="M37.6,323.6c2.7,8.4-1.9,17.4-10.3,20.2l-1.2-3.8c6.3-2,9.8-8.8,7.7-15.1L37.6,323.6z"/>
</g>
<g>
	<path id="_x23_999999_8_" class="st0" d="M38.2,378.9c-0.9-8.8-8.8-15.2-17.6-14.2s-15.2,8.8-14.2,17.6s8.8,15.2,17.6,14.2
		S39.2,387.7,38.2,378.9 M34.3,379.3c0.7,6.6-4.1,12.5-10.7,13.2s-12.5-4.1-13.2-10.7c-0.7-6.6,4.1-12.5,10.7-13.2
		S33.6,372.8,34.3,379.3"/>
	<path id="foreground_8_" class="st1" d="M38.2,378.9c0.9,8.8-5.5,16.7-14.2,17.6l-0.4-4c6.6-0.7,11.4-6.6,10.7-13.2L38.2,378.9z"/>
</g>
<g>
	<path id="_x23_999999_9_" class="st0" d="M38.2,434.4c0.9-8.8-5.5-16.7-14.2-17.6S7.3,422.2,6.4,431s5.5,16.7,14.2,17.6
		S37.3,443.1,38.2,434.4 M34.3,433.9c-0.7,6.6-6.6,11.4-13.2,10.7S9.7,438,10.4,431.4c0.7-6.6,6.6-11.4,13.2-10.7
		S35,427.4,34.3,433.9"/>
	<path id="foreground_9_" class="st1" d="M38.2,434.4c-0.9,8.8-8.8,15.2-17.6,14.2l0.4-4c6.6,0.7,12.5-4.1,13.2-10.7L38.2,434.4z"/>
</g>
<g>
	<path id="_x23_999999_10_" class="st0" d="M37.6,489.7c2.7-8.4-1.9-17.4-10.3-20.2c-8.4-2.7-17.4,1.9-20.2,10.3
		C4.4,488.2,9,497.3,17.4,500C25.8,502.7,34.8,498.1,37.6,489.7 M33.7,488.5c-2,6.3-8.8,9.8-15.1,7.7c-6.3-2-9.8-8.8-7.7-15.1
		c2-6.3,8.8-9.8,15.1-7.7C32.3,475.4,35.8,482.2,33.7,488.5"/>
	<path id="foreground_10_" class="st1" d="M37.6,489.7c-2.7,8.4-11.8,13-20.2,10.3l1.2-3.8c6.3,2,13.1-1.4,15.1-7.7L37.6,489.7z"/>
</g>
<g>
	<path id="_x23_999999_11_" class="st0" d="M36.2,544.9c4.4-7.7,1.8-17.4-5.9-21.9s-17.4-1.8-21.9,5.9c-4.4,7.7-1.8,17.4,5.9,21.9
		S31.8,552.5,36.2,544.9 M32.7,542.9c-3.3,5.7-10.7,7.7-16.4,4.4s-7.7-10.7-4.4-16.4c3.3-5.7,10.7-7.7,16.4-4.4S36,537.1,32.7,542.9
		"/>
	<path id="foreground_11_" class="st1" d="M36.2,544.9c-4.4,7.7-14.2,10.3-21.9,5.9l2-3.5c5.7,3.3,13.1,1.3,16.4-4.4L36.2,544.9z"/>
</g>
<g>
	<path id="_x23_999999_12_" class="st0" d="M34.2,599.7c5.9-6.6,5.4-16.7-1.2-22.6c-6.6-5.9-16.7-5.4-22.6,1.2
		c-5.9,6.6-5.4,16.7,1.2,22.6C18.2,606.8,28.3,606.2,34.2,599.7 M31.3,597c-4.4,4.9-12,5.3-16.9,0.9c-4.9-4.4-5.3-12-0.9-16.9
		c4.4-4.9,12-5.3,16.9-0.9S35.7,592.1,31.3,597"/>
	<path id="foreground_12_" class="st1" d="M34.2,599.7c-5.9,6.6-16,7.1-22.6,1.2l2.7-3c4.9,4.4,12.5,4,16.9-0.9L34.2,599.7z"/>
</g>
<g>
	<path id="_x23_999999_13_" class="st0" d="M31.7,654c7.1-5.2,8.7-15.2,3.5-22.3s-15.2-8.7-22.3-3.5c-7.1,5.2-8.7,15.2-3.5,22.3
		S24.6,659.2,31.7,654 M29.4,650.7c-5.4,3.9-12.9,2.7-16.8-2.7s-2.7-12.9,2.7-16.8c5.4-3.9,12.9-2.7,16.8,2.7S34.7,646.8,29.4,650.7
		"/>
	<path id="foreground_13_" class="st1" d="M31.7,654c-7.1,5.2-17.2,3.6-22.3-3.5l3.2-2.4c3.9,5.4,11.4,6.6,16.8,2.7L31.7,654z"/>
</g>
<g>
	<path id="_x23_999999_14_" class="st0" d="M28.8,707.7c8.1-3.6,11.7-13.1,8.1-21.1c-3.6-8.1-13.1-11.7-21.1-8.1
		c-8.1,3.6-11.7,13.1-8.1,21.1C11.3,707.7,20.8,711.3,28.8,707.7 M27.2,704.1c-6.1,2.7-13.1,0-15.8-6.1s0-13.1,6.1-15.8
		s13.1,0,15.8,6.1S33.3,701.4,27.2,704.1"/>
	<path id="foreground_14_" class="st1" d="M28.8,707.7c-8.1,3.6-17.5,0-21.1-8.1l3.7-1.6c2.7,6.1,9.8,8.8,15.8,6.1L28.8,707.7z"/>
</g>
<g>
	<path id="_x23_999999_15_" class="st0" d="M25.7,760.9c8.6-1.8,14.2-10.3,12.3-19s-10.3-14.2-19-12.3s-14.2,10.3-12.3,19
		C8.5,757.2,17,762.7,25.7,760.9 M24.8,756.9c-6.5,1.4-12.9-2.8-14.2-9.2s2.8-12.9,9.2-14.2s12.9,2.8,14.2,9.2
		C35.4,749.2,31.3,755.6,24.8,756.9"/>
	<path id="foreground_15_" class="st1" d="M25.7,760.9c-8.6,1.8-17.1-3.7-19-12.3l3.9-0.8c1.4,6.5,7.8,10.6,14.2,9.2L25.7,760.9z"/>
</g>
<g>
	<path id="_x23_999999_16_" class="st0" d="M22.3,813.3c8.8,0,16-7.2,16-16c0-8.8-7.2-16-16-16s-16,7.2-16,16
		C6.3,806.1,13.5,813.3,22.3,813.3 M22.3,809.3c-6.6,0-12-5.4-12-12c0-6.6,5.4-12,12-12s12,5.4,12,12
		C34.3,803.9,29,809.3,22.3,809.3"/>
	<path id="foreground_16_" class="st1" d="M22.3,813.3c-8.8,0-16-7.2-16-16h4c0,6.6,5.4,12,12,12V813.3z"/>
</g>
<g>
	<path id="_x23_999999_17_" class="st0" d="M19,865c8.6,1.8,17.1-3.7,19-12.3c1.8-8.6-3.7-17.1-12.3-19s-17.1,3.7-19,12.3
		C4.8,854.7,10.4,863.2,19,865 M19.8,861.1c-6.5-1.4-10.6-7.8-9.2-14.2s7.8-10.6,14.2-9.2s10.6,7.8,9.2,14.2
		C32.7,858.4,26.3,862.5,19.8,861.1"/>
	<path id="foreground_17_" class="st1" d="M19,865c-8.6-1.8-14.2-10.3-12.3-19l3.9,0.8c-1.4,6.5,2.8,12.9,9.2,14.2L19,865z"/>
</g>
<g>
	<path id="_x23_999999_18_" class="st0" d="M15.8,916.1c8.1,3.6,17.5,0,21.1-8.1s0-17.5-8.1-21.1s-17.5,0-21.1,8.1
		S7.8,912.5,15.8,916.1 M17.5,912.4c-6.1-2.7-8.8-9.8-6.1-15.8s9.8-8.8,15.8-6.1s8.8,9.8,6.1,15.8S23.5,915.1,17.5,912.4"/>
	<path id="foreground_18_" class="st1" d="M15.8,916.1C7.8,912.5,4.1,903,7.7,895l3.7,1.6c-2.7,6.1,0,13.1,6.1,15.8L15.8,916.1z"/>
</g>
<g>
	<path id="_x23_999999_19_" class="st0" d="M12.9,966.5c7.1,5.2,17.2,3.6,22.3-3.5s3.6-17.2-3.5-22.3c-7.1-5.2-17.2-3.6-22.3,3.5
		S5.8,961.3,12.9,966.5 M15.3,963.3c-5.4-3.9-6.6-11.4-2.7-16.8s11.4-6.6,16.8-2.7s6.6,11.4,2.7,16.8S20.6,967.2,15.3,963.3"/>
	<path id="foreground_19_" class="st1" d="M12.9,966.5c-7.1-5.2-8.7-15.2-3.5-22.3l3.2,2.4c-3.9,5.4-2.7,12.9,2.7,16.8L12.9,966.5z"
		/>
</g>
<g>
	<path id="_x23_999999_20_" class="st0" d="M10.4,1016.3c5.9,6.6,16,7.1,22.6,1.2c6.6-5.9,7.1-16,1.2-22.6s-16-7.1-22.6-1.2
		C5.1,999.7,4.5,1009.8,10.4,1016.3 M13.4,1013.7c-4.4-4.9-4-12.5,0.9-16.9c4.9-4.4,12.5-4,16.9,0.9c4.4,4.9,4,12.5-0.9,16.9
		C25.4,1019,17.9,1018.6,13.4,1013.7"/>
	<path id="foreground_20_" class="st1" d="M10.4,1016.3c-5.9-6.6-5.4-16.7,1.2-22.6l2.7,3c-4.9,4.4-5.3,12-0.9,16.9L10.4,1016.3z"/>
</g>
<g>
	<path id="_x23_999999_21_" class="st0" d="M8.5,1065.7c4.4,7.7,14.2,10.3,21.9,5.9c7.7-4.4,10.3-14.2,5.9-21.9
		c-4.4-7.7-14.2-10.3-21.9-5.9C6.7,1048.3,4.1,1058.1,8.5,1065.7 M11.9,1063.7c-3.3-5.7-1.3-13.1,4.4-16.4s13.1-1.3,16.4,4.4
		c3.3,5.7,1.3,13.1-4.4,16.4S15.3,1069.5,11.9,1063.7"/>
	<path id="foreground_21_" class="st1" d="M8.5,1065.7c-4.4-7.7-1.8-17.4,5.9-21.9l2,3.5c-5.7,3.3-7.7,10.7-4.4,16.4L8.5,1065.7z"/>
</g>
<g>
	<path id="_x23_999999_22_" class="st0" d="M7.1,1114.8c2.7,8.4,11.8,13,20.2,10.3c8.4-2.7,13-11.8,10.3-20.2
		c-2.7-8.4-11.8-13-20.2-10.3S4.4,1106.3,7.1,1114.8 M10.9,1113.5c-2-6.3,1.4-13.1,7.7-15.1s13.1,1.4,15.1,7.7
		c2,6.3-1.4,13.1-7.7,15.1C19.7,1123.3,13,1119.8,10.9,1113.5"/>
	<path id="foreground_22_" class="st1" d="M7.1,1114.8c-2.7-8.4,1.9-17.4,10.3-20.2l1.2,3.8c-6.3,2-9.8,8.8-7.7,15.1L7.1,1114.8z"/>
</g>
<g>
	<path id="_x23_999999_23_" class="st0" d="M6.4,1163.6c0.9,8.8,8.8,15.2,17.6,14.2s15.2-8.8,14.2-17.6c-0.9-8.8-8.8-15.2-17.6-14.2
		S5.5,1154.8,6.4,1163.6 M10.4,1163.1c-0.7-6.6,4.1-12.5,10.7-13.2s12.5,4.1,13.2,10.7c0.7,6.6-4.1,12.5-10.7,13.2
		S11.1,1169.7,10.4,1163.1"/>
	<path id="foreground_23_" class="st1" d="M6.4,1163.6c-0.9-8.8,5.5-16.7,14.2-17.6l0.4,4c-6.6,0.7-11.4,6.6-10.7,13.2L6.4,1163.6z"
		/>
</g>
<g>
	<path id="_x23_999999_24_" class="st0" d="M6.4,1212.3c-0.9,8.8,5.5,16.7,14.2,17.6c8.8,0.9,16.7-5.5,17.6-14.2
		c0.9-8.8-5.5-16.7-14.2-17.6C15.2,1197.1,7.3,1203.5,6.4,1212.3 M10.4,1212.7c0.7-6.6,6.6-11.4,13.2-10.7s11.4,6.6,10.7,13.2
		c-0.7,6.6-6.6,11.4-13.2,10.7S9.7,1219.3,10.4,1212.7"/>
	<path id="foreground_24_" class="st1" d="M6.4,1212.3c0.9-8.8,8.8-15.2,17.6-14.2l-0.4,4c-6.6-0.7-12.5,4.1-13.2,10.7L6.4,1212.3z"
		/>
</g>
<g>
	<path id="_x23_999999_25_" class="st0" d="M7.1,1261.1c-2.7,8.4,1.9,17.4,10.3,20.2c8.4,2.7,17.4-1.9,20.2-10.3
		c2.7-8.4-1.9-17.4-10.3-20.2C18.9,1248.1,9.8,1252.7,7.1,1261.1 M10.9,1262.4c2-6.3,8.8-9.8,15.1-7.7s9.8,8.8,7.7,15.1
		c-2,6.3-8.8,9.8-15.1,7.7S8.9,1268.7,10.9,1262.4"/>
	<path id="foreground_25_" class="st1" d="M7.1,1261.1c2.7-8.4,11.8-13,20.2-10.3l-1.2,3.8c-6.3-2-13.1,1.4-15.1,7.7L7.1,1261.1z"/>
</g>
<g>
	<path id="_x23_999999_26_" class="st0" d="M8.5,1310.2c-4.4,7.7-1.8,17.4,5.9,21.9c7.7,4.4,17.4,1.8,21.9-5.9s1.8-17.4-5.9-21.9
		C22.7,1299.9,12.9,1302.5,8.5,1310.2 M11.9,1312.2c3.3-5.7,10.7-7.7,16.4-4.4s7.7,10.7,4.4,16.4c-3.3,5.7-10.7,7.7-16.4,4.4
		S8.6,1317.9,11.9,1312.2"/>
	<path id="foreground_26_" class="st1" d="M8.5,1310.2c4.4-7.7,14.2-10.3,21.9-5.9l-2,3.5c-5.7-3.3-13.1-1.3-16.4,4.4L8.5,1310.2z"
		/>
</g>
<g>
	<path id="_x23_999999_27_" class="st0" d="M10.4,1359.5c-5.9,6.6-5.4,16.7,1.2,22.6c6.6,5.9,16.7,5.4,22.6-1.2
		c5.9-6.6,5.4-16.7-1.2-22.6S16.4,1353,10.4,1359.5 M13.4,1362.2c4.4-4.9,12-5.3,16.9-0.9s5.3,12,0.9,16.9c-4.4,4.9-12,5.3-16.9,0.9
		C9.4,1374.7,9,1367.1,13.4,1362.2"/>
	<path id="foreground_27_" class="st1" d="M10.4,1359.5c5.9-6.6,16-7.1,22.6-1.2l-2.7,3c-4.9-4.4-12.5-4-16.9,0.9L10.4,1359.5z"/>
</g>
<g>
	<path id="_x23_999999_28_" class="st0" d="M12.9,1409.4c-7.1,5.2-8.7,15.2-3.5,22.3s15.2,8.7,22.3,3.5s8.7-15.2,3.5-22.3
		S20.1,1404.2,12.9,1409.4 M15.3,1412.6c5.4-3.9,12.9-2.7,16.8,2.7s2.7,12.9-2.7,16.8s-12.9,2.7-16.8-2.7S9.9,1416.5,15.3,1412.6"/>
	<path id="foreground_28_" class="st1" d="M12.9,1409.4c7.1-5.2,17.2-3.6,22.3,3.5l-3.2,2.4c-3.9-5.4-11.4-6.6-16.8-2.7L12.9,1409.4
		z"/>
</g>
<g>
	<path id="_x23_999999_29_" class="st0" d="M15.8,1459.8c-8.1,3.6-11.7,13.1-8.1,21.1c3.6,8.1,13.1,11.7,21.1,8.1
		s11.7-13.1,8.1-21.1S23.9,1456.2,15.8,1459.8 M17.5,1463.4c6.1-2.7,13.1,0,15.8,6.1s0,13.1-6.1,15.8s-13.1,0-15.8-6.1
		S11.4,1466.1,17.5,1463.4"/>
	<path id="foreground_29_" class="st1" d="M15.8,1459.8c8.1-3.6,17.5,0,21.1,8.1l-3.7,1.6c-2.7-6.1-9.8-8.8-15.8-6.1L15.8,1459.8z"
		/>
</g>
<g>
	<path id="_x23_999999_30_" class="st0" d="M19,1510.8c-8.6,1.8-14.2,10.3-12.3,19c1.8,8.6,10.3,14.2,19,12.3
		c8.6-1.8,14.2-10.3,12.3-19S27.7,1509,19,1510.8 M19.8,1514.8c6.5-1.4,12.9,2.8,14.2,9.2c1.4,6.5-2.8,12.9-9.2,14.2
		s-12.9-2.8-14.2-9.2C9.2,1522.5,13.4,1516.1,19.8,1514.8"/>
	<path id="foreground_30_" class="st1" d="M19,1510.8c8.6-1.8,17.1,3.7,19,12.3l-3.9,0.8c-1.4-6.5-7.8-10.6-14.2-9.2L19,1510.8z"/>
</g>
</svg>
