<?xml version="1.0" encoding="utf-8"?>
<!-- Generator: Adobe Illustrator 19.1.0, SVG Export Plug-In . SVG Version: 6.00 Build 0)  -->
<svg version="1.1" id="Layer_1" xmlns="http://www.w3.org/2000/svg" xmlns:xlink="http://www.w3.org/1999/xlink" x="0px" y="0px"
	 viewBox="0 0 44.7 960" style="enable-background:new 0 0 44.7 960;" xml:space="preserve">
<style type="text/css">
	.st0{opacity:0.25;fill:#989898;enable-background:new    ;}
	.st1{fill:#989898;}
</style>
<g>
	<path id="_x23_999999_1_" class="st0" d="M23.2,0c-8.8,0-16,7.2-16,16s7.2,16,16,16s16-7.2,16-16S32.1,0,23.2,0 M23.2,4
		c6.6,0,12,5.4,12,12s-5.4,12-12,12s-12-5.4-12-12S16.6,4,23.2,4"/>
	<path id="foreground_1_" class="st1" d="M23.2,0c8.8,0,16,7.2,16,16h-4c0-6.6-5.4-12-12-12V0z"/>
	<path id="_x23_999999_2_" class="st0" d="M26.5,32.3c-8.6-1.8-17.1,3.7-19,12.3s3.7,17.1,12.3,19S37,60,38.9,51.3
		S35.2,34.2,26.5,32.3 M25.7,36.3c6.5,1.4,10.6,7.8,9.2,14.2c-1.4,6.5-7.8,10.6-14.2,9.2S10.1,52,11.5,45.5S19.2,34.9,25.7,36.3"/>
	<path id="foreground_2_" class="st1" d="M26.5,32.3c8.6,1.8,14.2,10.3,12.3,19L35,50.5c1.4-6.5-2.8-12.9-9.2-14.2L26.5,32.3z"/>
	<path id="_x23_999999_3_" class="st0" d="M29.7,65.4c-8.1-3.6-17.5,0-21.1,8.1s0,17.5,8.1,21.1c8.1,3.6,17.5,0,21.1-8.1
		C41.4,78.4,37.8,69,29.7,65.4 M28.1,69c6.1,2.7,8.8,9.8,6.1,15.8c-2.7,6.1-9.8,8.8-15.8,6.1c-6.1-2.7-8.8-9.8-6.1-15.8
		S22,66.3,28.1,69"/>
	<path id="foreground_3_" class="st1" d="M29.7,65.4c8.1,3.6,11.7,13.1,8.1,21.1l-3.7-1.6c2.7-6.1,0-13.1-6.1-15.8L29.7,65.4z"/>
	<path id="_x23_999999_4_" class="st0" d="M32.6,99.1c-7.1-5.2-17.2-3.6-22.3,3.5c-5.2,7.1-3.6,17.2,3.5,22.3s17.2,3.6,22.3-3.5
		C41.4,114.3,39.8,104.2,32.6,99.1 M30.3,102.3c5.4,3.9,6.6,11.4,2.7,16.8s-11.4,6.6-16.8,2.7c-5.4-3.9-6.6-11.4-2.7-16.8
		C17.4,99.6,24.9,98.4,30.3,102.3"/>
	<path id="foreground_4_" class="st1" d="M32.6,99.1c7.1,5.2,8.7,15.2,3.5,22.3l-3.2-2.4c3.9-5.4,2.7-12.9-2.7-16.8L32.6,99.1z"/>
	<path id="_x23_999999_5_" class="st0" d="M35.1,133.3c-5.9-6.6-16-7.1-22.6-1.2s-7.1,16-1.2,22.6c5.9,6.6,16,7.1,22.6,1.2
		S41,139.9,35.1,133.3 M32.1,136c4.4,4.9,4,12.5-0.9,16.9c-4.9,4.4-12.5,4-16.9-0.9c-4.4-4.9-4-12.5,0.9-16.9
		C20.1,130.6,27.7,131,32.1,136"/>
	<path id="foreground_5_" class="st1" d="M35.1,133.3c5.9,6.6,5.4,16.7-1.2,22.6l-2.7-3c4.9-4.4,5.3-12,0.9-16.9L35.1,133.3z"/>
	<path id="_x23_999999_6_" class="st0" d="M37.1,168c-4.4-7.7-14.2-10.3-21.9-5.9c-7.7,4.4-10.3,14.2-5.9,21.9s14.2,10.3,21.9,5.9
		C38.9,185.4,41.5,175.7,37.1,168 M33.6,170c3.3,5.7,1.3,13.1-4.4,16.4s-13.1,1.3-16.4-4.4c-3.3-5.7-1.3-13.1,4.4-16.4
		S30.3,164.3,33.6,170"/>
	<path id="foreground_6_" class="st1" d="M37.1,168c4.4,7.7,1.8,17.4-5.9,21.9l-2-3.5c5.7-3.3,7.7-10.7,4.4-16.4L37.1,168z"/>
	<path id="_x23_999999_7_" class="st0" d="M38.4,203.1c-2.7-8.4-11.8-13-20.2-10.3c-8.4,2.7-13,11.8-10.3,20.2
		c2.7,8.4,11.8,13,20.2,10.3C36.6,220.5,41.2,211.5,38.4,203.1 M34.6,204.3c2,6.3-1.4,13.1-7.7,15.1s-13.1-1.4-15.1-7.7
		c-2-6.3,1.4-13.1,7.7-15.1C25.8,194.5,32.6,198,34.6,204.3"/>
	<path id="foreground_7_" class="st1" d="M38.4,203.1c2.7,8.4-1.9,17.4-10.3,20.2l-1.2-3.8c6.3-2,9.8-8.8,7.7-15.1L38.4,203.1z"/>
	<path id="_x23_999999_8_" class="st0" d="M39.1,238.3c-0.9-8.8-8.8-15.2-17.6-14.2c-8.8,0.9-15.2,8.8-14.2,17.6s8.8,15.2,17.6,14.2
		C33.7,255,40.1,247.1,39.1,238.3 M35.2,238.7c0.7,6.6-4.1,12.5-10.7,13.2c-6.6,0.7-12.5-4.1-13.2-10.7s4.1-12.5,10.7-13.2
		C28.6,227.4,34.5,232.2,35.2,238.7"/>
	<path id="foreground_8_" class="st1" d="M39.1,238.3c0.9,8.8-5.5,16.7-14.2,17.6l-0.4-4c6.6-0.7,11.4-6.6,10.7-13.2L39.1,238.3z"/>
	<path id="_x23_999999_9_" class="st0" d="M39.1,273.7c0.9-8.8-5.5-16.7-14.2-17.6c-8.8-0.9-16.7,5.5-17.6,14.2
		c-0.9,8.8,5.5,16.7,14.2,17.6C30.3,288.8,38.2,282.5,39.1,273.7 M35.2,273.3c-0.7,6.6-6.6,11.4-13.2,10.7
		c-6.6-0.7-11.4-6.6-10.7-13.2c0.7-6.6,6.6-11.4,13.2-10.7C31.1,260.8,35.8,266.7,35.2,273.3"/>
	<path id="foreground_9_" class="st1" d="M39.1,273.7c-0.9,8.8-8.8,15.2-17.6,14.2l0.4-4c6.6,0.7,12.5-4.1,13.2-10.7L39.1,273.7z"/>
	<path id="_x23_999999_10_" class="st0" d="M38.4,308.9c2.7-8.4-1.9-17.4-10.3-20.2S10.7,290.7,8,299.1c-2.7,8.4,1.9,17.4,10.3,20.2
		S35.7,317.3,38.4,308.9 M34.6,307.7c-2,6.3-8.8,9.8-15.1,7.7s-9.8-8.8-7.7-15.1s8.8-9.8,15.1-7.7C33.2,294.6,36.7,301.4,34.6,307.7
		"/>
	<path id="foreground_10_" class="st1" d="M38.4,308.9c-2.7,8.4-11.8,13-20.2,10.3l1.2-3.8c6.3,2,13.1-1.4,15.1-7.7L38.4,308.9z"/>
	<path id="_x23_999999_11_" class="st0" d="M37.1,344c4.4-7.7,1.8-17.4-5.9-21.9c-7.7-4.4-17.4-1.8-21.9,5.9s-1.8,17.4,5.9,21.9
		S32.7,351.7,37.1,344 M33.6,342c-3.3,5.7-10.7,7.7-16.4,4.4c-5.7-3.3-7.7-10.7-4.4-16.4s10.7-7.7,16.4-4.4S36.9,336.3,33.6,342"/>
	<path id="foreground_11_" class="st1" d="M37.1,344c-4.4,7.7-14.2,10.3-21.9,5.9l2-3.5c5.7,3.3,13.1,1.3,16.4-4.4L37.1,344z"/>
	<path id="_x23_999999_12_" class="st0" d="M35.1,378.7c5.9-6.6,5.4-16.7-1.2-22.6s-16.7-5.4-22.6,1.2s-5.4,16.7,1.2,22.6
		S29.2,385.3,35.1,378.7 M32.1,376c-4.4,4.9-12,5.3-16.9,0.9c-4.9-4.4-5.3-12-0.9-16.9s12-5.3,16.9-0.9
		C36.2,363.5,36.6,371.1,32.1,376"/>
	<path id="foreground_12_" class="st1" d="M35.1,378.7c-5.9,6.6-16,7.1-22.6,1.2l2.7-3c4.9,4.4,12.5,4,16.9-0.9L35.1,378.7z"/>
	<path id="_x23_999999_13_" class="st0" d="M32.6,412.9c7.1-5.2,8.7-15.2,3.5-22.3s-15.2-8.7-22.3-3.5s-8.7,15.2-3.5,22.3
		C15.5,416.6,25.5,418.1,32.6,412.9 M30.3,409.7c-5.4,3.9-12.9,2.7-16.8-2.7s-2.7-12.9,2.7-16.8c5.4-3.9,12.9-2.7,16.8,2.7
		S35.6,405.8,30.3,409.7"/>
	<path id="foreground_13_" class="st1" d="M32.6,412.9c-7.1,5.2-17.2,3.6-22.3-3.5l3.2-2.4c3.9,5.4,11.4,6.6,16.8,2.7L32.6,412.9z"
		/>
	<path id="_x23_999999_14_" class="st0" d="M29.7,446.6c8.1-3.6,11.7-13.1,8.1-21.1c-3.6-8.1-13.1-11.7-21.1-8.1
		C8.6,421,5,430.4,8.6,438.5S21.7,450.2,29.7,446.6 M28.1,443c-6.1,2.7-13.1,0-15.8-6.1s0-13.1,6.1-15.8s13.1,0,15.8,6.1
		C36.9,433.2,34.2,440.3,28.1,443"/>
	<path id="foreground_14_" class="st1" d="M29.7,446.6c-8.1,3.6-17.5,0-21.1-8.1l3.7-1.6c2.7,6.1,9.8,8.8,15.8,6.1L29.7,446.6z"/>
	<path id="_x23_999999_15_" class="st0" d="M26.5,479.7c8.6-1.8,14.2-10.3,12.3-19s-10.3-14.2-19-12.3s-14.2,10.3-12.3,19
		S17.9,481.5,26.5,479.7 M25.7,475.7c-6.5,1.4-12.9-2.8-14.2-9.2c-1.4-6.5,2.8-12.9,9.2-14.2s12.9,2.8,14.2,9.2
		C36.3,468,32.2,474.4,25.7,475.7"/>
	<path id="foreground_15_" class="st1" d="M26.5,479.7c-8.6,1.8-17.1-3.7-19-12.3l3.9-0.8c1.4,6.5,7.8,10.6,14.2,9.2L26.5,479.7z"/>
	<path id="_x23_999999_16_" class="st0" d="M23.2,512c8.8,0,16-7.2,16-16s-7.2-16-16-16s-16,7.2-16,16S14.4,512,23.2,512 M23.2,508
		c-6.6,0-12-5.4-12-12s5.4-12,12-12s12,5.4,12,12S29.8,508,23.2,508"/>
	<path id="foreground_16_" class="st1" d="M23.2,512c-8.8,0-16-7.2-16-16h4c0,6.6,5.4,12,12,12V512z"/>
	<path id="_x23_999999_17_" class="st0" d="M19.9,543.7c8.6,1.8,17.1-3.7,19-12.3c1.8-8.6-3.7-17.1-12.3-19s-17.1,3.7-19,12.3
		C5.7,533.3,11.3,541.8,19.9,543.7 M20.7,539.7c-6.5-1.4-10.6-7.8-9.2-14.2c1.4-6.5,7.8-10.6,14.2-9.2s10.6,7.8,9.2,14.2
		C33.6,537,27.2,541.1,20.7,539.7"/>
	<path id="foreground_17_" class="st1" d="M19.9,543.7c-8.6-1.8-14.2-10.3-12.3-19l3.9,0.8c-1.4,6.5,2.8,12.9,9.2,14.2L19.9,543.7z"
		/>
	<path id="_x23_999999_18_" class="st0" d="M16.7,574.6c8.1,3.6,17.5,0,21.1-8.1c3.6-8.1,0-17.5-8.1-21.1s-17.5,0-21.1,8.1
		C5,561.6,8.6,571,16.7,574.6 M18.3,571c-6.1-2.7-8.8-9.8-6.1-15.8s9.8-8.8,15.8-6.1s8.8,9.8,6.1,15.8S24.4,573.7,18.3,571"/>
	<path id="foreground_18_" class="st1" d="M16.7,574.6C8.6,571,5,561.6,8.6,553.5l3.7,1.6c-2.7,6.1,0,13.1,6.1,15.8L16.7,574.6z"/>
	<path id="_x23_999999_19_" class="st0" d="M13.8,604.9c7.1,5.2,17.2,3.6,22.3-3.5s3.6-17.2-3.5-22.3c-7.1-5.2-17.2-3.6-22.3,3.5
		S6.7,599.8,13.8,604.9 M16.2,601.7c-5.4-3.9-6.6-11.4-2.7-16.8s11.4-6.6,16.8-2.7s6.6,11.4,2.7,16.8S21.5,605.6,16.2,601.7"/>
	<path id="foreground_19_" class="st1" d="M13.8,604.9c-7.1-5.2-8.7-15.2-3.5-22.3l3.2,2.4c-3.9,5.4-2.7,12.9,2.7,16.8L13.8,604.9z"
		/>
	<path id="_x23_999999_20_" class="st0" d="M11.3,634.7c5.9,6.6,16,7.1,22.6,1.2c6.6-5.9,7.1-16,1.2-22.6s-16-7.1-22.6-1.2
		C5.9,618,5.4,628.1,11.3,634.7 M14.3,632c-4.4-4.9-4-12.5,0.9-16.9s12.5-4,16.9,0.9c4.4,4.9,4,12.5-0.9,16.9
		C26.3,637.4,18.7,637,14.3,632"/>
	<path id="foreground_20_" class="st1" d="M11.3,634.7c-5.9-6.6-5.4-16.7,1.2-22.6l2.7,3c-4.9,4.4-5.3,12-0.9,16.9L11.3,634.7z"/>
	<path id="_x23_999999_21_" class="st0" d="M9.4,664c4.4,7.7,14.2,10.3,21.9,5.9c7.7-4.4,10.3-14.2,5.9-21.9
		c-4.4-7.7-14.2-10.3-21.9-5.9S4.9,656.3,9.4,664 M12.8,662c-3.3-5.7-1.3-13.1,4.4-16.4c5.7-3.3,13.1-1.3,16.4,4.4
		c3.3,5.7,1.3,13.1-4.4,16.4C23.5,669.7,16.1,667.7,12.8,662"/>
	<path id="foreground_21_" class="st1" d="M9.4,664c-4.4-7.7-1.8-17.4,5.9-21.9l2,3.5c-5.7,3.3-7.7,10.7-4.4,16.4L9.4,664z"/>
	<path id="_x23_999999_22_" class="st0" d="M8,692.9c2.7,8.4,11.8,13,20.2,10.3s13-11.8,10.3-20.2c-2.7-8.4-11.8-13-20.2-10.3
		S5.3,684.5,8,692.9 M11.8,691.7c-2-6.3,1.4-13.1,7.7-15.1s13.1,1.4,15.1,7.7c2,6.3-1.4,13.1-7.7,15.1
		C20.6,701.5,13.9,698,11.8,691.7"/>
	<path id="foreground_22_" class="st1" d="M8,692.9c-2.7-8.4,1.9-17.4,10.3-20.2l1.2,3.8c-6.3,2-9.8,8.8-7.7,15.1L8,692.9z"/>
	<path id="_x23_999999_23_" class="st0" d="M7.3,721.7c0.9,8.8,8.8,15.2,17.6,14.2c8.8-0.9,15.2-8.8,14.2-17.6s-8.8-15.2-17.6-14.2
		S6.4,712.9,7.3,721.7 M11.3,721.3c-0.7-6.6,4.1-12.5,10.7-13.2s12.5,4.1,13.2,10.7c0.7,6.6-4.1,12.5-10.7,13.2S12,727.8,11.3,721.3
		"/>
	<path id="foreground_23_" class="st1" d="M7.3,721.7c-0.9-8.8,5.5-16.7,14.2-17.6l0.4,4c-6.6,0.7-11.4,6.6-10.7,13.2L7.3,721.7z"/>
	<path id="_x23_999999_24_" class="st0" d="M7.3,750.3c-0.9,8.8,5.5,16.7,14.2,17.6c8.8,0.9,16.7-5.5,17.6-14.2s-5.5-16.7-14.2-17.6
		C16.1,735.2,8.2,741.5,7.3,750.3 M11.3,750.7c0.7-6.6,6.6-11.4,13.2-10.7s11.4,6.6,10.7,13.2c-0.7,6.6-6.6,11.4-13.2,10.7
		S10.6,757.3,11.3,750.7"/>
	<path id="foreground_24_" class="st1" d="M7.3,750.3c0.9-8.8,8.8-15.2,17.6-14.2l-0.4,4c-6.6-0.7-12.5,4.1-13.2,10.7L7.3,750.3z"/>
	<path id="_x23_999999_25_" class="st0" d="M8,779.1c-2.7,8.4,1.9,17.4,10.3,20.2c8.4,2.7,17.4-1.9,20.2-10.3
		c2.7-8.4-1.9-17.4-10.3-20.2S10.7,770.7,8,779.1 M11.8,780.3c2-6.3,8.8-9.8,15.1-7.7c6.3,2,9.8,8.8,7.7,15.1
		c-2,6.3-8.8,9.8-15.1,7.7S9.8,786.6,11.8,780.3"/>
	<path id="foreground_25_" class="st1" d="M8,779.1c2.7-8.4,11.8-13,20.2-10.3l-1.2,3.8c-6.3-2-13.1,1.4-15.1,7.7L8,779.1z"/>
	<path id="_x23_999999_26_" class="st0" d="M9.4,808c-4.4,7.7-1.8,17.4,5.9,21.9s17.4,1.8,21.9-5.9c4.4-7.7,1.8-17.4-5.9-21.9
		S13.8,800.3,9.4,808 M12.8,810c3.3-5.7,10.7-7.7,16.4-4.4s7.7,10.7,4.4,16.4c-3.3,5.7-10.7,7.7-16.4,4.4S9.5,815.7,12.8,810"/>
	<path id="foreground_26_" class="st1" d="M9.4,808c4.4-7.7,14.2-10.3,21.9-5.9l-2,3.5c-5.7-3.3-13.1-1.3-16.4,4.4L9.4,808z"/>
	<path id="_x23_999999_27_" class="st0" d="M11.3,837.3c-5.9,6.6-5.4,16.7,1.2,22.6c6.6,5.9,16.7,5.4,22.6-1.2s5.4-16.7-1.2-22.6
		C27.4,830.2,17.2,830.7,11.3,837.3 M14.3,840c4.4-4.9,12-5.3,16.9-0.9c4.9,4.4,5.3,12,0.9,16.9s-12,5.3-16.9,0.9
		C10.3,852.5,9.9,844.9,14.3,840"/>
	<path id="foreground_27_" class="st1" d="M11.3,837.3c5.9-6.6,16-7.1,22.6-1.2l-2.7,3c-4.9-4.4-12.5-4-16.9,0.9L11.3,837.3z"/>
	<path id="_x23_999999_28_" class="st0" d="M13.8,867.1c-7.1,5.2-8.7,15.2-3.5,22.3s15.2,8.7,22.3,3.5c7.1-5.2,8.7-15.2,3.5-22.3
		S21,861.9,13.8,867.1 M16.2,870.3c5.4-3.9,12.9-2.7,16.8,2.7s2.7,12.9-2.7,16.8s-12.9,2.7-16.8-2.7S10.8,874.2,16.2,870.3"/>
	<path id="foreground_28_" class="st1" d="M13.8,867.1c7.1-5.2,17.2-3.6,22.3,3.5l-3.2,2.4c-3.9-5.4-11.4-6.6-16.8-2.7L13.8,867.1z"
		/>
	<path id="_x23_999999_30_" class="st0" d="M16.7,897.4C8.6,901,5,910.4,8.6,918.5s13.1,11.7,21.1,8.1c8.1-3.6,11.7-13.1,8.1-21.1
		C34.2,897.4,24.8,893.8,16.7,897.4 M18.3,901c6.1-2.7,13.1,0,15.8,6.1s0,13.1-6.1,15.8s-13.1,0-15.8-6.1S12.3,903.7,18.3,901"/>
	<path id="foreground_30_" class="st1" d="M16.7,897.4c8.1-3.6,17.5,0,21.1,8.1l-3.7,1.6c-2.7-6.1-9.8-8.8-15.8-6.1L16.7,897.4z"/>
	<path id="_x23_999999_31_" class="st0" d="M19.9,928.3c-8.6,1.8-14.2,10.3-12.3,19s10.3,14.2,19,12.3s14.2-10.3,12.3-19
		C37,932,28.5,926.5,19.9,928.3 M20.7,932.3c6.5-1.4,12.9,2.8,14.2,9.2c1.4,6.5-2.8,12.9-9.2,14.2s-12.9-2.8-14.2-9.2
		C10.1,940,14.2,933.6,20.7,932.3"/>
	<path id="foreground_31_" class="st1" d="M19.9,928.3c8.6-1.8,17.1,3.7,19,12.3l-3.9,0.8c-1.4-6.5-7.8-10.6-14.2-9.2L19.9,928.3z"
		/>
</g>
</svg>
